VotoSerifGX-CondensedText.ufo
<glyph name="dollar" format="2">
  <advance width="360"/>
  <unicode hex="0024"/>
  <outline>
    <contour>
      <point x="165" y="-79" type="line"/>
      <point x="199" y="-79" type="line"/>
      <point x="199" y="44" type="line"/>
      <point x="274" y="58"/>
      <point x="321" y="113"/>
      <point x="321" y="206" type="curve" smooth="yes"/>
      <point x="321" y="278"/>
      <point x="290" y="338"/>
      <point x="199" y="399" type="curve"/>
      <point x="199" y="646" type="line"/>
      <point x="250" y="646"/>
      <point x="261" y="573"/>
      <point x="261" y="518" type="curve"/>
      <point x="294" y="518"/>
      <point x="308" y="542"/>
      <point x="308" y="575" type="curve" smooth="yes"/>
      <point x="308" y="638"/>
      <point x="271" y="682"/>
      <point x="199" y="682" type="curve"/>
      <point x="199" y="760" type="line"/>
      <point x="165" y="760" type="line"/>
      <point x="165" y="680" type="line"/>
      <point x="102" y="669"/>
      <point x="50" y="618"/>
      <point x="50" y="528" type="curve" smooth="yes"/>
      <point x="50" y="443"/>
      <point x="80" y="394"/>
      <point x="165" y="342" type="curve"/>
      <point x="165" y="81" type="line"/>
      <point x="124" y="88"/>
      <point x="78" y="123"/>
      <point x="80" y="233" type="curve"/>
      <point x="53" y="233"/>
      <point x="35" y="200"/>
      <point x="35" y="173" type="curve" smooth="yes"/>
      <point x="35" y="104"/>
      <point x="78" y="51"/>
      <point x="165" y="43" type="curve"/>
    </contour>
    <contour>
      <point x="199" y="79" type="curve"/>
      <point x="199" y="323" type="line"/>
      <point x="238" y="292"/>
      <point x="263" y="253"/>
      <point x="263" y="194" type="curve" smooth="yes"/>
      <point x="263" y="133"/>
      <point x="244" y="92"/>
    </contour>
    <contour>
      <point x="165" y="418" type="line"/>
      <point x="125" y="447"/>
      <point x="107" y="477"/>
      <point x="107" y="541" type="curve" smooth="yes"/>
      <point x="107" y="596"/>
      <point x="127" y="636"/>
      <point x="165" y="645" type="curve"/>
    </contour>
  </outline>
</glyph>
<glyph name="percent" format="2">
  <advance width="582"/>
  <unicode hex="0025"/>
  <outline>
    <contour>
      <point x="153" y="0" type="line"/>
      <point x="195" y="0" type="line"/>
      <point x="426" y="714" type="line"/>
      <point x="384" y="714" type="line"/>
    </contour>
    <contour>
      <point x="136" y="280" type="curve" smooth="yes"/>
      <point x="210" y="280"/>
      <point x="249" y="358"/>
      <point x="249" y="503" type="curve" smooth="yes"/>
      <point x="249" y="648"/>
      <point x="214" y="724"/>
      <point x="137" y="724" type="curve" smooth="yes"/>
      <point x="61" y="724"/>
      <point x="26" y="647"/>
      <point x="26" y="503" type="curve" smooth="yes"/>
      <point x="26" y="356"/>
      <point x="62" y="280"/>
    </contour>
    <contour>
      <point x="138" y="315" type="curve" smooth="yes"/>
      <point x="92" y="315"/>
      <point x="81" y="382"/>
      <point x="81" y="503" type="curve" smooth="yes"/>
      <point x="81" y="629"/>
      <point x="94" y="689"/>
      <point x="137" y="689" type="curve" smooth="yes"/>
      <point x="186" y="689"/>
      <point x="194" y="621"/>
      <point x="194" y="503" type="curve" smooth="yes"/>
      <point x="194" y="377"/>
      <point x="183" y="315"/>
    </contour>
    <contour>
      <point x="445" y="-10" type="curve" smooth="yes"/>
      <point x="518" y="-10"/>
      <point x="556" y="68"/>
      <point x="556" y="213" type="curve" smooth="yes"/>
      <point x="556" y="358"/>
      <point x="522" y="434"/>
      <point x="446" y="434" type="curve" smooth="yes"/>
      <point x="369" y="434"/>
      <point x="334" y="357"/>
      <point x="334" y="213" type="curve" smooth="yes"/>
      <point x="334" y="66"/>
      <point x="370" y="-10"/>
    </contour>
    <contour>
      <point x="445" y="25" type="curve" smooth="yes"/>
      <point x="400" y="25"/>
      <point x="389" y="92"/>
      <point x="389" y="213" type="curve" smooth="yes"/>
      <point x="389" y="339"/>
      <point x="402" y="399"/>
      <point x="446" y="399" type="curve" smooth="yes"/>
      <point x="493" y="399"/>
      <point x="502" y="331"/>
      <point x="502" y="213" type="curve" smooth="yes"/>
      <point x="502" y="87"/>
      <point x="490" y="25"/>
    </contour>
  </outline>
</glyph>
<glyph name="asterisk" format="2">
  <advance width="320"/>
  <unicode hex="002A"/>
  <outline>
    <contour>
      <point x="130" y="380" type="line"/>
      <point x="191" y="380" type="line"/>
      <point x="171" y="541" type="line"/>
      <point x="269" y="449" type="line"/>
      <point x="293" y="518" type="line"/>
      <point x="191" y="568" type="line"/>
      <point x="293" y="622" type="line"/>
      <point x="269" y="689" type="line"/>
      <point x="171" y="596" type="line"/>
      <point x="192" y="760" type="line"/>
      <point x="130" y="760" type="line"/>
      <point x="147" y="596" type="line"/>
      <point x="50" y="691" type="line"/>
      <point x="25" y="623" type="line"/>
      <point x="127" y="568" type="line"/>
      <point x="25" y="517" type="line"/>
      <point x="50" y="447" type="line"/>
      <point x="148" y="542" type="line"/>
    </contour>
  </outline>
</glyph>
<glyph name="one" format="2">
  <advance width="360"/>
  <unicode hex="0031"/>
  <outline>
    <contour>
      <point x="56" y="0" type="line"/>
      <point x="327" y="0" type="line"/>
      <point x="327" y="33" type="line"/>
      <point x="285" y="33" type="line" smooth="yes"/>
      <point x="247" y="33"/>
      <point x="232" y="46"/>
      <point x="232" y="109" type="curve" smooth="yes"/>
      <point x="232" y="718" type="line"/>
      <point x="179" y="718" type="line"/>
      <point x="127" y="662" type="line" smooth="yes"/>
      <point x="82" y="614"/>
      <point x="51" y="608"/>
      <point x="33" y="596" type="curve"/>
      <point x="33" y="573"/>
      <point x="51" y="559"/>
      <point x="64" y="559" type="curve" smooth="yes"/>
      <point x="101" y="559"/>
      <point x="129" y="598"/>
      <point x="162" y="641" type="curve"/>
      <point x="162" y="109" type="line" smooth="yes"/>
      <point x="162" y="43"/>
      <point x="145" y="33"/>
      <point x="108" y="33" type="curve" smooth="yes"/>
      <point x="56" y="33" type="line"/>
    </contour>
  </outline>
</glyph>
<glyph name="three" format="2">
  <advance width="360"/>
  <unicode hex="0033"/>
  <outline>
    <contour>
      <point x="163" y="-9" type="curve"/>
      <point x="252" y="-9"/>
      <point x="327" y="57"/>
      <point x="327" y="195" type="curve" smooth="yes"/>
      <point x="327" y="320"/>
      <point x="270" y="369"/>
      <point x="198" y="377" type="curve"/>
      <point x="273" y="395"/>
      <point x="311" y="483"/>
      <point x="311" y="562" type="curve" smooth="yes"/>
      <point x="311" y="664"/>
      <point x="259" y="724"/>
      <point x="177" y="724" type="curve" smooth="yes"/>
      <point x="98" y="724"/>
      <point x="48" y="669"/>
      <point x="48" y="588" type="curve" smooth="yes"/>
      <point x="48" y="543"/>
      <point x="72" y="529"/>
      <point x="101" y="529" type="curve"/>
      <point x="101" y="615"/>
      <point x="112" y="685"/>
      <point x="175" y="685" type="curve" smooth="yes"/>
      <point x="220" y="685"/>
      <point x="239" y="638"/>
      <point x="239" y="556" type="curve" smooth="yes"/>
      <point x="239" y="455"/>
      <point x="199" y="393"/>
      <point x="141" y="393" type="curve"/>
      <point x="106" y="393" type="line"/>
      <point x="106" y="354" type="line"/>
      <point x="138" y="354" type="line" smooth="yes"/>
      <point x="217" y="354"/>
      <point x="256" y="295"/>
      <point x="256" y="196" type="curve" smooth="yes"/>
      <point x="256" y="93"/>
      <point x="219" y="33"/>
      <point x="162" y="33" type="curve" smooth="yes"/>
      <point x="112" y="33"/>
      <point x="73" y="75"/>
      <point x="73" y="159" type="curve"/>
      <point x="47" y="159"/>
      <point x="32" y="135"/>
      <point x="32" y="104" type="curve" smooth="yes"/>
      <point x="32" y="41"/>
      <point x="77" y="-9"/>
    </contour>
  </outline>
</glyph>
<glyph name="five" format="2">
  <advance width="360"/>
  <unicode hex="0035"/>
  <outline>
    <contour>
      <point x="166" y="-10" type="curve" smooth="yes"/>
      <point x="233" y="-10"/>
      <point x="323" y="47"/>
      <point x="323" y="217" type="curve" smooth="yes"/>
      <point x="323" y="356"/>
      <point x="262" y="428"/>
      <point x="159" y="428" type="curve" smooth="yes"/>
      <point x="135" y="428"/>
      <point x="105" y="417"/>
      <point x="89" y="407" type="curve"/>
      <point x="105" y="655" type="line"/>
      <point x="225" y="655" type="line" smooth="yes"/>
      <point x="255" y="655"/>
      <point x="260" y="644"/>
      <point x="264" y="601" type="curve" smooth="yes"/>
      <point x="268" y="576" type="line"/>
      <point x="300" y="576" type="line"/>
      <point x="297" y="714" type="line"/>
      <point x="73" y="714" type="line"/>
      <point x="48" y="364" type="line"/>
      <point x="70" y="355" type="line"/>
      <point x="87" y="370"/>
      <point x="112" y="387"/>
      <point x="150" y="387" type="curve" smooth="yes"/>
      <point x="218" y="387"/>
      <point x="251" y="328"/>
      <point x="251" y="217" type="curve" smooth="yes"/>
      <point x="251" y="77"/>
      <point x="206" y="31"/>
      <point x="159" y="31" type="curve" smooth="yes"/>
      <point x="77" y="31"/>
      <point x="68" y="98"/>
      <point x="68" y="148" type="curve"/>
      <point x="42" y="148"/>
      <point x="27" y="130"/>
      <point x="27" y="96" type="curve" smooth="yes"/>
      <point x="27" y="62"/>
      <point x="58" y="-10"/>
    </contour>
  </outline>
</glyph>
<glyph name="colon" format="2">
  <advance width="188"/>
  <unicode hex="003A"/>
  <outline>
    <contour>
      <point x="96" y="412" type="curve" smooth="yes"/>
      <point x="118" y="412"/>
      <point x="140" y="424"/>
      <point x="140" y="465" type="curve" smooth="yes"/>
      <point x="140" y="506"/>
      <point x="118" y="520"/>
      <point x="96" y="520" type="curve" smooth="yes"/>
      <point x="69" y="520"/>
      <point x="50" y="506"/>
      <point x="50" y="465" type="curve" smooth="yes"/>
      <point x="50" y="424"/>
      <point x="69" y="412"/>
    </contour>
    <contour>
      <point x="96" y="-6" type="curve" smooth="yes"/>
      <point x="118" y="-6"/>
      <point x="140" y="7"/>
      <point x="140" y="48" type="curve" smooth="yes"/>
      <point x="140" y="89"/>
      <point x="118" y="102"/>
      <point x="96" y="102" type="curve" smooth="yes"/>
      <point x="69" y="102"/>
      <point x="50" y="89"/>
      <point x="50" y="48" type="curve" smooth="yes"/>
      <point x="50" y="7"/>
      <point x="69" y="-6"/>
    </contour>
  </outline>
</glyph>
<glyph name="less" format="2">
  <advance width="333"/>
  <unicode hex="003C"/>
  <outline>
    <contour>
      <point x="302" y="114" type="line"/>
      <point x="302" y="170" type="line"/>
      <point x="83" y="357" type="line"/>
      <point x="302" y="546" type="line"/>
      <point x="302" y="602" type="line"/>
      <point x="31" y="374" type="line"/>
      <point x="31" y="341" type="line"/>
    </contour>
  </outline>
</glyph>
<glyph name="equal" format="2">
  <advance width="333"/>
  <unicode hex="003D"/>
  <outline>
    <contour>
      <point x="30" y="422" type="line"/>
      <point x="303" y="422" type="line"/>
      <point x="303" y="466" type="line"/>
      <point x="30" y="466" type="line"/>
    </contour>
    <contour>
      <point x="30" y="249" type="line"/>
      <point x="303" y="249" type="line"/>
      <point x="303" y="294" type="line"/>
      <point x="30" y="294" type="line"/>
    </contour>
  </outline>
</glyph>
<glyph name="question" format="2">
  <advance width="357"/>
  <unicode hex="003F"/>
  <outline>
    <contour>
      <point x="143" y="190" type="line"/>
      <point x="175" y="190" type="line"/>
      <point x="186" y="323" type="line"/>
      <point x="270" y="370"/>
      <point x="312" y="436"/>
      <point x="312" y="548" type="curve" smooth="yes"/>
      <point x="312" y="667"/>
      <point x="252" y="724"/>
      <point x="165" y="724" type="curve" smooth="yes"/>
      <point x="79" y="724"/>
      <point x="35" y="671"/>
      <point x="35" y="613" type="curve" smooth="yes"/>
      <point x="35" y="570"/>
      <point x="61" y="557"/>
      <point x="95" y="557" type="curve"/>
      <point x="95" y="635"/>
      <point x="116" y="685"/>
      <point x="164" y="685" type="curve" smooth="yes"/>
      <point x="213" y="685"/>
      <point x="235" y="632"/>
      <point x="235" y="550" type="curve" smooth="yes"/>
      <point x="235" y="463"/>
      <point x="212" y="385"/>
      <point x="132" y="341" type="curve"/>
    </contour>
    <contour>
      <point x="160" y="-6" type="curve" smooth="yes"/>
      <point x="185" y="-6"/>
      <point x="207" y="7"/>
      <point x="207" y="47" type="curve" smooth="yes"/>
      <point x="207" y="88"/>
      <point x="185" y="101"/>
      <point x="160" y="101" type="curve" smooth="yes"/>
      <point x="135" y="101"/>
      <point x="115" y="88"/>
      <point x="115" y="47" type="curve" smooth="yes"/>
      <point x="115" y="7"/>
      <point x="135" y="-6"/>
    </contour>
  </outline>
</glyph>
<glyph name="at" format="2">
  <advance width="594"/>
  <unicode hex="0040"/>
  <outline>
    <contour>
      <point x="286" y="-142" type="curve" smooth="yes"/>
      <point x="369" y="-142"/>
      <point x="429" y="-92"/>
      <point x="476" y="-44" type="curve"/>
      <point x="460" y="-13" type="line"/>
      <point x="421" y="-56"/>
      <point x="365" y="-106"/>
      <point x="293" y="-106" type="curve" smooth="yes"/>
      <point x="173" y="-106"/>
      <point x="87" y="-11"/>
      <point x="87" y="213" type="curve" smooth="yes"/>
      <point x="87" y="492"/>
      <point x="207" y="679"/>
      <point x="335" y="679" type="curve" smooth="yes"/>
      <point x="473" y="679"/>
      <point x="524" y="558"/>
      <point x="524" y="387" type="curve" smooth="yes"/>
      <point x="524" y="210"/>
      <point x="479" y="113"/>
      <point x="438" y="113" type="curve" smooth="yes"/>
      <point x="413" y="113"/>
      <point x="405" y="140"/>
      <point x="405" y="201" type="curve" smooth="yes"/>
      <point x="405" y="220"/>
      <point x="407" y="249"/>
      <point x="409" y="273" type="curve" smooth="yes"/>
      <point x="439" y="520" type="line"/>
      <point x="423" y="520" type="line"/>
      <point x="400" y="496" type="line"/>
      <point x="392" y="508"/>
      <point x="370" y="529"/>
      <point x="334" y="529" type="curve" smooth="yes"/>
      <point x="209" y="529"/>
      <point x="168" y="362"/>
      <point x="168" y="252" type="curve" smooth="yes"/>
      <point x="168" y="133"/>
      <point x="207" y="77"/>
      <point x="266" y="77" type="curve" smooth="yes"/>
      <point x="314" y="77"/>
      <point x="337" y="111"/>
      <point x="357" y="164" type="curve"/>
      <point x="361" y="164" type="line"/>
      <point x="375" y="107"/>
      <point x="393" y="77"/>
      <point x="435" y="77" type="curve" smooth="yes"/>
      <point x="502" y="77"/>
      <point x="564" y="202"/>
      <point x="564" y="391" type="curve" smooth="yes"/>
      <point x="564" y="587"/>
      <point x="488" y="714"/>
      <point x="343" y="714" type="curve" smooth="yes"/>
      <point x="173" y="714"/>
      <point x="41" y="505"/>
      <point x="41" y="210" type="curve" smooth="yes"/>
      <point x="41" y="-27"/>
      <point x="146" y="-142"/>
    </contour>
    <contour>
      <point x="283" y="114" type="curve" smooth="yes"/>
      <point x="247" y="114"/>
      <point x="227" y="147"/>
      <point x="227" y="246" type="curve" smooth="yes"/>
      <point x="227" y="325"/>
      <point x="250" y="498"/>
      <point x="330" y="498" type="curve" smooth="yes"/>
      <point x="356" y="498"/>
      <point x="372" y="482"/>
      <point x="378" y="461" type="curve"/>
      <point x="353" y="250" type="line" smooth="yes"/>
      <point x="345" y="190"/>
      <point x="325" y="114"/>
    </contour>
  </outline>
</glyph>
<glyph name="A" format="2">
  <advance width="469"/>
  <unicode hex="0041"/>
  <anchor x="235" y="0" name="bottom"/>
  <anchor x="235" y="714" name="top"/>
  <anchor x="375" y="714" name="topright"/>
  <outline>
    <contour>
      <point x="1" y="0" type="line"/>
      <point x="157" y="0" type="line"/>
      <point x="157" y="33" type="line"/>
      <point x="143" y="33" type="line" smooth="yes"/>
      <point x="111" y="33"/>
      <point x="100" y="43"/>
      <point x="100" y="63" type="curve" smooth="yes"/>
      <point x="100" y="76"/>
      <point x="106" y="104"/>
      <point x="112" y="130" type="curve" smooth="yes"/>
      <point x="140" y="245" type="line"/>
      <point x="304" y="245" type="line"/>
      <point x="338" y="108" type="line" smooth="yes"/>
      <point x="344" y="84"/>
      <point x="346" y="70"/>
      <point x="346" y="64" type="curve" smooth="yes"/>
      <point x="346" y="40"/>
      <point x="335" y="33"/>
      <point x="304" y="33" type="curve" smooth="yes"/>
      <point x="287" y="33" type="line"/>
      <point x="287" y="0" type="line"/>
      <point x="469" y="0" type="line"/>
      <point x="469" y="33" type="line"/>
      <point x="467" y="33" type="line" smooth="yes"/>
      <point x="441" y="33"/>
      <point x="426" y="43"/>
      <point x="420" y="72" type="curve" smooth="yes"/>
      <point x="266" y="714" type="line"/>
      <point x="211" y="714" type="line"/>
      <point x="68" y="127" type="line" smooth="yes"/>
      <point x="49" y="48"/>
      <point x="36" y="33"/>
      <point x="10" y="33" type="curve" smooth="yes"/>
      <point x="1" y="33" type="line"/>
    </contour>
    <contour>
      <point x="151" y="284" type="line"/>
      <point x="198" y="499" type="line" smooth="yes"/>
      <point x="211" y="556"/>
      <point x="217" y="589"/>
      <point x="223" y="628" type="curve"/>
      <point x="227" y="594"/>
      <point x="234" y="559"/>
      <point x="252" y="486" type="curve" smooth="yes"/>
      <point x="295" y="284" type="line"/>
    </contour>
  </outline>
</glyph>
<glyph name="E" format="2">
  <advance width="410"/>
  <unicode hex="0045"/>
  <anchor x="206" y="0" name="bottom"/>
  <anchor x="206" y="714" name="top"/>
  <anchor x="390" y="714" name="topright"/>
  <outline>
    <contour>
      <point x="23" y="0" type="line"/>
      <point x="383" y="0" type="line"/>
      <point x="385" y="173" type="line"/>
      <point x="350" y="173" type="line"/>
      <point x="345" y="111" type="line" smooth="yes"/>
      <point x="341" y="55"/>
      <point x="335" y="39"/>
      <point x="278" y="39" type="curve" smooth="yes"/>
      <point x="155" y="39" type="line"/>
      <point x="157" y="355" type="line"/>
      <point x="316" y="355" type="line"/>
      <point x="316" y="394" type="line"/>
      <point x="157" y="394" type="line"/>
      <point x="157" y="675" type="line"/>
      <point x="256" y="675" type="line" smooth="yes"/>
      <point x="316" y="675"/>
      <point x="323" y="663"/>
      <point x="327" y="583" type="curve" smooth="yes"/>
      <point x="328" y="541" type="line"/>
      <point x="364" y="541" type="line"/>
      <point x="362" y="714" type="line"/>
      <point x="23" y="714" type="line"/>
      <point x="23" y="681" type="line"/>
      <point x="36" y="681" type="line" smooth="yes"/>
      <point x="72" y="681"/>
      <point x="82" y="671"/>
      <point x="82" y="604" type="curve" smooth="yes"/>
      <point x="82" y="108" type="line" smooth="yes"/>
      <point x="82" y="46"/>
      <point x="74" y="33"/>
      <point x="36" y="33" type="curve" smooth="yes"/>
      <point x="23" y="33" type="line"/>
    </contour>
  </outline>
</glyph>
<glyph name="N" format="2">
  <advance width="499"/>
  <unicode hex="004E"/>
  <anchor x="250" y="0" name="bottom"/>
  <anchor x="250" y="714" name="top"/>
  <anchor x="479" y="714" name="topright"/>
  <outline>
    <contour>
      <point x="23" y="0" type="line"/>
      <point x="194" y="0" type="line"/>
      <point x="194" y="33" type="line"/>
      <point x="170" y="33" type="line" smooth="yes"/>
      <point x="130" y="33"/>
      <point x="123" y="43"/>
      <point x="123" y="112" type="curve" smooth="yes"/>
      <point x="123" y="602" type="line"/>
      <point x="358" y="0" type="line"/>
      <point x="424" y="0" type="line"/>
      <point x="424" y="602" type="line" smooth="yes"/>
      <point x="424" y="669"/>
      <point x="433" y="681"/>
      <point x="472" y="681" type="curve" smooth="yes"/>
      <point x="486" y="681" type="line"/>
      <point x="486" y="714" type="line"/>
      <point x="313" y="714" type="line"/>
      <point x="313" y="681" type="line"/>
      <point x="337" y="681" type="line" smooth="yes"/>
      <point x="375" y="681"/>
      <point x="385" y="669"/>
      <point x="385" y="604" type="curve" smooth="yes"/>
      <point x="385" y="129" type="line"/>
      <point x="160" y="714" type="line"/>
      <point x="23" y="714" type="line"/>
      <point x="23" y="681" type="line"/>
      <point x="35" y="681" type="line" smooth="yes"/>
      <point x="72" y="681"/>
      <point x="83" y="671"/>
      <point x="83" y="604" type="curve" smooth="yes"/>
      <point x="83" y="112" type="line" smooth="yes"/>
      <point x="83" y="43"/>
      <point x="73" y="33"/>
      <point x="32" y="33" type="curve" smooth="yes"/>
      <point x="23" y="33" type="line"/>
    </contour>
  </outline>
</glyph>
<glyph name="W" format="2">
  <advance width="682"/>
  <unicode hex="0057"/>
  <anchor x="341" y="0" name="bottom"/>
  <anchor x="341" y="714" name="top"/>
  <anchor x="662" y="714" name="topright"/>
  <outline>
    <contour>
      <point x="149" y="0" type="line"/>
      <point x="222" y="0" type="line"/>
      <point x="344" y="577" type="line"/>
      <point x="446" y="0" type="line"/>
      <point x="519" y="0" type="line"/>
      <point x="621" y="620" type="line" smooth="yes"/>
      <point x="631" y="675"/>
      <point x="644" y="681"/>
      <point x="681" y="681" type="curve" smooth="yes"/>
      <point x="679" y="681" type="line"/>
      <point x="679" y="714" type="line"/>
      <point x="512" y="714" type="line"/>
      <point x="512" y="681" type="line"/>
      <point x="531" y="681" type="line" smooth="yes"/>
      <point x="574" y="681"/>
      <point x="583" y="671"/>
      <point x="583" y="648" type="curve" smooth="yes"/>
      <point x="583" y="636"/>
      <point x="580" y="613"/>
      <point x="576" y="586" type="curve" smooth="yes"/>
      <point x="521" y="253" type="line" smooth="yes"/>
      <point x="513" y="198"/>
      <point x="505" y="138"/>
      <point x="496" y="98" type="curve"/>
      <point x="488" y="144"/>
      <point x="480" y="194"/>
      <point x="469" y="256" type="curve" smooth="yes"/>
      <point x="385" y="711" type="line"/>
      <point x="334" y="711" type="line"/>
      <point x="234" y="237" type="line" smooth="yes"/>
      <point x="224" y="184"/>
      <point x="212" y="142"/>
      <point x="203" y="93" type="curve"/>
      <point x="198" y="144"/>
      <point x="191" y="204"/>
      <point x="184" y="260" type="curve" smooth="yes"/>
      <point x="144" y="577" type="line" smooth="yes"/>
      <point x="141" y="607"/>
      <point x="135" y="635"/>
      <point x="135" y="647" type="curve" smooth="yes"/>
      <point x="135" y="670"/>
      <point x="143" y="681"/>
      <point x="185" y="681" type="curve" smooth="yes"/>
      <point x="192" y="681" type="line"/>
      <point x="192" y="714" type="line"/>
      <point x="4" y="714" type="line"/>
      <point x="4" y="681" type="line"/>
      <point x="2" y="681" type="line" smooth="yes"/>
      <point x="38" y="681"/>
      <point x="52" y="674"/>
      <point x="59" y="631" type="curve" smooth="yes"/>
    </contour>
  </outline>
</glyph>
<glyph name="X" format="2">
  <advance width="446"/>
  <unicode hex="0058"/>
  <anchor x="224" y="0" name="bottom"/>
  <anchor x="224" y="714" name="top"/>
  <anchor x="426" y="714" name="topright"/>
  <outline>
    <contour>
      <point x="5" y="0" type="line"/>
      <point x="164" y="0" type="line"/>
      <point x="164" y="33" type="line"/>
      <point x="152" y="33" type="line" smooth="yes"/>
      <point x="114" y="33"/>
      <point x="108" y="42"/>
      <point x="108" y="59" type="curve" smooth="yes"/>
      <point x="108" y="74"/>
      <point x="113" y="92"/>
      <point x="136" y="147" type="curve" smooth="yes"/>
      <point x="206" y="320" type="line"/>
      <point x="283" y="135" type="line" smooth="yes"/>
      <point x="304" y="83"/>
      <point x="312" y="65"/>
      <point x="312" y="54" type="curve" smooth="yes"/>
      <point x="312" y="41"/>
      <point x="303" y="33"/>
      <point x="267" y="33" type="curve" smooth="yes"/>
      <point x="250" y="33" type="line"/>
      <point x="250" y="0" type="line"/>
      <point x="439" y="0" type="line"/>
      <point x="439" y="33" type="line"/>
      <point x="440" y="33" type="line" smooth="yes"/>
      <point x="415" y="33"/>
      <point x="401" y="39"/>
      <point x="383" y="83" type="curve" smooth="yes"/>
      <point x="258" y="378" type="line"/>
      <point x="358" y="625" type="line" smooth="yes"/>
      <point x="379" y="674"/>
      <point x="392" y="681"/>
      <point x="423" y="681" type="curve" smooth="yes"/>
      <point x="420" y="681" type="line"/>
      <point x="420" y="714" type="line"/>
      <point x="276" y="714" type="line"/>
      <point x="276" y="681" type="line"/>
      <point x="288" y="681" type="line" smooth="yes"/>
      <point x="317" y="681"/>
      <point x="325" y="674"/>
      <point x="325" y="657" type="curve" smooth="yes"/>
      <point x="325" y="641"/>
      <point x="314" y="619"/>
      <point x="305" y="593" type="curve" smooth="yes"/>
      <point x="239" y="421" type="line"/>
      <point x="168" y="594" type="line" smooth="yes"/>
      <point x="157" y="622"/>
      <point x="144" y="651"/>
      <point x="144" y="659" type="curve" smooth="yes"/>
      <point x="144" y="672"/>
      <point x="149" y="681"/>
      <point x="184" y="681" type="curve" smooth="yes"/>
      <point x="202" y="681" type="line"/>
      <point x="202" y="714" type="line"/>
      <point x="12" y="714" type="line"/>
      <point x="12" y="681" type="line"/>
      <point x="8" y="681" type="line" smooth="yes"/>
      <point x="47" y="681"/>
      <point x="56" y="673"/>
      <point x="72" y="631" type="curve" smooth="yes"/>
      <point x="187" y="361" type="line"/>
      <point x="72" y="88" type="line" smooth="yes"/>
      <point x="53" y="43"/>
      <point x="39" y="33"/>
      <point x="-2" y="33" type="curve" smooth="yes"/>
      <point x="5" y="33" type="line"/>
    </contour>
  </outline>
</glyph>
<glyph name="bracketleft" format="2">
  <advance width="248"/>
  <unicode hex="005B"/>
  <outline>
    <contour>
      <point x="64" y="-128" type="line"/>
      <point x="222" y="-128" type="line"/>
      <point x="222" y="-95" type="line"/>
      <point x="194" y="-95" type="line" smooth="yes"/>
      <point x="150" y="-95"/>
      <point x="136" y="-85"/>
      <point x="136" y="-13" type="curve" smooth="yes"/>
      <point x="136" y="645" type="line" smooth="yes"/>
      <point x="136" y="717"/>
      <point x="150" y="727"/>
      <point x="194" y="727" type="curve" smooth="yes"/>
      <point x="222" y="727" type="line"/>
      <point x="222" y="760" type="line"/>
      <point x="64" y="760" type="line"/>
    </contour>
  </outline>
</glyph>
<glyph name="bracketright" format="2">
  <advance width="248"/>
  <unicode hex="005D"/>
  <outline>
    <contour>
      <point x="23" y="-128" type="line"/>
      <point x="182" y="-128" type="line"/>
      <point x="182" y="760" type="line"/>
      <point x="23" y="760" type="line"/>
      <point x="23" y="727" type="line"/>
      <point x="52" y="727" type="line" smooth="yes"/>
      <point x="96" y="727"/>
      <point x="109" y="717"/>
      <point x="109" y="645" type="curve" smooth="yes"/>
      <point x="109" y="-13" type="line" smooth="yes"/>
      <point x="109" y="-85"/>
      <point x="96" y="-95"/>
      <point x="52" y="-95" type="curve" smooth="yes"/>
      <point x="23" y="-95" type="line"/>
    </contour>
  </outline>
</glyph>
<glyph name="underscore" format="2">
  <advance width="295"/>
  <unicode hex="005F"/>
  <outline>
    <contour>
      <point x="-3" y="-156" type="line"/>
      <point x="299" y="-156" type="line"/>
      <point x="299" y="-83" type="line"/>
      <point x="-3" y="-83" type="line"/>
    </contour>
  </outline>
</glyph>
<glyph name="a" format="2">
  <advance width="374"/>
  <unicode hex="0061"/>
  <anchor x="188" y="0" name="bottom"/>
  <anchor x="188" y="536" name="top"/>
  <anchor x="354" y="536" name="topright"/>
  <outline>
    <contour>
      <point x="132" y="-10" type="curve" smooth="yes"/>
      <point x="184" y="-10"/>
      <point x="204" y="15"/>
      <point x="231" y="77" type="curve"/>
      <point x="236" y="77" type="line"/>
      <point x="245" y="0" type="line"/>
      <point x="347" y="0" type="line"/>
      <point x="347" y="33" type="line"/>
      <point x="348" y="33" type="line" smooth="yes"/>
      <point x="317" y="33"/>
      <point x="304" y="42"/>
      <point x="304" y="108" type="curve" smooth="yes"/>
      <point x="304" y="363" type="line" smooth="yes"/>
      <point x="304" y="504"/>
      <point x="259" y="545"/>
      <point x="183" y="545" type="curve" smooth="yes"/>
      <point x="120" y="545"/>
      <point x="58" y="509"/>
      <point x="58" y="440" type="curve" smooth="yes"/>
      <point x="58" y="408"/>
      <point x="77" y="389"/>
      <point x="116" y="389" type="curve"/>
      <point x="116" y="473"/>
      <point x="145" y="506"/>
      <point x="177" y="506" type="curve" smooth="yes"/>
      <point x="206" y="506"/>
      <point x="231" y="474"/>
      <point x="231" y="372" type="curve" smooth="yes"/>
      <point x="231" y="311" type="line"/>
      <point x="178" y="308" type="line" smooth="yes"/>
      <point x="80" y="303"/>
      <point x="31" y="254"/>
      <point x="31" y="149" type="curve" smooth="yes"/>
      <point x="31" y="42"/>
      <point x="72" y="-10"/>
    </contour>
    <contour>
      <point x="155" y="32" type="curve" smooth="yes"/>
      <point x="122" y="32"/>
      <point x="106" y="75"/>
      <point x="106" y="148" type="curve" smooth="yes"/>
      <point x="106" y="227"/>
      <point x="134" y="269"/>
      <point x="195" y="274" type="curve" smooth="yes"/>
      <point x="232" y="277" type="line"/>
      <point x="232" y="199" type="line" smooth="yes"/>
      <point x="232" y="96"/>
      <point x="203" y="32"/>
    </contour>
  </outline>
</glyph>
<glyph name="g" format="2">
  <advance width="353"/>
  <unicode hex="0067"/>
  <anchor x="177" y="-240" name="bottom"/>
  <anchor x="173" y="536" name="top"/>
  <anchor x="345" y="536" name="topright"/>
  <outline>
    <contour>
      <point x="160" y="-240" type="curve" smooth="yes"/>
      <point x="268" y="-240"/>
      <point x="328" y="-170"/>
      <point x="328" y="-58" type="curve" smooth="yes"/>
      <point x="328" y="21"/>
      <point x="297" y="85"/>
      <point x="206" y="85" type="curve" smooth="yes"/>
      <point x="142" y="85" type="line" smooth="yes"/>
      <point x="116" y="85"/>
      <point x="105" y="100"/>
      <point x="105" y="132" type="curve" smooth="yes"/>
      <point x="105" y="162"/>
      <point x="118" y="182"/>
      <point x="128" y="197" type="curve"/>
      <point x="140" y="195"/>
      <point x="155" y="193"/>
      <point x="167" y="193" type="curve" smooth="yes"/>
      <point x="250" y="193"/>
      <point x="289" y="256"/>
      <point x="289" y="364" type="curve" smooth="yes"/>
      <point x="289" y="430"/>
      <point x="279" y="462"/>
      <point x="263" y="489" type="curve"/>
      <point x="276" y="513"/>
      <point x="285" y="519"/>
      <point x="289" y="519" type="curve" smooth="yes"/>
      <point x="306" y="519"/>
      <point x="311" y="504"/>
      <point x="311" y="470" type="curve"/>
      <point x="336" y="470"/>
      <point x="346" y="488"/>
      <point x="346" y="515" type="curve" smooth="yes"/>
      <point x="346" y="541"/>
      <point x="331" y="566"/>
      <point x="306" y="566" type="curve" smooth="yes"/>
      <point x="277" y="566"/>
      <point x="263" y="541"/>
      <point x="242" y="513" type="curve"/>
      <point x="226" y="530"/>
      <point x="199" y="545"/>
      <point x="167" y="545" type="curve" smooth="yes"/>
      <point x="82" y="545"/>
      <point x="38" y="494"/>
      <point x="38" y="354" type="curve" smooth="yes"/>
      <point x="38" y="277"/>
      <point x="71" y="227"/>
      <point x="101" y="211" type="curve"/>
      <point x="72" y="184"/>
      <point x="53" y="157"/>
      <point x="53" y="120" type="curve" smooth="yes"/>
      <point x="53" y="78"/>
      <point x="74" y="57"/>
      <point x="90" y="45" type="curve"/>
      <point x="51" y="28"/>
      <point x="9" y="-11"/>
      <point x="9" y="-94" type="curve" smooth="yes"/>
      <point x="9" y="-183"/>
      <point x="52" y="-240"/>
    </contour>
    <contour>
      <point x="161" y="-202" type="curve" smooth="yes"/>
      <point x="95" y="-202"/>
      <point x="68" y="-156"/>
      <point x="68" y="-92" type="curve" smooth="yes"/>
      <point x="68" y="-33"/>
      <point x="101" y="22"/>
      <point x="136" y="22" type="curve" smooth="yes"/>
      <point x="194" y="22" type="line" smooth="yes"/>
      <point x="259" y="22"/>
      <point x="268" y="-19"/>
      <point x="268" y="-72" type="curve" smooth="yes"/>
      <point x="268" y="-143"/>
      <point x="237" y="-202"/>
    </contour>
    <contour>
      <point x="164" y="230" type="curve" smooth="yes"/>
      <point x="115" y="230"/>
      <point x="103" y="282"/>
      <point x="103" y="364" type="curve" smooth="yes"/>
      <point x="103" y="458"/>
      <point x="121" y="506"/>
      <point x="162" y="506" type="curve" smooth="yes"/>
      <point x="208" y="506"/>
      <point x="224" y="467"/>
      <point x="224" y="365" type="curve" smooth="yes"/>
      <point x="224" y="282"/>
      <point x="212" y="230"/>
    </contour>
  </outline>
</glyph>
<glyph name="l" format="2">
  <advance width="211"/>
  <unicode hex="006C"/>
  <anchor x="106" y="0" name="bottom"/>
  <anchor x="106" y="268" name="center"/>
  <anchor x="106" y="760" name="top"/>
  <anchor x="206" y="760" name="topright"/>
  <outline>
    <contour>
      <point x="9" y="0" type="line"/>
      <point x="201" y="0" type="line"/>
      <point x="201" y="33" type="line"/>
      <point x="206" y="33" type="line" smooth="yes"/>
      <point x="151" y="33"/>
      <point x="142" y="41"/>
      <point x="142" y="106" type="curve" smooth="yes"/>
      <point x="142" y="760" type="line"/>
      <point x="9" y="760" type="line"/>
      <point x="9" y="727" type="line"/>
      <point x="10" y="727" type="line" smooth="yes"/>
      <point x="51" y="727"/>
      <point x="68" y="722"/>
      <point x="68" y="656" type="curve" smooth="yes"/>
      <point x="68" y="106" type="line" smooth="yes"/>
      <point x="68" y="41"/>
      <point x="58" y="33"/>
      <point x="4" y="33" type="curve" smooth="yes"/>
      <point x="9" y="33" type="line"/>
    </contour>
  </outline>
</glyph>
<glyph name="asciitilde" format="2">
  <advance width="333"/>
  <unicode hex="007E"/>
  <outline>
    <contour>
      <point x="19" y="271" type="curve"/>
      <point x="61" y="271" type="line"/>
      <point x="65" y="347"/>
      <point x="74" y="397"/>
      <point x="105" y="397" type="curve" smooth="yes"/>
      <point x="112" y="397"/>
      <point x="116" y="395"/>
      <point x="153" y="340" type="curve" smooth="yes"/>
      <point x="189" y="283"/>
      <point x="206" y="272"/>
      <point x="228" y="272" type="curve" smooth="yes"/>
      <point x="296" y="272"/>
      <point x="313" y="361"/>
      <point x="316" y="441" type="curve"/>
      <point x="274" y="441" type="line"/>
      <point x="271" y="356"/>
      <point x="257" y="317"/>
      <point x="227" y="317" type="curve" smooth="yes"/>
      <point x="213" y="317"/>
      <point x="210" y="325"/>
      <point x="180" y="373" type="curve" smooth="yes"/>
      <point x="146" y="428"/>
      <point x="126" y="442"/>
      <point x="100" y="442" type="curve" smooth="yes"/>
      <point x="37" y="442"/>
      <point x="21" y="350"/>
    </contour>
  </outline>
</glyph>
<glyph name="ordfeminine" format="2">
  <advance width="257"/>
  <unicode hex="00AA"/>
  <outline>
    <contour>
      <point x="95" y="380" type="curve" smooth="yes"/>
      <point x="127" y="380"/>
      <point x="149" y="396"/>
      <point x="164" y="427" type="curve"/>
      <point x="170" y="427" type="line"/>
      <point x="179" y="386" type="line"/>
      <point x="246" y="386" type="line"/>
      <point x="246" y="417" type="line"/>
      <point x="224" y="417"/>
      <point x="218" y="422"/>
      <point x="218" y="452" type="curve"/>
      <point x="218" y="618" type="line" smooth="yes"/>
      <point x="218" y="693"/>
      <point x="183" y="718"/>
      <point x="126" y="718" type="curve" smooth="yes"/>
      <point x="73" y="718"/>
      <point x="39" y="694"/>
      <point x="39" y="653" type="curve" smooth="yes"/>
      <point x="39" y="625"/>
      <point x="54" y="615"/>
      <point x="90" y="615" type="curve"/>
      <point x="90" y="652"/>
      <point x="92" y="687"/>
      <point x="126" y="687" type="curve"/>
      <point x="148" y="687"/>
      <point x="161" y="655"/>
      <point x="161" y="615" type="curve" smooth="yes"/>
      <point x="161" y="582" type="line"/>
      <point x="125" y="580" type="line"/>
      <point x="54" y="576"/>
      <point x="22" y="530"/>
      <point x="22" y="470" type="curve" smooth="yes"/>
      <point x="22" y="421"/>
      <point x="39" y="380"/>
    </contour>
    <contour>
      <point x="113" y="419" type="curve" smooth="yes"/>
      <point x="96" y="419"/>
      <point x="79" y="432"/>
      <point x="79" y="471" type="curve"/>
      <point x="79" y="510"/>
      <point x="89" y="548"/>
      <point x="136" y="551" type="curve"/>
      <point x="161" y="552" type="line"/>
      <point x="161" y="511" type="line" smooth="yes"/>
      <point x="161" y="442"/>
      <point x="143" y="419"/>
    </contour>
  </outline>
</glyph>
<glyph name="overscore" format="2">
  <advance width="295"/>
  <unicode hex="00AF"/>
  <outline>
    <contour>
      <point x="-3" y="760" type="line"/>
      <point x="299" y="760" type="line"/>
      <point x="299" y="832" type="line"/>
      <point x="-3" y="832" type="line"/>
    </contour>
  </outline>
</glyph>
<glyph name="degree" format="2">
  <advance width="259"/>
  <unicode hex="00B0"/>
  <outline>
    <contour>
      <point x="130" y="448" type="curve" smooth="yes"/>
      <point x="191" y="448"/>
      <point x="221" y="507"/>
      <point x="221" y="590" type="curve" smooth="yes"/>
      <point x="221" y="672"/>
      <point x="191" y="732"/>
      <point x="130" y="732" type="curve" smooth="yes"/>
      <point x="68" y="732"/>
      <point x="40" y="672"/>
      <point x="40" y="590" type="curve" smooth="yes"/>
      <point x="40" y="507"/>
      <point x="68" y="448"/>
    </contour>
    <contour>
      <point x="133" y="475" type="curve" smooth="yes"/>
      <point x="85" y="475"/>
      <point x="67" y="526"/>
      <point x="67" y="592" type="curve" smooth="yes"/>
      <point x="67" y="659"/>
      <point x="86" y="705"/>
      <point x="133" y="705" type="curve" smooth="yes"/>
      <point x="175" y="705"/>
      <point x="194" y="659"/>
      <point x="194" y="592" type="curve" smooth="yes"/>
      <point x="194" y="526"/>
      <point x="176" y="475"/>
    </contour>
  </outline>
</glyph>
<glyph name="ordmasculine" format="2">
  <advance width="266"/>
  <unicode hex="00BA"/>
  <outline>
    <contour>
      <point x="132" y="380" type="curve" smooth="yes"/>
      <point x="206" y="380"/>
      <point x="236" y="436"/>
      <point x="236" y="550" type="curve"/>
      <point x="236" y="662"/>
      <point x="205" y="718"/>
      <point x="134" y="718" type="curve" smooth="yes"/>
      <point x="61" y="718"/>
      <point x="30" y="664"/>
      <point x="30" y="550" type="curve" smooth="yes"/>
      <point x="30" y="437"/>
      <point x="59" y="380"/>
    </contour>
    <contour>
      <point x="134" y="414" type="curve" smooth="yes"/>
      <point x="97" y="414"/>
      <point x="88" y="455"/>
      <point x="88" y="550" type="curve"/>
      <point x="88" y="644"/>
      <point x="97" y="684"/>
      <point x="133" y="684" type="curve" smooth="yes"/>
      <point x="168" y="684"/>
      <point x="178" y="644"/>
      <point x="178" y="550" type="curve" smooth="yes"/>
      <point x="178" y="455"/>
      <point x="169" y="414"/>
    </contour>
  </outline>
</glyph>
<glyph name="guillemotright" format="2">
  <advance width="341"/>
  <unicode hex="00BB"/>
  <outline>
    <contour>
      <point x="164" y="82" type="line"/>
      <point x="192" y="82" type="line"/>
      <point x="299" y="256" type="line"/>
      <point x="299" y="284" type="line"/>
      <point x="192" y="458" type="line"/>
      <point x="164" y="458" type="line"/>
      <point x="228" y="270" type="line"/>
    </contour>
    <contour>
      <point x="42" y="82" type="line"/>
      <point x="71" y="82" type="line"/>
      <point x="176" y="256" type="line"/>
      <point x="176" y="284" type="line"/>
      <point x="71" y="458" type="line"/>
      <point x="42" y="458" type="line"/>
      <point x="106" y="270" type="line"/>
    </contour>
  </outline>
</glyph>
<glyph name="Aring" format="2">
  <advance width="469"/>
  <unicode hex="00C5"/>
  <anchor x="235" y="0" name="bottom"/>
  <anchor x="235" y="886" name="top"/>
  <outline>
    <contour>
      <point x="1" y="0" type="line"/>
      <point x="157" y="0" type="line"/>
      <point x="157" y="33" type="line"/>
      <point x="136" y="33" type="line" smooth="yes"/>
      <point x="111" y="33"/>
      <point x="100" y="45"/>
      <point x="100" y="63" type="curve" smooth="yes"/>
      <point x="100" y="76"/>
      <point x="106" y="104"/>
      <point x="112" y="130" type="curve" smooth="yes"/>
      <point x="139" y="245" type="line"/>
      <point x="304" y="245" type="line"/>
      <point x="338" y="108" type="line" smooth="yes"/>
      <point x="342" y="91"/>
      <point x="347" y="73"/>
      <point x="347" y="63" type="curve" smooth="yes"/>
      <point x="347" y="41"/>
      <point x="333" y="33"/>
      <point x="309" y="33" type="curve" smooth="yes"/>
      <point x="287" y="33" type="line"/>
      <point x="287" y="0" type="line"/>
      <point x="469" y="0" type="line"/>
      <point x="469" y="33" type="line"/>
      <point x="466" y="33" type="line" smooth="yes"/>
      <point x="437" y="33"/>
      <point x="425" y="43"/>
      <point x="416" y="83" type="curve" smooth="yes"/>
      <point x="277" y="679" type="line"/>
      <point x="299" y="692"/>
      <point x="315" y="724"/>
      <point x="315" y="777" type="curve" smooth="yes"/>
      <point x="315" y="848"/>
      <point x="281" y="886"/>
      <point x="237" y="886" type="curve" smooth="yes"/>
      <point x="193" y="886"/>
      <point x="159" y="848"/>
      <point x="159" y="777" type="curve" smooth="yes"/>
      <point x="159" y="723"/>
      <point x="176" y="690"/>
      <point x="200" y="678" type="curve"/>
      <point x="70" y="130" type="line" smooth="yes"/>
      <point x="49" y="47"/>
      <point x="36" y="33"/>
      <point x="6" y="33" type="curve" smooth="yes"/>
      <point x="1" y="33" type="line"/>
    </contour>
    <contour>
      <point x="151" y="284" type="line"/>
      <point x="193" y="490" type="line" smooth="yes"/>
      <point x="205" y="547"/>
      <point x="218" y="594"/>
      <point x="224" y="630" type="curve"/>
      <point x="230" y="598"/>
      <point x="239" y="550"/>
      <point x="256" y="477" type="curve" smooth="yes"/>
      <point x="295" y="284" type="line"/>
    </contour>
    <contour>
      <point x="238" y="706" type="curve" smooth="yes"/>
      <point x="214" y="705"/>
      <point x="196" y="722"/>
      <point x="196" y="777" type="curve" smooth="yes"/>
      <point x="196" y="833"/>
      <point x="216" y="850"/>
      <point x="238" y="850" type="curve" smooth="yes"/>
      <point x="256" y="850"/>
      <point x="277" y="833"/>
      <point x="277" y="777" type="curve" smooth="yes"/>
      <point x="277" y="721"/>
      <point x="257" y="706"/>
    </contour>
  </outline>
</glyph>
<glyph name="Thorn" format="2">
  <advance width="401"/>
  <unicode hex="00DE"/>
  <anchor x="200" y="0" name="bottom"/>
  <anchor x="200" y="714" name="top"/>
  <outline>
    <contour>
      <point x="23" y="0" type="line"/>
      <point x="216" y="0" type="line"/>
      <point x="216" y="33" type="line"/>
      <point x="204" y="33" type="line" smooth="yes"/>
      <point x="169" y="33"/>
      <point x="160" y="46"/>
      <point x="160" y="110" type="curve" smooth="yes"/>
      <point x="160" y="155" type="line"/>
      <point x="185" y="155" type="line" smooth="yes"/>
      <point x="312" y="155"/>
      <point x="377" y="210"/>
      <point x="377" y="364" type="curve" smooth="yes"/>
      <point x="377" y="508"/>
      <point x="322" y="570"/>
      <point x="199" y="570" type="curve" smooth="yes"/>
      <point x="160" y="570" type="line"/>
      <point x="160" y="605" type="line" smooth="yes"/>
      <point x="160" y="669"/>
      <point x="168" y="681"/>
      <point x="203" y="681" type="curve" smooth="yes"/>
      <point x="224" y="681" type="line"/>
      <point x="224" y="714" type="line"/>
      <point x="23" y="714" type="line"/>
      <point x="23" y="681" type="line"/>
      <point x="40" y="681" type="line" smooth="yes"/>
      <point x="75" y="681"/>
      <point x="85" y="669"/>
      <point x="85" y="605" type="curve" smooth="yes"/>
      <point x="85" y="109" type="line" smooth="yes"/>
      <point x="85" y="45"/>
      <point x="75" y="33"/>
      <point x="40" y="33" type="curve" smooth="yes"/>
      <point x="23" y="33" type="line"/>
    </contour>
    <contour>
      <point x="160" y="193" type="line"/>
      <point x="160" y="531" type="line"/>
      <point x="192" y="531" type="line" smooth="yes"/>
      <point x="272" y="531"/>
      <point x="299" y="488"/>
      <point x="299" y="359" type="curve" smooth="yes"/>
      <point x="299" y="219"/>
      <point x="259" y="193"/>
      <point x="188" y="193" type="curve" smooth="yes"/>
    </contour>
  </outline>
</glyph>
<glyph name="oslash" format="2">
  <advance width="382"/>
  <unicode hex="00F8"/>
  <anchor x="191" y="0" name="bottom"/>
  <anchor x="191" y="536" name="top"/>
  <outline>
    <contour>
      <point x="48" y="-40" type="line"/>
      <point x="85" y="-40" type="line"/>
      <point x="109" y="23" type="line"/>
      <point x="132" y="1"/>
      <point x="158" y="-10"/>
      <point x="191" y="-10" type="curve" smooth="yes"/>
      <point x="295" y="-10"/>
      <point x="349" y="74"/>
      <point x="349" y="268" type="curve" smooth="yes"/>
      <point x="349" y="364"/>
      <point x="333" y="435"/>
      <point x="304" y="481" type="curve"/>
      <point x="341" y="576" type="line"/>
      <point x="304" y="576" type="line"/>
      <point x="278" y="508" type="line"/>
      <point x="256" y="533"/>
      <point x="227" y="545"/>
      <point x="192" y="545" type="curve" smooth="yes"/>
      <point x="83" y="545"/>
      <point x="34" y="452"/>
      <point x="34" y="268" type="curve" smooth="yes"/>
      <point x="34" y="166"/>
      <point x="50" y="94"/>
      <point x="83" y="48" type="curve"/>
    </contour>
    <contour>
      <point x="193" y="29" type="curve" smooth="yes"/>
      <point x="164" y="29"/>
      <point x="146" y="42"/>
      <point x="132" y="69" type="curve"/>
      <point x="265" y="413" type="line"/>
      <point x="273" y="376"/>
      <point x="275" y="328"/>
      <point x="275" y="267" type="curve" smooth="yes"/>
      <point x="275" y="106"/>
      <point x="253" y="29"/>
    </contour>
    <contour>
      <point x="119" y="114" type="line"/>
      <point x="110" y="151"/>
      <point x="107" y="202"/>
      <point x="107" y="268" type="curve" smooth="yes"/>
      <point x="107" y="425"/>
      <point x="127" y="505"/>
      <point x="189" y="505" type="curve" smooth="yes"/>
      <point x="220" y="505"/>
      <point x="240" y="490"/>
      <point x="253" y="460" type="curve"/>
    </contour>
  </outline>
</glyph>
<glyph name="dcroat" format="2">
  <advance width="406"/>
  <unicode hex="0111"/>
  <anchor x="204" y="0" name="bottom"/>
  <anchor x="204" y="760" name="top"/>
  <outline>
    <contour>
      <point x="165" y="-10" type="curve" smooth="yes"/>
      <point x="213" y="-10"/>
      <point x="245" y="23"/>
      <point x="265" y="78" type="curve"/>
      <point x="268" y="78" type="line"/>
      <point x="280" y="0" type="line"/>
      <point x="394" y="0" type="line"/>
      <point x="394" y="33" type="line"/>
      <point x="390" y="33" type="line" smooth="yes"/>
      <point x="348" y="33"/>
      <point x="335" y="45"/>
      <point x="335" y="100" type="curve" smooth="yes"/>
      <point x="335" y="603" type="line"/>
      <point x="395" y="603" type="line"/>
      <point x="395" y="637" type="line"/>
      <point x="335" y="637" type="line"/>
      <point x="335" y="760" type="line"/>
      <point x="206" y="760" type="line"/>
      <point x="206" y="727" type="line"/>
      <point x="204" y="727" type="line" smooth="yes"/>
      <point x="249" y="727"/>
      <point x="262" y="720"/>
      <point x="262" y="649" type="curve" smooth="yes"/>
      <point x="262" y="637" type="line"/>
      <point x="157" y="637" type="line"/>
      <point x="157" y="603" type="line"/>
      <point x="262" y="603" type="line"/>
      <point x="262" y="548" type="line" smooth="yes"/>
      <point x="262" y="510"/>
      <point x="263" y="472"/>
      <point x="267" y="448" type="curve"/>
      <point x="263" y="448" type="line"/>
      <point x="243" y="500"/>
      <point x="218" y="537"/>
      <point x="169" y="537" type="curve" smooth="yes"/>
      <point x="94" y="537"/>
      <point x="34" y="474"/>
      <point x="34" y="264" type="curve" smooth="yes"/>
      <point x="34" y="58"/>
      <point x="84" y="-10"/>
    </contour>
    <contour>
      <point x="184" y="34" type="curve" smooth="yes"/>
      <point x="129" y="34"/>
      <point x="107" y="100"/>
      <point x="107" y="263" type="curve" smooth="yes"/>
      <point x="107" y="435"/>
      <point x="143" y="495"/>
      <point x="188" y="494" type="curve" smooth="yes"/>
      <point x="243" y="495"/>
      <point x="263" y="407"/>
      <point x="263" y="263" type="curve" smooth="yes"/>
      <point x="263" y="107"/>
      <point x="236" y="33"/>
    </contour>
  </outline>
</glyph>
<glyph name="Hbar" format="2">
  <advance width="520"/>
  <unicode hex="0126"/>
  <anchor x="261" y="0" name="bottom"/>
  <anchor x="261" y="714" name="top"/>
  <outline>
    <contour>
      <point x="23" y="0" type="line"/>
      <point x="220" y="0" type="line"/>
      <point x="220" y="33" type="line"/>
      <point x="202" y="33" type="line" smooth="yes"/>
      <point x="165" y="33"/>
      <point x="158" y="47"/>
      <point x="158" y="109" type="curve" smooth="yes"/>
      <point x="158" y="354" type="line"/>
      <point x="362" y="354" type="line"/>
      <point x="362" y="111" type="line" smooth="yes"/>
      <point x="362" y="47"/>
      <point x="355" y="33"/>
      <point x="317" y="33" type="curve" smooth="yes"/>
      <point x="301" y="33" type="line"/>
      <point x="301" y="0" type="line"/>
      <point x="499" y="0" type="line"/>
      <point x="499" y="33" type="line"/>
      <point x="482" y="33" type="line" smooth="yes"/>
      <point x="445" y="33"/>
      <point x="437" y="47"/>
      <point x="437" y="109" type="curve" smooth="yes"/>
      <point x="437" y="506" type="line"/>
      <point x="501" y="506" type="line"/>
      <point x="501" y="541" type="line"/>
      <point x="437" y="541" type="line"/>
      <point x="437" y="605" type="line" smooth="yes"/>
      <point x="437" y="669"/>
      <point x="445" y="681"/>
      <point x="482" y="681" type="curve" smooth="yes"/>
      <point x="499" y="681" type="line"/>
      <point x="499" y="714" type="line"/>
      <point x="301" y="714" type="line"/>
      <point x="301" y="681" type="line"/>
      <point x="317" y="681" type="line" smooth="yes"/>
      <point x="356" y="681"/>
      <point x="362" y="669"/>
      <point x="362" y="605" type="curve" smooth="yes"/>
      <point x="362" y="541" type="line"/>
      <point x="158" y="541" type="line"/>
      <point x="158" y="606" type="line" smooth="yes"/>
      <point x="158" y="669"/>
      <point x="165" y="681"/>
      <point x="202" y="681" type="curve" smooth="yes"/>
      <point x="220" y="681" type="line"/>
      <point x="220" y="714" type="line"/>
      <point x="23" y="714" type="line"/>
      <point x="23" y="681" type="line"/>
      <point x="37" y="681" type="line" smooth="yes"/>
      <point x="73" y="681"/>
      <point x="83" y="669"/>
      <point x="83" y="605" type="curve" smooth="yes"/>
      <point x="83" y="541" type="line"/>
      <point x="20" y="541" type="line"/>
      <point x="20" y="506" type="line"/>
      <point x="83" y="506" type="line"/>
      <point x="83" y="109" type="line" smooth="yes"/>
      <point x="83" y="47"/>
      <point x="75" y="33"/>
      <point x="37" y="33" type="curve" smooth="yes"/>
      <point x="23" y="33" type="line"/>
    </contour>
    <contour>
      <point x="158" y="393" type="line"/>
      <point x="158" y="506" type="line"/>
      <point x="362" y="506" type="line"/>
      <point x="362" y="393" type="line"/>
    </contour>
  </outline>
</glyph>
<glyph name="longs" format="2">
  <advance width="254"/>
  <unicode hex="017F"/>
  <anchor x="127" y="0" name="bottom"/>
  <anchor x="164" y="771" name="top"/>
  <outline>
    <contour>
      <point x="8" y="0" type="line"/>
      <point x="220" y="0" type="line"/>
      <point x="220" y="33" type="line"/>
      <point x="186" y="33" type="line" smooth="yes"/>
      <point x="153" y="33"/>
      <point x="142" y="46"/>
      <point x="142" y="115" type="curve" smooth="yes"/>
      <point x="142" y="595" type="line" smooth="yes"/>
      <point x="142" y="678"/>
      <point x="152" y="733"/>
      <point x="199" y="733" type="curve" smooth="yes"/>
      <point x="230" y="733"/>
      <point x="237" y="703"/>
      <point x="237" y="647" type="curve"/>
      <point x="271" y="647"/>
      <point x="287" y="667"/>
      <point x="287" y="694" type="curve" smooth="yes"/>
      <point x="287" y="746"/>
      <point x="261" y="771"/>
      <point x="196" y="771" type="curve" smooth="yes"/>
      <point x="111" y="771"/>
      <point x="69" y="712"/>
      <point x="69" y="590" type="curve" smooth="yes"/>
      <point x="69" y="115" type="line" smooth="yes"/>
      <point x="69" y="46"/>
      <point x="58" y="33"/>
      <point x="24" y="33" type="curve" smooth="yes"/>
      <point x="8" y="33" type="line"/>
    </contour>
  </outline>
</glyph>
<glyph name="uni0183" format="2">
  <advance width="406"/>
  <unicode hex="0183"/>
  <anchor x="203" y="0" name="bottom"/>
  <anchor x="203" y="760" name="top"/>
  <outline>
    <contour>
      <point x="247" y="-10" type="curve" smooth="yes"/>
      <point x="322" y="-10"/>
      <point x="371" y="53"/>
      <point x="371" y="268" type="curve" smooth="yes"/>
      <point x="371" y="459"/>
      <point x="327" y="537"/>
      <point x="246" y="537" type="curve" smooth="yes"/>
      <point x="188" y="537"/>
      <point x="157" y="496"/>
      <point x="139" y="445" type="curve"/>
      <point x="139" y="445" type="line" smooth="yes"/>
      <point x="139" y="462"/>
      <point x="141" y="529"/>
      <point x="141" y="564" type="curve" smooth="yes"/>
      <point x="141" y="721" type="line"/>
      <point x="266" y="721" type="line" smooth="yes"/>
      <point x="296" y="721"/>
      <point x="303" y="717"/>
      <point x="305" y="642" type="curve" smooth="yes"/>
      <point x="307" y="608" type="line"/>
      <point x="338" y="608" type="line"/>
      <point x="340" y="760" type="line"/>
      <point x="10" y="760" type="line"/>
      <point x="10" y="727" type="line"/>
      <point x="7" y="727" type="line" smooth="yes"/>
      <point x="53" y="727"/>
      <point x="68" y="720"/>
      <point x="68" y="652" type="curve" smooth="yes"/>
      <point x="68" y="98" type="line" smooth="yes"/>
      <point x="68" y="43"/>
      <point x="51" y="33"/>
      <point x="14" y="33" type="curve" smooth="yes"/>
      <point x="10" y="33" type="line"/>
      <point x="10" y="0" type="line"/>
      <point x="122" y="0" type="line"/>
      <point x="134" y="83" type="line"/>
      <point x="139" y="83" type="line"/>
      <point x="159" y="30"/>
      <point x="185" y="-10"/>
    </contour>
    <contour>
      <point x="228" y="33" type="curve" smooth="yes"/>
      <point x="175" y="33"/>
      <point x="140" y="101"/>
      <point x="140" y="269" type="curve" smooth="yes"/>
      <point x="140" y="431"/>
      <point x="171" y="495"/>
      <point x="228" y="495" type="curve" smooth="yes"/>
      <point x="277" y="495"/>
      <point x="298" y="420"/>
      <point x="298" y="270" type="curve" smooth="yes"/>
      <point x="298" y="105"/>
      <point x="272" y="33"/>
    </contour>
  </outline>
</glyph>
<glyph name="uni0184" format="2">
  <advance width="398"/>
  <unicode hex="0184"/>
  <anchor x="199" y="0" name="bottom"/>
  <anchor x="199" y="714" name="top"/>
  <outline>
    <contour>
      <point x="214" y="-10" type="curve" smooth="yes"/>
      <point x="314" y="-10"/>
      <point x="364" y="65"/>
      <point x="364" y="181" type="curve" smooth="yes"/>
      <point x="364" y="317"/>
      <point x="300" y="392"/>
      <point x="171" y="392" type="curve" smooth="yes"/>
      <point x="145" y="392" type="line"/>
      <point x="145" y="603" type="line" smooth="yes"/>
      <point x="145" y="670"/>
      <point x="154" y="681"/>
      <point x="193" y="681" type="curve" smooth="yes"/>
      <point x="227" y="681" type="line"/>
      <point x="227" y="714" type="line"/>
      <point x="10" y="714" type="line"/>
      <point x="10" y="681" type="line"/>
      <point x="22" y="681" type="line" smooth="yes"/>
      <point x="62" y="681"/>
      <point x="71" y="671"/>
      <point x="71" y="604" type="curve" smooth="yes"/>
      <point x="71" y="194" type="line" smooth="yes"/>
      <point x="71" y="56"/>
      <point x="118" y="-10"/>
    </contour>
    <contour>
      <point x="216" y="29" type="curve"/>
      <point x="173" y="29"/>
      <point x="145" y="77"/>
      <point x="145" y="189" type="curve" smooth="yes"/>
      <point x="145" y="353" type="line"/>
      <point x="159" y="353" type="line" smooth="yes"/>
      <point x="252" y="353"/>
      <point x="286" y="293"/>
      <point x="286" y="179" type="curve" smooth="yes"/>
      <point x="286" y="76"/>
      <point x="257" y="29"/>
    </contour>
  </outline>
</glyph>
<glyph name="florin" format="2">
  <advance width="361"/>
  <unicode hex="0192"/>
  <anchor x="-41" y="-240" name="bottom"/>
  <anchor x="330" y="724" name="top"/>
  <outline>
    <contour>
      <point x="137" y="-240" type="curve" smooth="yes"/>
      <point x="235" y="-240"/>
      <point x="293" y="-189"/>
      <point x="293" y="-11" type="curve" smooth="yes"/>
      <point x="293" y="404" type="line"/>
      <point x="424" y="404" type="line"/>
      <point x="424" y="442" type="line"/>
      <point x="293" y="442" type="line"/>
      <point x="293" y="563" type="line" smooth="yes"/>
      <point x="293" y="648"/>
      <point x="319" y="688"/>
      <point x="372" y="688" type="curve" smooth="yes"/>
      <point x="426" y="688"/>
      <point x="441" y="641"/>
      <point x="449" y="597" type="curve"/>
      <point x="480" y="598"/>
      <point x="494" y="614"/>
      <point x="494" y="639" type="curve" smooth="yes"/>
      <point x="494" y="683"/>
      <point x="450" y="724"/>
      <point x="372" y="724" type="curve" smooth="yes"/>
      <point x="275" y="724"/>
      <point x="227" y="660"/>
      <point x="227" y="555" type="curve" smooth="yes"/>
      <point x="227" y="442" type="line"/>
      <point x="125" y="442" type="line"/>
      <point x="125" y="404" type="line"/>
      <point x="227" y="404" type="line"/>
      <point x="227" y="-10" type="line" smooth="yes"/>
      <point x="227" y="-146"/>
      <point x="201" y="-204"/>
      <point x="130" y="-204" type="curve" smooth="yes"/>
      <point x="116" y="-204"/>
      <point x="101" y="-201"/>
      <point x="90" y="-197" type="curve"/>
      <point x="90" y="-234" type="line"/>
      <point x="103" y="-237"/>
      <point x="122" y="-240"/>
    </contour>
  </outline>
</glyph>
<glyph name="uni0198" format="2">
  <advance width="462"/>
  <unicode hex="0198"/>
  <anchor x="231" y="0" name="bottom"/>
  <anchor x="231" y="714" name="top"/>
  <outline>
    <contour>
      <point x="23" y="0" type="line"/>
      <point x="219" y="0" type="line"/>
      <point x="219" y="33" type="line"/>
      <point x="205" y="33" type="line" smooth="yes"/>
      <point x="167" y="33"/>
      <point x="158" y="45"/>
      <point x="158" y="113" type="curve" smooth="yes"/>
      <point x="158" y="274" type="line"/>
      <point x="206" y="370" type="line"/>
      <point x="322" y="95" type="line" smooth="yes"/>
      <point x="351" y="14"/>
      <point x="372" y="0"/>
      <point x="440" y="0" type="curve" smooth="yes"/>
      <point x="471" y="0" type="line"/>
      <point x="471" y="31" type="line"/>
      <point x="465" y="31" type="line" smooth="yes"/>
      <point x="433" y="31"/>
      <point x="424" y="51"/>
      <point x="393" y="119" type="curve" smooth="yes"/>
      <point x="253" y="430" type="line"/>
      <point x="340" y="593" type="line"/>
      <point x="370" y="644"/>
      <point x="393" y="669"/>
      <point x="417" y="669" type="curve" smooth="yes"/>
      <point x="440" y="669"/>
      <point x="445" y="650"/>
      <point x="445" y="610" type="curve"/>
      <point x="457" y="613"/>
      <point x="476" y="627"/>
      <point x="476" y="661" type="curve" smooth="yes"/>
      <point x="476" y="696"/>
      <point x="458" y="720"/>
      <point x="424" y="720" type="curve" smooth="yes"/>
      <point x="373" y="720"/>
      <point x="346" y="668"/>
      <point x="299" y="590" type="curve" smooth="yes"/>
      <point x="158" y="330" type="line"/>
      <point x="158" y="607" type="line" smooth="yes"/>
      <point x="158" y="669"/>
      <point x="166" y="681"/>
      <point x="201" y="681" type="curve" smooth="yes"/>
      <point x="220" y="681" type="line"/>
      <point x="220" y="714" type="line"/>
      <point x="23" y="714" type="line"/>
      <point x="23" y="681" type="line"/>
      <point x="37" y="681" type="line" smooth="yes"/>
      <point x="73" y="681"/>
      <point x="83" y="669"/>
      <point x="83" y="607" type="curve" smooth="yes"/>
      <point x="83" y="108" type="line" smooth="yes"/>
      <point x="83" y="45"/>
      <point x="73" y="33"/>
      <point x="36" y="33" type="curve" smooth="yes"/>
      <point x="23" y="33" type="line"/>
    </contour>
  </outline>
</glyph>
<glyph name="uni0199" format="2">
  <advance width="391"/>
  <unicode hex="0199"/>
  <anchor x="196" y="0" name="bottom"/>
  <anchor x="196" y="764" name="top"/>
  <outline>
    <contour>
      <point x="10" y="0" type="line"/>
      <point x="195" y="0" type="line"/>
      <point x="195" y="33" type="line"/>
      <point x="191" y="33" type="line"/>
      <point x="158" y="33"/>
      <point x="142" y="41"/>
      <point x="142" y="105" type="curve" smooth="yes"/>
      <point x="142" y="194" type="line"/>
      <point x="181" y="273" type="line"/>
      <point x="252" y="100" type="line" smooth="yes"/>
      <point x="284" y="13"/>
      <point x="312" y="0"/>
      <point x="388" y="0" type="curve" smooth="yes"/>
      <point x="393" y="0" type="line"/>
      <point x="393" y="33" type="line"/>
      <point x="386" y="33" type="line" smooth="yes"/>
      <point x="354" y="33"/>
      <point x="342" y="60"/>
      <point x="319" y="123" type="curve" smooth="yes"/>
      <point x="229" y="330" type="line"/>
      <point x="241" y="368" type="line" smooth="yes"/>
      <point x="315" y="482"/>
      <point x="333" y="504"/>
      <point x="365" y="504" type="curve"/>
      <point x="365" y="536" type="line"/>
      <point x="217" y="536" type="line"/>
      <point x="217" y="504" type="line"/>
      <point x="248" y="504"/>
      <point x="258" y="497"/>
      <point x="258" y="480" type="curve" smooth="yes"/>
      <point x="258" y="472"/>
      <point x="261" y="457"/>
      <point x="217" y="388" type="curve" smooth="yes"/>
      <point x="137" y="244" type="line"/>
      <point x="142" y="270"/>
      <point x="142" y="344"/>
      <point x="142" y="374" type="curve" smooth="yes"/>
      <point x="142" y="565" type="line" smooth="yes"/>
      <point x="142" y="672"/>
      <point x="147" y="727"/>
      <point x="188" y="727" type="curve" smooth="yes"/>
      <point x="220" y="727"/>
      <point x="222" y="680"/>
      <point x="212" y="645" type="curve"/>
      <point x="254" y="645"/>
      <point x="267" y="669"/>
      <point x="267" y="696" type="curve" smooth="yes"/>
      <point x="267" y="729"/>
      <point x="249" y="764"/>
      <point x="184" y="764" type="curve" smooth="yes"/>
      <point x="99" y="764"/>
      <point x="68" y="700"/>
      <point x="68" y="554" type="curve" smooth="yes"/>
      <point x="68" y="105" type="line" smooth="yes"/>
      <point x="68" y="40"/>
      <point x="50" y="33"/>
      <point x="15" y="33" type="curve" smooth="yes"/>
      <point x="10" y="33" type="line"/>
    </contour>
  </outline>
</glyph>
<glyph name="uni01A7" format="2">
  <advance width="360"/>
  <unicode hex="01A7"/>
  <anchor x="181" y="0" name="bottom"/>
  <anchor x="181" y="714" name="top"/>
  <outline>
    <contour>
      <point x="190" y="-10" type="curve" smooth="yes"/>
      <point x="294" y="-10"/>
      <point x="335" y="52"/>
      <point x="335" y="92" type="curve" smooth="yes"/>
      <point x="335" y="116"/>
      <point x="327" y="127"/>
      <point x="317" y="136" type="curve"/>
      <point x="290" y="65"/>
      <point x="248" y="31"/>
      <point x="194" y="31" type="curve" smooth="yes"/>
      <point x="131" y="31"/>
      <point x="97" y="70"/>
      <point x="97" y="159" type="curve" smooth="yes"/>
      <point x="97" y="251"/>
      <point x="130" y="280"/>
      <point x="208" y="334" type="curve" smooth="yes"/>
      <point x="274" y="379"/>
      <point x="320" y="435"/>
      <point x="320" y="552" type="curve" smooth="yes"/>
      <point x="320" y="650"/>
      <point x="269" y="724"/>
      <point x="173" y="724" type="curve" smooth="yes"/>
      <point x="87" y="724"/>
      <point x="48" y="664"/>
      <point x="48" y="607" type="curve" smooth="yes"/>
      <point x="48" y="574"/>
      <point x="63" y="553"/>
      <point x="103" y="553" type="curve"/>
      <point x="103" y="622"/>
      <point x="122" y="685"/>
      <point x="181" y="685" type="curve" smooth="yes"/>
      <point x="232" y="685"/>
      <point x="258" y="631"/>
      <point x="258" y="560" type="curve" smooth="yes"/>
      <point x="258" y="480"/>
      <point x="237" y="444"/>
      <point x="155" y="391" type="curve" smooth="yes"/>
      <point x="76" y="340"/>
      <point x="34" y="291"/>
      <point x="34" y="177" type="curve" smooth="yes"/>
      <point x="34" y="57"/>
      <point x="85" y="-10"/>
    </contour>
  </outline>
</glyph>
<glyph name="uni01AE" format="2">
  <advance width="408"/>
  <unicode hex="01AE"/>
  <anchor x="204" y="-240" name="bottom"/>
  <anchor x="204" y="714" name="top"/>
  <outline>
    <contour>
      <point x="263" y="-240" type="curve" smooth="yes"/>
      <point x="291" y="-240"/>
      <point x="312" y="-232"/>
      <point x="323" y="-224" type="curve"/>
      <point x="323" y="-187" type="line"/>
      <point x="315" y="-191"/>
      <point x="299" y="-200"/>
      <point x="282" y="-200" type="curve" smooth="yes"/>
      <point x="255" y="-200"/>
      <point x="241" y="-179"/>
      <point x="241" y="-123" type="curve" smooth="yes"/>
      <point x="241" y="675" type="line"/>
      <point x="302" y="675" type="line" smooth="yes"/>
      <point x="350" y="675"/>
      <point x="357" y="653"/>
      <point x="359" y="604" type="curve" smooth="yes"/>
      <point x="362" y="546" type="line"/>
      <point x="397" y="546" type="line"/>
      <point x="393" y="714" type="line"/>
      <point x="14" y="714" type="line"/>
      <point x="11" y="546" type="line"/>
      <point x="45" y="546" type="line"/>
      <point x="49" y="599" type="line" smooth="yes"/>
      <point x="51" y="653"/>
      <point x="56" y="675"/>
      <point x="106" y="675" type="curve" smooth="yes"/>
      <point x="166" y="675" type="line"/>
      <point x="166" y="-106" type="line" smooth="yes"/>
      <point x="166" y="-196"/>
      <point x="198" y="-240"/>
    </contour>
  </outline>
</glyph>
<glyph name="uni01B5" format="2">
  <advance width="400"/>
  <unicode hex="01B5"/>
  <anchor x="201" y="0" name="bottom"/>
  <anchor x="201" y="714" name="top"/>
  <outline>
    <contour>
      <point x="24" y="0" type="line"/>
      <point x="371" y="0" type="line"/>
      <point x="372" y="167" type="line"/>
      <point x="335" y="167" type="line"/>
      <point x="334" y="127" type="line" smooth="yes"/>
      <point x="331" y="70"/>
      <point x="328" y="39"/>
      <point x="262" y="39" type="curve" smooth="yes"/>
      <point x="108" y="39" type="line"/>
      <point x="230" y="355" type="line"/>
      <point x="347" y="355" type="line"/>
      <point x="347" y="394" type="line"/>
      <point x="249" y="394" type="line"/>
      <point x="362" y="684" type="line"/>
      <point x="362" y="714" type="line"/>
      <point x="41" y="714" type="line"/>
      <point x="37" y="549" type="line"/>
      <point x="74" y="549" type="line"/>
      <point x="75" y="588" type="line" smooth="yes"/>
      <point x="77" y="651"/>
      <point x="84" y="675"/>
      <point x="135" y="675" type="curve" smooth="yes"/>
      <point x="276" y="675" type="line"/>
      <point x="167" y="394" type="line"/>
      <point x="53" y="394" type="line"/>
      <point x="53" y="355" type="line"/>
      <point x="149" y="355" type="line"/>
      <point x="24" y="33" type="line"/>
    </contour>
  </outline>
</glyph>
<glyph name="uni01BF" format="2">
  <advance width="405"/>
  <unicode hex="01BF"/>
  <anchor x="203" y="-240" name="bottom"/>
  <anchor x="203" y="536" name="top"/>
  <outline>
    <contour>
      <point x="11" y="-240" type="line"/>
      <point x="199" y="-240" type="line"/>
      <point x="199" y="-207" type="line"/>
      <point x="195" y="-207" type="line" smooth="yes"/>
      <point x="150" y="-207"/>
      <point x="140" y="-197"/>
      <point x="140" y="-134" type="curve"/>
      <point x="140" y="-17" type="line"/>
      <point x="311" y="3"/>
      <point x="372" y="179"/>
      <point x="372" y="326" type="curve" smooth="yes"/>
      <point x="372" y="453"/>
      <point x="325" y="546"/>
      <point x="243" y="546" type="curve" smooth="yes"/>
      <point x="184" y="546"/>
      <point x="156" y="503"/>
      <point x="136" y="448" type="curve"/>
      <point x="133" y="448" type="line"/>
      <point x="124" y="536" type="line"/>
      <point x="11" y="536" type="line"/>
      <point x="11" y="503" type="line"/>
      <point x="6" y="503" type="line" smooth="yes"/>
      <point x="59" y="503"/>
      <point x="66" y="495"/>
      <point x="66" y="429" type="curve"/>
      <point x="66" y="-135" type="line" smooth="yes"/>
      <point x="66" y="-197"/>
      <point x="55" y="-207"/>
      <point x="10" y="-207" type="curve" smooth="yes"/>
      <point x="11" y="-207" type="line"/>
    </contour>
    <contour>
      <point x="140" y="22" type="curve"/>
      <point x="140" y="281" type="line" smooth="yes"/>
      <point x="140" y="426"/>
      <point x="171" y="502"/>
      <point x="222" y="502" type="curve" smooth="yes"/>
      <point x="265" y="502"/>
      <point x="295" y="436"/>
      <point x="295" y="326" type="curve" smooth="yes"/>
      <point x="295" y="193"/>
      <point x="286" y="43"/>
    </contour>
  </outline>
</glyph>
<glyph name="eturned" format="2">
  <advance width="356"/>
  <unicode hex="01DD"/>
  <anchor x="178" y="0" name="bottom"/>
  <anchor x="178" y="536" name="top"/>
  <outline>
    <contour>
      <point x="173" y="-10" type="curve" smooth="yes"/>
      <point x="268" y="-10"/>
      <point x="323" y="84"/>
      <point x="323" y="271" type="curve" smooth="yes"/>
      <point x="323" y="445"/>
      <point x="267" y="545"/>
      <point x="166" y="545" type="curve" smooth="yes"/>
      <point x="89" y="545"/>
      <point x="50" y="494"/>
      <point x="50" y="452" type="curve" smooth="yes"/>
      <point x="50" y="435"/>
      <point x="55" y="425"/>
      <point x="65" y="419" type="curve"/>
      <point x="79" y="461"/>
      <point x="107" y="501"/>
      <point x="155" y="501" type="curve" smooth="yes"/>
      <point x="214" y="501"/>
      <point x="248" y="429"/>
      <point x="250" y="272" type="curve"/>
      <point x="33" y="272" type="line"/>
      <point x="33" y="237" type="line" smooth="yes"/>
      <point x="33" y="83"/>
      <point x="80" y="-10"/>
    </contour>
    <contour>
      <point x="172" y="30" type="curve" smooth="yes"/>
      <point x="120" y="30"/>
      <point x="107" y="110"/>
      <point x="105" y="232" type="curve"/>
      <point x="250" y="232" type="line"/>
      <point x="248" y="106"/>
      <point x="217" y="30"/>
    </contour>
  </outline>
</glyph>
<glyph name="aringacute" format="2">
  <advance width="374"/>
  <unicode hex="01FB"/>
  <anchor x="188" y="0" name="bottom"/>
  <anchor x="188" y="960" name="top"/>
  <outline>
    <contour>
      <point x="132" y="-10" type="curve" smooth="yes"/>
      <point x="184" y="-10"/>
      <point x="204" y="15"/>
      <point x="231" y="77" type="curve"/>
      <point x="236" y="77" type="line"/>
      <point x="245" y="0" type="line"/>
      <point x="347" y="0" type="line"/>
      <point x="347" y="33" type="line"/>
      <point x="348" y="33" type="line" smooth="yes"/>
      <point x="317" y="33"/>
      <point x="304" y="42"/>
      <point x="304" y="108" type="curve" smooth="yes"/>
      <point x="304" y="363" type="line" smooth="yes"/>
      <point x="304" y="504"/>
      <point x="259" y="545"/>
      <point x="183" y="545" type="curve" smooth="yes"/>
      <point x="120" y="545"/>
      <point x="58" y="511"/>
      <point x="58" y="440" type="curve" smooth="yes"/>
      <point x="58" y="407"/>
      <point x="81" y="389"/>
      <point x="121" y="389" type="curve"/>
      <point x="121" y="471"/>
      <point x="149" y="506"/>
      <point x="181" y="506" type="curve" smooth="yes"/>
      <point x="210" y="506"/>
      <point x="231" y="471"/>
      <point x="231" y="372" type="curve" smooth="yes"/>
      <point x="231" y="311" type="line"/>
      <point x="178" y="308" type="line" smooth="yes"/>
      <point x="80" y="303"/>
      <point x="31" y="254"/>
      <point x="31" y="149" type="curve" smooth="yes"/>
      <point x="31" y="42"/>
      <point x="72" y="-10"/>
    </contour>
    <contour>
      <point x="155" y="34" type="curve" smooth="yes"/>
      <point x="122" y="34"/>
      <point x="106" y="75"/>
      <point x="106" y="148" type="curve" smooth="yes"/>
      <point x="106" y="227"/>
      <point x="134" y="269"/>
      <point x="195" y="274" type="curve" smooth="yes"/>
      <point x="232" y="277" type="line"/>
      <point x="232" y="199" type="line"/>
      <point x="232" y="96"/>
      <point x="203" y="34"/>
    </contour>
    <contour>
      <point x="187" y="583" type="curve" smooth="yes"/>
      <point x="232" y="583"/>
      <point x="267" y="622"/>
      <point x="267" y="694" type="curve"/>
      <point x="267" y="766"/>
      <point x="232" y="805"/>
      <point x="187" y="805" type="curve" smooth="yes"/>
      <point x="143" y="805"/>
      <point x="108" y="766"/>
      <point x="108" y="694" type="curve" smooth="yes"/>
      <point x="108" y="622"/>
      <point x="143" y="583"/>
    </contour>
    <contour>
      <point x="188" y="622" type="curve" smooth="yes"/>
      <point x="166" y="622"/>
      <point x="145" y="639"/>
      <point x="145" y="694" type="curve" smooth="yes"/>
      <point x="145" y="751"/>
      <point x="166" y="768"/>
      <point x="188" y="768" type="curve" smooth="yes"/>
      <point x="208" y="768"/>
      <point x="228" y="751"/>
      <point x="228" y="694" type="curve"/>
      <point x="228" y="639"/>
      <point x="208" y="622"/>
    </contour>
    <contour>
      <point x="155" y="834" type="line"/>
      <point x="185" y="834" type="line"/>
      <point x="223" y="869"/>
      <point x="280" y="926"/>
      <point x="293" y="951" type="curve"/>
      <point x="293" y="960" type="line"/>
      <point x="209" y="960" type="line"/>
      <point x="199" y="929"/>
      <point x="177" y="888"/>
      <point x="155" y="845" type="curve"/>
    </contour>
  </outline>
</glyph>
<glyph name="uni0220" format="2">
  <advance width="519"/>
  <unicode hex="0220"/>
  <anchor x="259" y="-240" name="bottom"/>
  <anchor x="259" y="714" name="top"/>
  <outline>
    <contour>
      <point x="304" y="-240" type="line"/>
      <point x="504" y="-240" type="line"/>
      <point x="504" y="-207" type="line"/>
      <point x="500" y="-207" type="line" smooth="yes"/>
      <point x="458" y="-207"/>
      <point x="447" y="-195"/>
      <point x="447" y="-124" type="curve" smooth="yes"/>
      <point x="447" y="486" type="line" smooth="yes"/>
      <point x="447" y="649"/>
      <point x="399" y="724"/>
      <point x="296" y="724" type="curve" smooth="yes"/>
      <point x="212" y="724"/>
      <point x="175" y="665"/>
      <point x="159" y="609" type="curve"/>
      <point x="156" y="609" type="line"/>
      <point x="151" y="714" type="line"/>
      <point x="24" y="714" type="line"/>
      <point x="24" y="681" type="line"/>
      <point x="34" y="681" type="line" smooth="yes"/>
      <point x="71" y="681"/>
      <point x="82" y="670"/>
      <point x="82" y="603" type="curve" smooth="yes"/>
      <point x="82" y="113" type="line" smooth="yes"/>
      <point x="82" y="44"/>
      <point x="72" y="33"/>
      <point x="32" y="33" type="curve" smooth="yes"/>
      <point x="23" y="33" type="line"/>
      <point x="23" y="0" type="line"/>
      <point x="222" y="0" type="line"/>
      <point x="222" y="33" type="line"/>
      <point x="207" y="33" type="line" smooth="yes"/>
      <point x="166" y="33"/>
      <point x="157" y="44"/>
      <point x="157" y="113" type="curve" smooth="yes"/>
      <point x="157" y="430" type="line" smooth="yes"/>
      <point x="157" y="621"/>
      <point x="220" y="678"/>
      <point x="273" y="678" type="curve" smooth="yes"/>
      <point x="342" y="678"/>
      <point x="373" y="608"/>
      <point x="373" y="476" type="curve" smooth="yes"/>
      <point x="373" y="-123" type="line" smooth="yes"/>
      <point x="373" y="-196"/>
      <point x="362" y="-207"/>
      <point x="320" y="-207" type="curve" smooth="yes"/>
      <point x="304" y="-207" type="line"/>
    </contour>
  </outline>
</glyph>
<glyph name="uni0221" format="2">
  <advance width="503"/>
  <unicode hex="0221"/>
  <anchor x="251" y="0" name="bottom"/>
  <anchor x="251" y="760" name="top"/>
  <outline>
    <contour>
      <point x="300" y="-74" type="line"/>
      <point x="303" y="-43"/>
      <point x="308" y="-17"/>
      <point x="315" y="9" type="curve"/>
      <point x="329" y="-7"/>
      <point x="355" y="-12"/>
      <point x="383" y="-12" type="curve" smooth="yes"/>
      <point x="453" y="-12"/>
      <point x="480" y="34"/>
      <point x="480" y="85" type="curve" smooth="yes"/>
      <point x="480" y="132"/>
      <point x="453" y="167"/>
      <point x="407" y="167" type="curve" smooth="yes"/>
      <point x="374" y="167"/>
      <point x="351" y="147"/>
      <point x="335" y="122" type="curve"/>
      <point x="335" y="760" type="line"/>
      <point x="206" y="760" type="line"/>
      <point x="206" y="727" type="line"/>
      <point x="202" y="727" type="line" smooth="yes"/>
      <point x="249" y="727"/>
      <point x="262" y="720"/>
      <point x="262" y="649" type="curve" smooth="yes"/>
      <point x="262" y="560" type="line" smooth="yes"/>
      <point x="262" y="522"/>
      <point x="263" y="482"/>
      <point x="267" y="458" type="curve"/>
      <point x="263" y="458" type="line"/>
      <point x="243" y="508"/>
      <point x="218" y="546"/>
      <point x="169" y="546" type="curve" smooth="yes"/>
      <point x="94" y="546"/>
      <point x="34" y="483"/>
      <point x="34" y="267" type="curve" smooth="yes"/>
      <point x="34" y="55"/>
      <point x="83" y="-10"/>
      <point x="164" y="-10" type="curve" smooth="yes"/>
      <point x="212" y="-10"/>
      <point x="243" y="22"/>
      <point x="265" y="79" type="curve"/>
      <point x="268" y="79" type="line"/>
      <point x="270" y="63"/>
      <point x="277" y="54"/>
      <point x="287" y="38" type="curve"/>
      <point x="275" y="7"/>
      <point x="267" y="-41"/>
      <point x="265" y="-71" type="curve"/>
    </contour>
    <contour>
      <point x="184" y="34" type="curve" smooth="yes"/>
      <point x="129" y="34"/>
      <point x="107" y="97"/>
      <point x="107" y="266" type="curve" smooth="yes"/>
      <point x="107" y="443"/>
      <point x="143" y="503"/>
      <point x="188" y="503" type="curve" smooth="yes"/>
      <point x="243" y="503"/>
      <point x="263" y="418"/>
      <point x="263" y="266" type="curve" smooth="yes"/>
      <point x="263" y="109"/>
      <point x="236" y="33"/>
    </contour>
    <contour>
      <point x="394" y="31" type="curve" smooth="yes"/>
      <point x="361" y="31"/>
      <point x="345" y="50"/>
      <point x="342" y="73" type="curve"/>
      <point x="359" y="109"/>
      <point x="376" y="128"/>
      <point x="406" y="128" type="curve" smooth="yes"/>
      <point x="427" y="128"/>
      <point x="440" y="114"/>
      <point x="440" y="82" type="curve" smooth="yes"/>
      <point x="440" y="50"/>
      <point x="423" y="31"/>
    </contour>
  </outline>
</glyph>
<glyph name="uni0223" format="2">
  <advance width="391"/>
  <unicode hex="0223"/>
  <anchor x="196" y="0" name="bottom"/>
  <anchor x="196" y="765" name="top"/>
  <outline>
    <contour>
      <point x="192" y="-10" type="curve" smooth="yes"/>
      <point x="306" y="-10"/>
      <point x="357" y="76"/>
      <point x="357" y="236" type="curve" smooth="yes"/>
      <point x="357" y="385"/>
      <point x="305" y="432"/>
      <point x="265" y="451" type="curve"/>
      <point x="303" y="476"/>
      <point x="337" y="520"/>
      <point x="337" y="603" type="curve" smooth="yes"/>
      <point x="337" y="687"/>
      <point x="311" y="748"/>
      <point x="244" y="765" type="curve"/>
      <point x="255" y="735"/>
      <point x="262" y="681"/>
      <point x="262" y="618" type="curve" smooth="yes"/>
      <point x="262" y="521"/>
      <point x="245" y="468"/>
      <point x="195" y="468" type="curve" smooth="yes"/>
      <point x="144" y="468"/>
      <point x="128" y="522"/>
      <point x="128" y="618" type="curve" smooth="yes"/>
      <point x="128" y="681"/>
      <point x="135" y="735"/>
      <point x="145" y="765" type="curve"/>
      <point x="77" y="746"/>
      <point x="53" y="684"/>
      <point x="53" y="600" type="curve" smooth="yes"/>
      <point x="53" y="529"/>
      <point x="85" y="476"/>
      <point x="127" y="451" type="curve"/>
      <point x="73" y="426"/>
      <point x="34" y="363"/>
      <point x="34" y="236" type="curve" smooth="yes"/>
      <point x="34" y="77"/>
      <point x="83" y="-10"/>
    </contour>
    <contour>
      <point x="194" y="28" type="curve" smooth="yes"/>
      <point x="134" y="28"/>
      <point x="109" y="98"/>
      <point x="109" y="238" type="curve" smooth="yes"/>
      <point x="109" y="341"/>
      <point x="121" y="431"/>
      <point x="194" y="431" type="curve" smooth="yes"/>
      <point x="255" y="431"/>
      <point x="282" y="364"/>
      <point x="282" y="238" type="curve" smooth="yes"/>
      <point x="282" y="98"/>
      <point x="255" y="28"/>
    </contour>
  </outline>
</glyph>
<glyph name="uni0225" format="2">
  <advance width="335"/>
  <unicode hex="0225"/>
  <anchor x="167" y="0" name="bottom"/>
  <anchor x="167" y="536" name="top"/>
  <outline>
    <contour>
      <point x="255" y="-157" type="curve"/>
      <point x="292" y="-148"/>
      <point x="314" y="-111"/>
      <point x="314" y="-65" type="curve" smooth="yes"/>
      <point x="314" y="4"/>
      <point x="275" y="40"/>
      <point x="205" y="40" type="curve" smooth="yes"/>
      <point x="103" y="40" type="line"/>
      <point x="295" y="506" type="line"/>
      <point x="295" y="536" type="line"/>
      <point x="42" y="536" type="line"/>
      <point x="33" y="403" type="line"/>
      <point x="66" y="403" type="line"/>
      <point x="70" y="423" type="line" smooth="yes"/>
      <point x="78" y="480"/>
      <point x="84" y="496"/>
      <point x="130" y="496" type="curve" smooth="yes"/>
      <point x="214" y="496" type="line"/>
      <point x="22" y="29" type="line"/>
      <point x="22" y="0" type="line"/>
      <point x="179" y="0" type="line" smooth="yes"/>
      <point x="234" y="0"/>
      <point x="263" y="-16"/>
      <point x="263" y="-82" type="curve" smooth="yes"/>
      <point x="263" y="-113"/>
      <point x="258" y="-133"/>
    </contour>
  </outline>
</glyph>
<glyph name="uni0234" format="2">
  <advance width="264"/>
  <unicode hex="0234"/>
  <anchor x="133" y="0" name="bottom"/>
  <anchor x="133" y="760" name="top"/>
  <outline>
    <contour>
      <point x="51" y="-15" type="line"/>
      <point x="56" y="27"/>
      <point x="67" y="81"/>
      <point x="83" y="113" type="curve"/>
      <point x="88" y="24"/>
      <point x="110" y="-10"/>
      <point x="161" y="-10" type="curve" smooth="yes"/>
      <point x="218" y="-10"/>
      <point x="250" y="31"/>
      <point x="250" y="113" type="curve" smooth="yes"/>
      <point x="250" y="170"/>
      <point x="222" y="219"/>
      <point x="169" y="219" type="curve" smooth="yes"/>
      <point x="159" y="219"/>
      <point x="150" y="218"/>
      <point x="142" y="213" type="curve"/>
      <point x="142" y="760" type="line"/>
      <point x="9" y="760" type="line"/>
      <point x="9" y="727" type="line"/>
      <point x="12" y="727" type="line" smooth="yes"/>
      <point x="50" y="727"/>
      <point x="68" y="722"/>
      <point x="68" y="656" type="curve" smooth="yes"/>
      <point x="68" y="214" type="line"/>
      <point x="68" y="194"/>
      <point x="69" y="177"/>
      <point x="71" y="162" type="curve"/>
      <point x="43" y="131"/>
      <point x="25" y="70"/>
      <point x="15" y="-1" type="curve"/>
    </contour>
    <contour>
      <point x="176" y="33" type="curve" smooth="yes"/>
      <point x="143" y="33"/>
      <point x="142" y="70"/>
      <point x="142" y="170" type="curve"/>
      <point x="149" y="177"/>
      <point x="158" y="179"/>
      <point x="167" y="179" type="curve" smooth="yes"/>
      <point x="200" y="179"/>
      <point x="210" y="145"/>
      <point x="210" y="114" type="curve" smooth="yes"/>
      <point x="210" y="72"/>
      <point x="204" y="33"/>
    </contour>
  </outline>
</glyph>
<glyph name="uni023B" format="2">
  <advance width="412"/>
  <unicode hex="023B"/>
  <anchor x="244" y="0" name="bottom"/>
  <anchor x="244" y="714" name="top"/>
  <anchor x="392" y="714" name="topright"/>
  <outline>
    <contour>
      <point x="131" y="-50" type="line"/>
      <point x="170" y="-50" type="line"/>
      <point x="339" y="760" type="line"/>
      <point x="300" y="760" type="line"/>
    </contour>
    <component base="C"/>
  </outline>
</glyph>
<glyph name="uni023E" format="2">
  <advance width="408"/>
  <unicode hex="023E"/>
  <anchor x="204" y="0" name="bottom"/>
  <anchor x="204" y="714" name="top"/>
  <anchor x="388" y="714" name="topright"/>
  <anchor x="204" y="357" name="center"/>
  <outline>
    <contour>
      <point x="18" y="-59" type="line"/>
      <point x="58" y="-59" type="line"/>
      <point x="378" y="760" type="line"/>
      <point x="340" y="760" type="line"/>
    </contour>
    <component base="T"/>
  </outline>
</glyph>
<glyph name="uni0242" format="2">
  <advance width="310"/>
  <unicode hex="0242"/>
  <anchor x="154" y="0" name="bottom"/>
  <anchor x="154" y="536" name="top"/>
  <outline>
    <contour>
      <point x="49" y="0" type="line"/>
      <point x="238" y="0" type="line"/>
      <point x="238" y="33" type="line"/>
      <point x="241" y="33" type="line" smooth="yes"/>
      <point x="196" y="33"/>
      <point x="180" y="41"/>
      <point x="180" y="105" type="curve" smooth="yes"/>
      <point x="180" y="186" type="line"/>
      <point x="203" y="215" type="line" smooth="yes"/>
      <point x="249" y="272"/>
      <point x="283" y="317"/>
      <point x="283" y="396" type="curve" smooth="yes"/>
      <point x="283" y="491"/>
      <point x="230" y="545"/>
      <point x="143" y="545" type="curve" smooth="yes"/>
      <point x="44" y="545"/>
      <point x="19" y="478"/>
      <point x="19" y="437" type="curve" smooth="yes"/>
      <point x="19" y="401"/>
      <point x="36" y="376"/>
      <point x="79" y="376" type="curve"/>
      <point x="79" y="449"/>
      <point x="92" y="507"/>
      <point x="146" y="507" type="curve" smooth="yes"/>
      <point x="184" y="507"/>
      <point x="205" y="466"/>
      <point x="205" y="408" type="curve" smooth="yes"/>
      <point x="205" y="343"/>
      <point x="175" y="294"/>
      <point x="156" y="261" type="curve" smooth="yes"/>
      <point x="106" y="212" type="line"/>
      <point x="106" y="105" type="line" smooth="yes"/>
      <point x="106" y="41"/>
      <point x="87" y="33"/>
      <point x="42" y="33" type="curve" smooth="yes"/>
      <point x="49" y="33" type="line"/>
    </contour>
  </outline>
</glyph>
<glyph name="uni0257" format="2">
  <advance width="406"/>
  <unicode hex="0257"/>
  <anchor x="204" y="0" name="bottom"/>
  <anchor x="204" y="764" name="top"/>
  <outline>
    <contour>
      <point x="164" y="-10" type="curve" smooth="yes"/>
      <point x="212" y="-10"/>
      <point x="247" y="26"/>
      <point x="265" y="82" type="curve"/>
      <point x="268" y="82" type="line"/>
      <point x="280" y="0" type="line"/>
      <point x="394" y="0" type="line"/>
      <point x="394" y="33" type="line"/>
      <point x="390" y="33" type="line" smooth="yes"/>
      <point x="348" y="33"/>
      <point x="335" y="45"/>
      <point x="335" y="100" type="curve"/>
      <point x="335" y="570" type="line" smooth="yes"/>
      <point x="335" y="672"/>
      <point x="341" y="727"/>
      <point x="382" y="727" type="curve" smooth="yes"/>
      <point x="415" y="727"/>
      <point x="416" y="680"/>
      <point x="407" y="645" type="curve"/>
      <point x="449" y="645"/>
      <point x="461" y="669"/>
      <point x="461" y="696" type="curve" smooth="yes"/>
      <point x="461" y="724"/>
      <point x="447" y="764"/>
      <point x="378" y="764" type="curve" smooth="yes"/>
      <point x="293" y="764"/>
      <point x="262" y="698"/>
      <point x="262" y="556" type="curve" smooth="yes"/>
      <point x="262" y="548" type="line" smooth="yes"/>
      <point x="262" y="517"/>
      <point x="264" y="466"/>
      <point x="266" y="458" type="curve" smooth="yes"/>
      <point x="263" y="458" type="line"/>
      <point x="243" y="508"/>
      <point x="218" y="546"/>
      <point x="169" y="546" type="curve" smooth="yes"/>
      <point x="94" y="546"/>
      <point x="34" y="483"/>
      <point x="34" y="267" type="curve" smooth="yes"/>
      <point x="34" y="55"/>
      <point x="83" y="-10"/>
    </contour>
    <contour>
      <point x="184" y="34" type="curve" smooth="yes"/>
      <point x="129" y="34"/>
      <point x="107" y="97"/>
      <point x="107" y="266" type="curve" smooth="yes"/>
      <point x="107" y="443"/>
      <point x="143" y="503"/>
      <point x="188" y="503" type="curve" smooth="yes"/>
      <point x="243" y="503"/>
      <point x="263" y="418"/>
      <point x="263" y="266" type="curve" smooth="yes"/>
      <point x="263" y="113"/>
      <point x="236" y="33"/>
    </contour>
  </outline>
</glyph>
<glyph name="uni0259" format="2">
  <advance width="356"/>
  <unicode hex="0259"/>
  <anchor x="178" y="0" name="bottom"/>
  <anchor x="178" y="536" name="top"/>
  <outline>
    <contour>
      <point x="174" y="-10" type="curve" smooth="yes"/>
      <point x="269" y="-10"/>
      <point x="323" y="84"/>
      <point x="323" y="271" type="curve" smooth="yes"/>
      <point x="323" y="445"/>
      <point x="268" y="545"/>
      <point x="166" y="545" type="curve" smooth="yes"/>
      <point x="86" y="545"/>
      <point x="48" y="488"/>
      <point x="48" y="450" type="curve" smooth="yes"/>
      <point x="48" y="432"/>
      <point x="56" y="422"/>
      <point x="66" y="418" type="curve"/>
      <point x="79" y="460"/>
      <point x="105" y="501"/>
      <point x="152" y="501" type="curve" smooth="yes"/>
      <point x="216" y="501"/>
      <point x="249" y="429"/>
      <point x="250" y="272" type="curve"/>
      <point x="33" y="272" type="line"/>
      <point x="33" y="237" type="line" smooth="yes"/>
      <point x="33" y="83"/>
      <point x="81" y="-10"/>
    </contour>
    <contour>
      <point x="172" y="30" type="curve" smooth="yes"/>
      <point x="121" y="30"/>
      <point x="107" y="110"/>
      <point x="106" y="232" type="curve"/>
      <point x="250" y="232" type="line"/>
      <point x="248" y="106"/>
      <point x="217" y="30"/>
    </contour>
  </outline>
</glyph>
<glyph name="uni0263" format="2">
  <advance width="374"/>
  <unicode hex="0263"/>
  <anchor x="187" y="-240" name="bottom"/>
  <anchor x="187" y="536" name="top"/>
  <outline>
    <contour>
      <point x="184" y="-240" type="curve" smooth="yes"/>
      <point x="234" y="-240"/>
      <point x="262" y="-208"/>
      <point x="262" y="-119" type="curve" smooth="yes"/>
      <point x="262" y="-71"/>
      <point x="248" y="-1"/>
      <point x="223" y="82" type="curve"/>
      <point x="341" y="449" type="line" smooth="yes"/>
      <point x="358" y="498"/>
      <point x="364" y="504"/>
      <point x="376" y="503" type="curve" smooth="yes"/>
      <point x="391" y="503" type="line"/>
      <point x="391" y="536" type="line"/>
      <point x="250" y="536" type="line"/>
      <point x="250" y="503" type="line"/>
      <point x="271" y="503" type="line" smooth="yes"/>
      <point x="298" y="504"/>
      <point x="306" y="493"/>
      <point x="306" y="479" type="curve" smooth="yes"/>
      <point x="306" y="464"/>
      <point x="302" y="437"/>
      <point x="284" y="379" type="curve" smooth="yes"/>
      <point x="248" y="264" type="line" smooth="yes"/>
      <point x="224" y="189"/>
      <point x="215" y="161"/>
      <point x="208" y="134" type="curve"/>
      <point x="199" y="176"/>
      <point x="189" y="217"/>
      <point x="175" y="269" type="curve" smooth="yes"/>
      <point x="136" y="412" type="line" smooth="yes"/>
      <point x="129" y="438"/>
      <point x="125" y="468"/>
      <point x="125" y="482" type="curve" smooth="yes"/>
      <point x="125" y="496"/>
      <point x="131" y="503"/>
      <point x="155" y="503" type="curve" smooth="yes"/>
      <point x="182" y="503" type="line"/>
      <point x="182" y="536" type="line"/>
      <point x="5" y="536" type="line"/>
      <point x="5" y="503" type="line"/>
      <point x="37" y="503"/>
      <point x="45" y="496"/>
      <point x="54" y="457" type="curve" smooth="yes"/>
      <point x="163" y="51" type="line"/>
      <point x="133" y="-28"/>
      <point x="117" y="-89"/>
      <point x="117" y="-138" type="curve" smooth="yes"/>
      <point x="117" y="-208"/>
      <point x="142" y="-240"/>
    </contour>
    <contour>
      <point x="180" y="-197" type="curve" smooth="yes"/>
      <point x="162" y="-197"/>
      <point x="156" y="-171"/>
      <point x="156" y="-141" type="curve" smooth="yes"/>
      <point x="156" y="-102"/>
      <point x="163" y="-61"/>
      <point x="182" y="-5" type="curve"/>
      <point x="192" y="-48"/>
      <point x="203" y="-89"/>
      <point x="203" y="-136" type="curve" smooth="yes"/>
      <point x="203" y="-169"/>
      <point x="199" y="-197"/>
    </contour>
  </outline>
</glyph>
<glyph name="uni0264" format="2">
  <advance width="397"/>
  <unicode hex="0264"/>
  <anchor x="198" y="0" name="bottom"/>
  <anchor x="198" y="536" name="top"/>
  <outline>
    <contour>
      <point x="193" y="-12" type="curve" smooth="yes"/>
      <point x="252" y="-12"/>
      <point x="272" y="38"/>
      <point x="272" y="102" type="curve" smooth="yes"/>
      <point x="272" y="180"/>
      <point x="249" y="258"/>
      <point x="233" y="319" type="curve"/>
      <point x="277" y="432"/>
      <point x="336" y="496"/>
      <point x="356" y="496" type="curve" smooth="yes"/>
      <point x="375" y="496"/>
      <point x="378" y="475"/>
      <point x="381" y="459" type="curve"/>
      <point x="388" y="463"/>
      <point x="397" y="480"/>
      <point x="397" y="501" type="curve" smooth="yes"/>
      <point x="397" y="534"/>
      <point x="381" y="545"/>
      <point x="359" y="545" type="curve" smooth="yes"/>
      <point x="330" y="545"/>
      <point x="272" y="497"/>
      <point x="211" y="359" type="curve"/>
      <point x="159" y="526"/>
      <point x="112" y="545"/>
      <point x="63" y="545" type="curve" smooth="yes"/>
      <point x="20" y="545"/>
      <point x="-6" y="523"/>
      <point x="-6" y="496" type="curve" smooth="yes"/>
      <point x="-6" y="475"/>
      <point x="1" y="465"/>
      <point x="10" y="459" type="curve"/>
      <point x="11" y="471"/>
      <point x="22" y="490"/>
      <point x="47" y="490" type="curve" smooth="yes"/>
      <point x="86" y="490"/>
      <point x="121" y="446"/>
      <point x="169" y="296" type="curve"/>
      <point x="134" y="201"/>
      <point x="121" y="132"/>
      <point x="121" y="93" type="curve" smooth="yes"/>
      <point x="121" y="23"/>
      <point x="142" y="-12"/>
    </contour>
    <contour>
      <point x="185" y="27" type="curve" smooth="yes"/>
      <point x="164" y="27"/>
      <point x="157" y="45"/>
      <point x="157" y="90" type="curve" smooth="yes"/>
      <point x="157" y="133"/>
      <point x="168" y="183"/>
      <point x="189" y="247" type="curve"/>
      <point x="202" y="193"/>
      <point x="213" y="137"/>
      <point x="213" y="90" type="curve" smooth="yes"/>
      <point x="213" y="47"/>
      <point x="203" y="27"/>
    </contour>
  </outline>
</glyph>
<glyph name="uni0267" format="2">
  <advance width="417"/>
  <unicode hex="0267"/>
  <anchor x="209" y="-239" name="bottom"/>
  <anchor x="209" y="764" name="top"/>
  <outline>
    <contour>
      <point x="231" y="-239" type="curve" smooth="yes"/>
      <point x="315" y="-239"/>
      <point x="350" y="-175"/>
      <point x="350" y="-12" type="curve" smooth="yes"/>
      <point x="350" y="361" type="line" smooth="yes"/>
      <point x="350" y="483"/>
      <point x="310" y="545"/>
      <point x="241" y="545" type="curve" smooth="yes"/>
      <point x="190" y="545"/>
      <point x="159" y="506"/>
      <point x="141" y="464" type="curve"/>
      <point x="138" y="464" type="line"/>
      <point x="140" y="486"/>
      <point x="141" y="509"/>
      <point x="141" y="527" type="curve" smooth="yes"/>
      <point x="141" y="573" type="line" smooth="yes"/>
      <point x="141" y="674"/>
      <point x="146" y="727"/>
      <point x="187" y="727" type="curve" smooth="yes"/>
      <point x="219" y="727"/>
      <point x="222" y="684"/>
      <point x="212" y="645" type="curve"/>
      <point x="255" y="645"/>
      <point x="267" y="669"/>
      <point x="267" y="695" type="curve" smooth="yes"/>
      <point x="267" y="735"/>
      <point x="243" y="764"/>
      <point x="184" y="764" type="curve" smooth="yes"/>
      <point x="99" y="764"/>
      <point x="68" y="698"/>
      <point x="68" y="556" type="curve" smooth="yes"/>
      <point x="68" y="107" type="line" smooth="yes"/>
      <point x="68" y="41"/>
      <point x="55" y="33"/>
      <point x="10" y="33" type="curve" smooth="yes"/>
      <point x="11" y="33" type="line"/>
      <point x="11" y="0" type="line"/>
      <point x="193" y="0" type="line"/>
      <point x="193" y="33" type="line"/>
      <point x="196" y="33" type="line" smooth="yes"/>
      <point x="151" y="33"/>
      <point x="141" y="41"/>
      <point x="141" y="105" type="curve" smooth="yes"/>
      <point x="141" y="323" type="line" smooth="yes"/>
      <point x="141" y="432"/>
      <point x="158" y="496"/>
      <point x="209" y="496" type="curve" smooth="yes"/>
      <point x="261" y="496"/>
      <point x="277" y="441"/>
      <point x="277" y="352" type="curve" smooth="yes"/>
      <point x="277" y="-32" type="line" smooth="yes"/>
      <point x="277" y="-146"/>
      <point x="274" y="-201"/>
      <point x="230" y="-201" type="curve" smooth="yes"/>
      <point x="194" y="-201"/>
      <point x="188" y="-159"/>
      <point x="199" y="-115" type="curve"/>
      <point x="162" y="-114"/>
      <point x="144" y="-138"/>
      <point x="144" y="-165" type="curve" smooth="yes"/>
      <point x="144" y="-206"/>
      <point x="177" y="-239"/>
    </contour>
  </outline>
</glyph>
<glyph name="uni026A" format="2">
  <advance width="220"/>
  <unicode hex="026A"/>
  <anchor x="111" y="0" name="bottom"/>
  <anchor x="111" y="536" name="top"/>
  <outline>
    <contour>
      <point x="16" y="0" type="line"/>
      <point x="204" y="0" type="line"/>
      <point x="204" y="33" type="line"/>
      <point x="191" y="33" type="line" smooth="yes"/>
      <point x="156" y="33"/>
      <point x="145" y="49"/>
      <point x="145" y="117" type="curve" smooth="yes"/>
      <point x="145" y="419" type="line" smooth="yes"/>
      <point x="145" y="488"/>
      <point x="156" y="503"/>
      <point x="193" y="503" type="curve" smooth="yes"/>
      <point x="204" y="503" type="line"/>
      <point x="204" y="536" type="line"/>
      <point x="16" y="536" type="line"/>
      <point x="16" y="503" type="line"/>
      <point x="24" y="503" type="line" smooth="yes"/>
      <point x="61" y="503"/>
      <point x="71" y="488"/>
      <point x="71" y="419" type="curve" smooth="yes"/>
      <point x="71" y="117" type="line" smooth="yes"/>
      <point x="71" y="48"/>
      <point x="62" y="33"/>
      <point x="27" y="33" type="curve" smooth="yes"/>
      <point x="16" y="33" type="line"/>
    </contour>
  </outline>
</glyph>
<glyph name="uni027A" format="2">
  <advance width="317"/>
  <unicode hex="027A"/>
  <anchor x="158" y="0" name="bottom"/>
  <anchor x="158" y="760" name="top"/>
  <outline>
    <contour>
      <point x="70" y="-9" type="curve" smooth="yes"/>
      <point x="128" y="-9"/>
      <point x="152" y="42"/>
      <point x="171" y="96" type="curve"/>
      <point x="173" y="96" type="line"/>
      <point x="182" y="0" type="line"/>
      <point x="298" y="0" type="line"/>
      <point x="298" y="33" type="line"/>
      <point x="309" y="33" type="line" smooth="yes"/>
      <point x="254" y="33"/>
      <point x="244" y="40"/>
      <point x="244" y="107" type="curve" smooth="yes"/>
      <point x="244" y="760" type="line"/>
      <point x="112" y="760" type="line"/>
      <point x="112" y="727" type="line"/>
      <point x="114" y="727" type="line" smooth="yes"/>
      <point x="157" y="727"/>
      <point x="170" y="720"/>
      <point x="170" y="652" type="curve" smooth="yes"/>
      <point x="170" y="265" type="line" smooth="yes"/>
      <point x="170" y="172"/>
      <point x="150" y="42"/>
      <point x="96" y="42" type="curve" smooth="yes"/>
      <point x="58" y="42"/>
      <point x="62" y="86"/>
      <point x="62" y="122" type="curve"/>
      <point x="27" y="122"/>
      <point x="8" y="100"/>
      <point x="8" y="60" type="curve" smooth="yes"/>
      <point x="8" y="20"/>
      <point x="24" y="-9"/>
    </contour>
  </outline>
</glyph>
<glyph name="uni027D" format="2">
  <advance width="319"/>
  <unicode hex="027D"/>
  <anchor x="159" y="-239" name="bottom"/>
  <anchor x="159" y="536" name="top"/>
  <outline>
    <contour>
      <point x="180" y="-239" type="curve" smooth="yes"/>
      <point x="205" y="-239"/>
      <point x="230" y="-233"/>
      <point x="241" y="-224" type="curve"/>
      <point x="241" y="-189" type="line"/>
      <point x="231" y="-195"/>
      <point x="215" y="-199"/>
      <point x="204" y="-199" type="curve" smooth="yes"/>
      <point x="165" y="-199"/>
      <point x="147" y="-167"/>
      <point x="147" y="-88" type="curve" smooth="yes"/>
      <point x="147" y="271" type="line" smooth="yes"/>
      <point x="147" y="364"/>
      <point x="168" y="494"/>
      <point x="221" y="494" type="curve" smooth="yes"/>
      <point x="259" y="494"/>
      <point x="254" y="450"/>
      <point x="254" y="414" type="curve"/>
      <point x="289" y="414"/>
      <point x="309" y="436"/>
      <point x="309" y="476" type="curve" smooth="yes"/>
      <point x="309" y="516"/>
      <point x="294" y="545"/>
      <point x="247" y="545" type="curve" smooth="yes"/>
      <point x="190" y="545"/>
      <point x="166" y="494"/>
      <point x="146" y="440" type="curve"/>
      <point x="144" y="440" type="line"/>
      <point x="136" y="536" type="line"/>
      <point x="19" y="536" type="line"/>
      <point x="19" y="503" type="line"/>
      <point x="13" y="503" type="line" smooth="yes"/>
      <point x="65" y="503"/>
      <point x="74" y="496"/>
      <point x="74" y="429" type="curve" smooth="yes"/>
      <point x="74" y="-86" type="line" smooth="yes"/>
      <point x="74" y="-197"/>
      <point x="107" y="-239"/>
    </contour>
  </outline>
</glyph>
<glyph name="uni029B" format="2">
  <advance width="391"/>
  <unicode hex="029B"/>
  <anchor x="196" y="0" name="bottom"/>
  <anchor x="196" y="760" name="top"/>
  <outline>
    <contour>
      <point x="204" y="-11" type="curve" smooth="yes"/>
      <point x="250" y="-11"/>
      <point x="297" y="1"/>
      <point x="326" y="27" type="curve"/>
      <point x="326" y="149" type="line" smooth="yes"/>
      <point x="326" y="223"/>
      <point x="333" y="232"/>
      <point x="385" y="232" type="curve" smooth="yes"/>
      <point x="373" y="232" type="line"/>
      <point x="373" y="264" type="line"/>
      <point x="199" y="264" type="line"/>
      <point x="199" y="232" type="line"/>
      <point x="192" y="232" type="line" smooth="yes"/>
      <point x="246" y="232"/>
      <point x="256" y="226"/>
      <point x="256" y="151" type="curve" smooth="yes"/>
      <point x="256" y="46" type="line"/>
      <point x="244" y="33"/>
      <point x="219" y="31"/>
      <point x="208" y="31" type="curve" smooth="yes"/>
      <point x="140" y="31"/>
      <point x="105" y="104"/>
      <point x="105" y="271" type="curve" smooth="yes"/>
      <point x="105" y="413"/>
      <point x="125" y="505"/>
      <point x="202" y="505" type="curve" smooth="yes"/>
      <point x="249" y="505"/>
      <point x="270" y="467"/>
      <point x="269" y="383" type="curve"/>
      <point x="317" y="383"/>
      <point x="330" y="404"/>
      <point x="330" y="436" type="curve" smooth="yes"/>
      <point x="330" y="605" type="line" smooth="yes"/>
      <point x="330" y="685"/>
      <point x="343" y="706"/>
      <point x="368" y="706" type="curve" smooth="yes"/>
      <point x="389" y="706"/>
      <point x="403" y="689"/>
      <point x="400" y="660" type="curve"/>
      <point x="408" y="669"/>
      <point x="416" y="680"/>
      <point x="416" y="702" type="curve" smooth="yes"/>
      <point x="416" y="740"/>
      <point x="395" y="760"/>
      <point x="362" y="760" type="curve" smooth="yes"/>
      <point x="315" y="760"/>
      <point x="288" y="719"/>
      <point x="288" y="615" type="curve" smooth="yes"/>
      <point x="288" y="518" type="line"/>
      <point x="268" y="534"/>
      <point x="239" y="545"/>
      <point x="198" y="545" type="curve" smooth="yes"/>
      <point x="82" y="545"/>
      <point x="31" y="443"/>
      <point x="31" y="268" type="curve" smooth="yes"/>
      <point x="31" y="64"/>
      <point x="100" y="-11"/>
    </contour>
  </outline>
</glyph>
<glyph name="uni029D" format="2">
  <advance width="208"/>
  <unicode hex="029D"/>
  <anchor x="104" y="-240" name="bottom"/>
  <anchor x="104" y="750" name="top"/>
  <outline>
    <contour>
      <point x="34" y="-240" type="curve" smooth="yes"/>
      <point x="112" y="-240"/>
      <point x="139" y="-175"/>
      <point x="144" y="-80" type="curve"/>
      <point x="201" y="-80" type="line"/>
      <point x="201" y="-41" type="line"/>
      <point x="145" y="-41" type="line"/>
      <point x="145" y="536" type="line"/>
      <point x="15" y="536" type="line"/>
      <point x="15" y="503" type="line"/>
      <point x="16" y="503" type="line" smooth="yes"/>
      <point x="60" y="503"/>
      <point x="71" y="492"/>
      <point x="71" y="428" type="curve" smooth="yes"/>
      <point x="71" y="-41" type="line"/>
      <point x="50" y="-41" type="line" smooth="yes"/>
      <point x="-12" y="-41"/>
      <point x="-42" y="-84"/>
      <point x="-42" y="-149" type="curve" smooth="yes"/>
      <point x="-42" y="-197"/>
      <point x="-20" y="-240"/>
    </contour>
    <contour>
      <point x="28" y="-200" type="curve" smooth="yes"/>
      <point x="11" y="-200"/>
      <point x="-1" y="-181"/>
      <point x="-1" y="-148" type="curve" smooth="yes"/>
      <point x="-1" y="-100"/>
      <point x="24" y="-80"/>
      <point x="55" y="-80" type="curve" smooth="yes"/>
      <point x="72" y="-80" type="line"/>
      <point x="72" y="-89" type="line" smooth="yes"/>
      <point x="72" y="-168"/>
      <point x="55" y="-200"/>
    </contour>
    <contour>
      <point x="104" y="646" type="curve" smooth="yes"/>
      <point x="128" y="646"/>
      <point x="149" y="660"/>
      <point x="149" y="698" type="curve" smooth="yes"/>
      <point x="149" y="736"/>
      <point x="128" y="750"/>
      <point x="104" y="750" type="curve" smooth="yes"/>
      <point x="81" y="750"/>
      <point x="60" y="736"/>
      <point x="60" y="698" type="curve" smooth="yes"/>
      <point x="60" y="660"/>
      <point x="81" y="646"/>
    </contour>
  </outline>
</glyph>
<glyph name="uni029F" format="2">
  <advance width="330"/>
  <unicode hex="029F"/>
  <anchor x="165" y="0" name="bottom"/>
  <anchor x="165" y="536" name="top"/>
  <outline>
    <contour>
      <point x="15" y="0" type="line"/>
      <point x="312" y="0" type="line"/>
      <point x="317" y="145" type="line"/>
      <point x="287" y="145" type="line"/>
      <point x="284" y="129" type="line" smooth="yes"/>
      <point x="276" y="50"/>
      <point x="263" y="38"/>
      <point x="202" y="38" type="curve" smooth="yes"/>
      <point x="146" y="38" type="line"/>
      <point x="146" y="428" type="line" smooth="yes"/>
      <point x="146" y="496"/>
      <point x="156" y="503"/>
      <point x="211" y="503" type="curve" smooth="yes"/>
      <point x="206" y="503" type="line"/>
      <point x="206" y="536" type="line"/>
      <point x="17" y="536" type="line"/>
      <point x="17" y="503" type="line"/>
      <point x="11" y="503" type="line" smooth="yes"/>
      <point x="62" y="503"/>
      <point x="73" y="493"/>
      <point x="73" y="428" type="curve" smooth="yes"/>
      <point x="73" y="109" type="line" smooth="yes"/>
      <point x="73" y="43"/>
      <point x="62" y="33"/>
      <point x="18" y="33" type="curve" smooth="yes"/>
      <point x="15" y="33" type="line"/>
    </contour>
  </outline>
</glyph>
<glyph name="qhook" format="2">
  <advance width="404"/>
  <unicode hex="02A0"/>
  <anchor x="203" y="-240" name="bottom"/>
  <anchor x="203" y="764" name="top"/>
  <outline>
    <contour>
      <point x="190" y="-240" type="line"/>
      <point x="393" y="-240" type="line"/>
      <point x="393" y="-207" type="line"/>
      <point x="396" y="-207" type="line" smooth="yes"/>
      <point x="350" y="-207"/>
      <point x="336" y="-200"/>
      <point x="336" y="-137" type="curve" smooth="yes"/>
      <point x="336" y="570" type="line" smooth="yes"/>
      <point x="336" y="674"/>
      <point x="349" y="727"/>
      <point x="388" y="727" type="curve" smooth="yes"/>
      <point x="423" y="727"/>
      <point x="425" y="681"/>
      <point x="419" y="639" type="curve"/>
      <point x="461" y="638"/>
      <point x="475" y="661"/>
      <point x="475" y="689" type="curve" smooth="yes"/>
      <point x="475" y="729"/>
      <point x="452" y="764"/>
      <point x="384" y="764" type="curve" smooth="yes"/>
      <point x="295" y="764"/>
      <point x="263" y="694"/>
      <point x="263" y="554" type="curve" smooth="yes"/>
      <point x="263" y="527" type="line" smooth="yes"/>
      <point x="263" y="501"/>
      <point x="263" y="473"/>
      <point x="264" y="444" type="curve"/>
      <point x="261" y="444" type="line"/>
      <point x="245" y="505"/>
      <point x="215" y="546"/>
      <point x="167" y="546" type="curve" smooth="yes"/>
      <point x="91" y="546"/>
      <point x="34" y="480"/>
      <point x="34" y="266" type="curve" smooth="yes"/>
      <point x="34" y="70"/>
      <point x="80" y="-10"/>
      <point x="162" y="-10" type="curve" smooth="yes"/>
      <point x="209" y="-10"/>
      <point x="241" y="28"/>
      <point x="263" y="85" type="curve"/>
      <point x="266" y="85" type="line"/>
      <point x="266" y="63"/>
      <point x="263" y="3"/>
      <point x="263" y="-33" type="curve" smooth="yes"/>
      <point x="263" y="-137" type="line" smooth="yes"/>
      <point x="263" y="-200"/>
      <point x="249" y="-207"/>
      <point x="201" y="-207" type="curve" smooth="yes"/>
      <point x="190" y="-207" type="line"/>
    </contour>
    <contour>
      <point x="180" y="32" type="curve" smooth="yes"/>
      <point x="127" y="32"/>
      <point x="107" y="107"/>
      <point x="107" y="265" type="curve" smooth="yes"/>
      <point x="107" y="448"/>
      <point x="138" y="503"/>
      <point x="181" y="503" type="curve" smooth="yes"/>
      <point x="237" y="503"/>
      <point x="263" y="412"/>
      <point x="263" y="267" type="curve" smooth="yes"/>
      <point x="263" y="115"/>
      <point x="239" y="32"/>
    </contour>
  </outline>
</glyph>
<glyph name="uni02A4" format="2">
  <advance width="628"/>
  <unicode hex="02A4"/>
  <anchor x="314" y="-241" name="bottom"/>
  <anchor x="314" y="760" name="top"/>
  <outline>
    <contour>
      <point x="430" y="-241" type="curve" smooth="yes"/>
      <point x="520" y="-241"/>
      <point x="598" y="-181"/>
      <point x="598" y="-2" type="curve" smooth="yes"/>
      <point x="598" y="155"/>
      <point x="536" y="215"/>
      <point x="441" y="220" type="curve"/>
      <point x="583" y="492" type="line"/>
      <point x="583" y="536" type="line"/>
      <point x="335" y="536" type="line"/>
      <point x="335" y="760" type="line"/>
      <point x="206" y="760" type="line"/>
      <point x="206" y="727" type="line"/>
      <point x="203" y="727" type="line" smooth="yes"/>
      <point x="249" y="727"/>
      <point x="262" y="720"/>
      <point x="262" y="649" type="curve" smooth="yes"/>
      <point x="262" y="560" type="line" smooth="yes"/>
      <point x="262" y="522"/>
      <point x="264" y="466"/>
      <point x="266" y="458" type="curve" smooth="yes"/>
      <point x="263" y="458" type="line"/>
      <point x="243" y="508"/>
      <point x="218" y="546"/>
      <point x="169" y="546" type="curve" smooth="yes"/>
      <point x="94" y="546"/>
      <point x="34" y="483"/>
      <point x="34" y="267" type="curve" smooth="yes"/>
      <point x="34" y="55"/>
      <point x="83" y="-10"/>
      <point x="164" y="-10" type="curve" smooth="yes"/>
      <point x="212" y="-10"/>
      <point x="247" y="26"/>
      <point x="265" y="83" type="curve"/>
      <point x="268" y="83" type="line"/>
      <point x="280" y="0" type="line"/>
      <point x="394" y="0" type="line"/>
      <point x="394" y="33" type="line"/>
      <point x="391" y="33" type="line" smooth="yes"/>
      <point x="348" y="33"/>
      <point x="335" y="45"/>
      <point x="335" y="100" type="curve" smooth="yes"/>
      <point x="335" y="477" type="line"/>
      <point x="526" y="477" type="line"/>
      <point x="385" y="209" type="line"/>
      <point x="385" y="181" type="line"/>
      <point x="410" y="181" type="line" smooth="yes"/>
      <point x="492" y="181"/>
      <point x="524" y="120"/>
      <point x="524" y="-6" type="curve" smooth="yes"/>
      <point x="524" y="-167"/>
      <point x="484" y="-203"/>
      <point x="428" y="-203" type="curve" smooth="yes"/>
      <point x="355" y="-203"/>
      <point x="338" y="-143"/>
      <point x="338" y="-81" type="curve"/>
      <point x="309" y="-81"/>
      <point x="297" y="-103"/>
      <point x="297" y="-136" type="curve" smooth="yes"/>
      <point x="297" y="-174"/>
      <point x="319" y="-241"/>
    </contour>
    <contour>
      <point x="184" y="34" type="curve" smooth="yes"/>
      <point x="129" y="34"/>
      <point x="107" y="97"/>
      <point x="107" y="266" type="curve" smooth="yes"/>
      <point x="107" y="443"/>
      <point x="143" y="503"/>
      <point x="188" y="503" type="curve" smooth="yes"/>
      <point x="243" y="503"/>
      <point x="263" y="418"/>
      <point x="263" y="266" type="curve" smooth="yes"/>
      <point x="263" y="112"/>
      <point x="236" y="33"/>
    </contour>
  </outline>
</glyph>
<glyph name="tslig" format="2">
  <advance width="497"/>
  <unicode hex="02A6"/>
  <anchor x="250" y="0" name="bottom"/>
  <anchor x="250" y="658" name="top"/>
  <outline>
    <contour>
      <point x="163" y="-10" type="curve" smooth="yes"/>
      <point x="192" y="-10"/>
      <point x="223" y="0"/>
      <point x="249" y="16" type="curve"/>
      <point x="266" y="0"/>
      <point x="295" y="-10"/>
      <point x="336" y="-10" type="curve" smooth="yes"/>
      <point x="424" y="-10"/>
      <point x="470" y="45"/>
      <point x="470" y="140" type="curve" smooth="yes"/>
      <point x="470" y="207"/>
      <point x="436" y="260"/>
      <point x="375" y="299" type="curve" smooth="yes"/>
      <point x="308" y="342"/>
      <point x="290" y="376"/>
      <point x="290" y="424" type="curve" smooth="yes"/>
      <point x="290" y="472"/>
      <point x="313" y="507"/>
      <point x="348" y="507" type="curve" smooth="yes"/>
      <point x="395" y="507"/>
      <point x="418" y="464"/>
      <point x="418" y="399" type="curve"/>
      <point x="451" y="399"/>
      <point x="460" y="416"/>
      <point x="460" y="452" type="curve" smooth="yes"/>
      <point x="460" y="510"/>
      <point x="417" y="544"/>
      <point x="351" y="544" type="curve" smooth="yes"/>
      <point x="333" y="544"/>
      <point x="318" y="541"/>
      <point x="303" y="536" type="curve"/>
      <point x="136" y="536" type="line"/>
      <point x="136" y="658" type="line"/>
      <point x="92" y="658" type="line"/>
      <point x="88" y="618"/>
      <point x="88" y="583"/>
      <point x="70" y="558" type="curve" smooth="yes"/>
      <point x="61" y="542"/>
      <point x="43" y="529"/>
      <point x="13" y="526" type="curve"/>
      <point x="13" y="496" type="line"/>
      <point x="62" y="496" type="line"/>
      <point x="62" y="144" type="line" smooth="yes"/>
      <point x="62" y="26"/>
      <point x="96" y="-10"/>
    </contour>
    <contour>
      <point x="338" y="28" type="curve" smooth="yes"/>
      <point x="283" y="28"/>
      <point x="258" y="74"/>
      <point x="258" y="156" type="curve"/>
      <point x="234" y="156"/>
      <point x="217" y="139"/>
      <point x="217" y="95" type="curve" smooth="yes"/>
      <point x="217" y="80"/>
      <point x="220" y="63"/>
      <point x="228" y="48" type="curve"/>
      <point x="215" y="41"/>
      <point x="204" y="38"/>
      <point x="188" y="38" type="curve" smooth="yes"/>
      <point x="153" y="38"/>
      <point x="136" y="61"/>
      <point x="136" y="150" type="curve" smooth="yes"/>
      <point x="136" y="496" type="line"/>
      <point x="252" y="496" type="line"/>
      <point x="238" y="474"/>
      <point x="231" y="444"/>
      <point x="231" y="408" type="curve" smooth="yes"/>
      <point x="231" y="336"/>
      <point x="263" y="294"/>
      <point x="330" y="245" type="curve" smooth="yes"/>
      <point x="393" y="203"/>
      <point x="411" y="165"/>
      <point x="411" y="122" type="curve" smooth="yes"/>
      <point x="411" y="55"/>
      <point x="385" y="28"/>
    </contour>
  </outline>
</glyph>
<glyph name="uni02A9" format="2">
  <advance width="620"/>
  <unicode hex="02A9"/>
  <anchor x="310" y="-240" name="bottom"/>
  <anchor x="310" y="771" name="top"/>
  <outline>
    <contour>
      <point x="427" y="-240" type="line"/>
      <point x="435" y="-240" type="line" smooth="yes"/>
      <point x="507" y="-240"/>
      <point x="563" y="-205"/>
      <point x="563" y="-20" type="curve" smooth="yes"/>
      <point x="563" y="362" type="line" smooth="yes"/>
      <point x="563" y="490"/>
      <point x="526" y="545"/>
      <point x="449" y="545" type="curve" smooth="yes"/>
      <point x="389" y="545"/>
      <point x="366" y="506"/>
      <point x="349" y="463" type="curve"/>
      <point x="349" y="463" type="line"/>
      <point x="346" y="536" type="line"/>
      <point x="150" y="536" type="line"/>
      <point x="150" y="596" type="line" smooth="yes"/>
      <point x="150" y="679"/>
      <point x="159" y="733"/>
      <point x="206" y="733" type="curve" smooth="yes"/>
      <point x="235" y="733"/>
      <point x="241" y="696"/>
      <point x="241" y="646" type="curve"/>
      <point x="280" y="646"/>
      <point x="291" y="670"/>
      <point x="291" y="697" type="curve" smooth="yes"/>
      <point x="291" y="748"/>
      <point x="267" y="771"/>
      <point x="202" y="771" type="curve" smooth="yes"/>
      <point x="115" y="771"/>
      <point x="77" y="712"/>
      <point x="77" y="590" type="curve" smooth="yes"/>
      <point x="77" y="536" type="line"/>
      <point x="19" y="536" type="line"/>
      <point x="19" y="494" type="line"/>
      <point x="77" y="494" type="line"/>
      <point x="77" y="113" type="line" smooth="yes"/>
      <point x="77" y="43"/>
      <point x="61" y="33"/>
      <point x="27" y="33" type="curve" smooth="yes"/>
      <point x="17" y="33" type="line"/>
      <point x="17" y="0" type="line"/>
      <point x="225" y="0" type="line"/>
      <point x="225" y="33" type="line"/>
      <point x="198" y="33" type="line" smooth="yes"/>
      <point x="164" y="33"/>
      <point x="150" y="43"/>
      <point x="150" y="113" type="curve" smooth="yes"/>
      <point x="150" y="494" type="line"/>
      <point x="215" y="494" type="line" smooth="yes"/>
      <point x="271" y="494"/>
      <point x="278" y="487"/>
      <point x="278" y="420" type="curve" smooth="yes"/>
      <point x="278" y="0" type="line"/>
      <point x="405" y="0" type="line"/>
      <point x="405" y="33" type="line"/>
      <point x="417" y="33" type="line" smooth="yes"/>
      <point x="360" y="33"/>
      <point x="352" y="41"/>
      <point x="352" y="105" type="curve" smooth="yes"/>
      <point x="352" y="323" type="line" smooth="yes"/>
      <point x="352" y="455"/>
      <point x="396" y="497"/>
      <point x="426" y="497" type="curve" smooth="yes"/>
      <point x="469" y="497"/>
      <point x="490" y="442"/>
      <point x="490" y="350" type="curve" smooth="yes"/>
      <point x="490" y="-17" type="line" smooth="yes"/>
      <point x="490" y="-160"/>
      <point x="469" y="-201"/>
      <point x="429" y="-201" type="curve" smooth="yes"/>
      <point x="427" y="-201" type="line"/>
    </contour>
  </outline>
</glyph>
<glyph name="uni02C2" format="2">
  <advance width="176"/>
  <unicode hex="02C2"/>
  <outline>
    <contour>
      <point x="148" y="522" type="curve"/>
      <point x="155" y="522" type="line"/>
      <point x="155" y="563" type="line"/>
      <point x="118" y="607"/>
      <point x="111" y="630"/>
      <point x="69" y="655" type="curve"/>
      <point x="111" y="682"/>
      <point x="118" y="704"/>
      <point x="155" y="747" type="curve"/>
      <point x="155" y="788" type="line"/>
      <point x="148" y="788" type="line"/>
      <point x="112" y="735"/>
      <point x="64" y="705"/>
      <point x="19" y="678" type="curve"/>
      <point x="19" y="631" type="line"/>
      <point x="66" y="602"/>
      <point x="107" y="576"/>
    </contour>
  </outline>
</glyph>
<glyph name="uni02CC" format="2">
  <advance width="122"/>
  <unicode hex="02CC"/>
  <outline>
    <contour>
      <point x="40" y="-193" type="line"/>
      <point x="82" y="-193" type="line"/>
      <point x="82" y="-37" type="line"/>
      <point x="40" y="-37" type="line"/>
    </contour>
  </outline>
</glyph>
<glyph name="uni02D1" format="2">
  <advance width="176"/>
  <unicode hex="02D1"/>
  <outline>
    <contour>
      <point x="91" y="440" type="line"/>
      <point x="128" y="536" type="line"/>
      <point x="50" y="536" type="line"/>
    </contour>
  </outline>
</glyph>
<glyph name="breve" format="2">
  <advance width="271"/>
  <unicode hex="02D8"/>
  <outline>
    <contour>
      <point x="137" y="606" type="curve" smooth="yes"/>
      <point x="204" y="606"/>
      <point x="231" y="659"/>
      <point x="231" y="736" type="curve"/>
      <point x="196" y="736" type="line"/>
      <point x="186" y="673"/>
      <point x="172" y="656"/>
      <point x="137" y="656" type="curve" smooth="yes"/>
      <point x="100" y="656"/>
      <point x="85" y="675"/>
      <point x="76" y="736" type="curve"/>
      <point x="40" y="736" type="line"/>
      <point x="41" y="658"/>
      <point x="68" y="606"/>
    </contour>
  </outline>
</glyph>
<glyph name="rhotichookmod" format="2">
  <advance width="149"/>
  <unicode hex="02DE"/>
  <outline>
    <contour>
      <point x="99" y="174" type="curve" smooth="yes"/>
      <point x="137" y="174"/>
      <point x="152" y="203"/>
      <point x="152" y="236" type="curve" smooth="yes"/>
      <point x="152" y="252"/>
      <point x="147" y="266"/>
      <point x="136" y="275" type="curve"/>
      <point x="135" y="251"/>
      <point x="127" y="232"/>
      <point x="105" y="232" type="curve" smooth="yes"/>
      <point x="77" y="232"/>
      <point x="66" y="252"/>
      <point x="51" y="313" type="curve" smooth="yes"/>
      <point x="34" y="375" type="line"/>
      <point x="-86" y="334" type="line"/>
      <point x="-73" y="299" type="line"/>
      <point x="0" y="325" type="line"/>
      <point x="7" y="299" type="line" smooth="yes"/>
      <point x="31" y="205"/>
      <point x="54" y="174"/>
    </contour>
  </outline>
</glyph>
<glyph name="uni02DF" format="2">
  <advance width="215"/>
  <unicode hex="02DF"/>
  <outline>
    <contour>
      <point x="62" y="604" type="line"/>
      <point x="108" y="673" type="line"/>
      <point x="154" y="606" type="line"/>
      <point x="174" y="638" type="line"/>
      <point x="130" y="705" type="line"/>
      <point x="175" y="775" type="line"/>
      <point x="155" y="806" type="line"/>
      <point x="107" y="737" type="line"/>
      <point x="61" y="807" type="line"/>
      <point x="39" y="776" type="line"/>
      <point x="86" y="705" type="line"/>
      <point x="40" y="636" type="line"/>
    </contour>
  </outline>
</glyph>
<glyph name="uni02F3" format="2">
  <advance width="214"/>
  <unicode hex="02F3"/>
  <outline>
    <contour>
      <point x="107" y="-243" type="curve" smooth="yes"/>
      <point x="149" y="-243"/>
      <point x="182" y="-208"/>
      <point x="182" y="-141" type="curve" smooth="yes"/>
      <point x="182" y="-76"/>
      <point x="149" y="-41"/>
      <point x="106" y="-41" type="curve" smooth="yes"/>
      <point x="65" y="-41"/>
      <point x="32" y="-76"/>
      <point x="32" y="-142" type="curve" smooth="yes"/>
      <point x="32" y="-208"/>
      <point x="65" y="-243"/>
    </contour>
    <contour>
      <point x="108" y="-205" type="curve" smooth="yes"/>
      <point x="89" y="-205"/>
      <point x="71" y="-190"/>
      <point x="71" y="-142" type="curve" smooth="yes"/>
      <point x="71" y="-93"/>
      <point x="89" y="-79"/>
      <point x="107" y="-79" type="curve" smooth="yes"/>
      <point x="126" y="-79"/>
      <point x="144" y="-93"/>
      <point x="144" y="-141" type="curve" smooth="yes"/>
      <point x="144" y="-190"/>
      <point x="126" y="-205"/>
    </contour>
  </outline>
</glyph>
<glyph name="uni02F8" format="2">
  <advance width="189"/>
  <unicode hex="02F8"/>
  <outline>
    <contour>
      <point x="96" y="620" type="curve" smooth="yes"/>
      <point x="119" y="620"/>
      <point x="140" y="634"/>
      <point x="140" y="675" type="curve" smooth="yes"/>
      <point x="140" y="718"/>
      <point x="119" y="731"/>
      <point x="96" y="731" type="curve" smooth="yes"/>
      <point x="70" y="731"/>
      <point x="50" y="718"/>
      <point x="50" y="675" type="curve" smooth="yes"/>
      <point x="50" y="634"/>
      <point x="70" y="620"/>
    </contour>
    <contour>
      <point x="96" y="215" type="curve" smooth="yes"/>
      <point x="119" y="215"/>
      <point x="140" y="228"/>
      <point x="140" y="270" type="curve" smooth="yes"/>
      <point x="140" y="312"/>
      <point x="119" y="325"/>
      <point x="96" y="325" type="curve" smooth="yes"/>
      <point x="70" y="325"/>
      <point x="50" y="312"/>
      <point x="50" y="270" type="curve" smooth="yes"/>
      <point x="50" y="228"/>
      <point x="70" y="215"/>
    </contour>
  </outline>
</glyph>
<glyph name="dblgravecomb" format="2">
  <unicode hex="030F"/>
  <anchor x="-223" y="536" name="_top"/>
  <anchor x="-223" y="766" name="top"/>
  <outline>
    <contour>
      <point x="-130" y="606" type="curve"/>
      <point x="-100" y="606" type="line"/>
      <point x="-100" y="619" type="line"/>
      <point x="-118" y="652"/>
      <point x="-142" y="720"/>
      <point x="-157" y="766" type="curve"/>
      <point x="-226" y="766" type="line"/>
      <point x="-226" y="756" type="line"/>
      <point x="-214" y="717"/>
      <point x="-159" y="641"/>
    </contour>
    <contour>
      <point x="-248" y="606" type="curve"/>
      <point x="-217" y="606" type="line"/>
      <point x="-217" y="619" type="line"/>
      <point x="-235" y="652"/>
      <point x="-260" y="720"/>
      <point x="-274" y="766" type="curve"/>
      <point x="-344" y="766" type="line"/>
      <point x="-344" y="756" type="line"/>
      <point x="-333" y="717"/>
      <point x="-276" y="641"/>
    </contour>
  </outline>
</glyph>
<glyph name="uptackbelowcomb" format="2">
  <unicode hex="031D"/>
  <anchor x="0" y="0" name="_bottom"/>
  <anchor x="0" y="-204" name="bottom"/>
  <outline>
    <contour>
      <point x="-61" y="-204" type="line"/>
      <point x="61" y="-204" type="line"/>
      <point x="61" y="-151" type="line"/>
      <point x="17" y="-151" type="line"/>
      <point x="17" y="-52" type="line"/>
      <point x="-17" y="-52" type="line"/>
      <point x="-17" y="-151" type="line"/>
      <point x="-61" y="-151" type="line"/>
    </contour>
  </outline>
</glyph>
<glyph name="ringbelowcomb" format="2">
  <unicode hex="0325"/>
  <anchor x="2" y="0" name="_bottom"/>
  <anchor x="2" y="-244" name="bottom"/>
  <outline>
    <contour>
      <point x="1" y="-244" type="curve" smooth="yes"/>
      <point x="51" y="-244"/>
      <point x="90" y="-213"/>
      <point x="90" y="-151" type="curve" smooth="yes"/>
      <point x="90" y="-92"/>
      <point x="51" y="-61"/>
      <point x="1" y="-61" type="curve" smooth="yes"/>
      <point x="-48" y="-61"/>
      <point x="-87" y="-92"/>
      <point x="-87" y="-151" type="curve" smooth="yes"/>
      <point x="-87" y="-213"/>
      <point x="-48" y="-244"/>
    </contour>
    <contour>
      <point x="2" y="-219" type="curve" smooth="yes"/>
      <point x="-27" y="-219"/>
      <point x="-48" y="-204"/>
      <point x="-48" y="-151" type="curve" smooth="yes"/>
      <point x="-48" y="-100"/>
      <point x="-27" y="-84"/>
      <point x="2" y="-84" type="curve" smooth="yes"/>
      <point x="28" y="-84"/>
      <point x="52" y="-100"/>
      <point x="52" y="-151" type="curve" smooth="yes"/>
      <point x="52" y="-204"/>
      <point x="28" y="-219"/>
    </contour>
  </outline>
</glyph>
<glyph name="cedillacomb" format="2">
  <unicode hex="0327"/>
  <anchor x="1" y="0" name="_bottom"/>
  <anchor x="1" y="-230" name="bottom"/>
  <outline>
    <contour>
      <point x="-20" y="-230" type="curve" smooth="yes"/>
      <point x="38" y="-230"/>
      <point x="70" y="-189"/>
      <point x="70" y="-128" type="curve" smooth="yes"/>
      <point x="70" y="-75"/>
      <point x="40" y="-44"/>
      <point x="4" y="-37" type="curve"/>
      <point x="12" y="9" type="line"/>
      <point x="-22" y="9" type="line"/>
      <point x="-34" y="-66" type="line"/>
      <point x="-3" y="-71"/>
      <point x="18" y="-90"/>
      <point x="18" y="-129" type="curve" smooth="yes"/>
      <point x="18" y="-169"/>
      <point x="0" y="-188"/>
      <point x="-29" y="-188" type="curve" smooth="yes"/>
      <point x="-37" y="-188"/>
      <point x="-55" y="-185"/>
      <point x="-70" y="-181" type="curve"/>
      <point x="-70" y="-219" type="line"/>
      <point x="-55" y="-226"/>
      <point x="-34" y="-230"/>
    </contour>
  </outline>
</glyph>
<glyph name="brevebelowcomb" format="2">
  <unicode hex="032E"/>
  <anchor x="-2" y="0" name="_bottom"/>
  <anchor x="-2" y="-200" name="bottom"/>
  <outline>
    <contour>
      <point x="1" y="-200" type="curve" smooth="yes"/>
      <point x="67" y="-200"/>
      <point x="93" y="-146"/>
      <point x="94" y="-69" type="curve"/>
      <point x="59" y="-69" type="line"/>
      <point x="49" y="-132"/>
      <point x="35" y="-149"/>
      <point x="1" y="-149" type="curve" smooth="yes"/>
      <point x="-37" y="-149"/>
      <point x="-53" y="-130"/>
      <point x="-61" y="-69" type="curve"/>
      <point x="-98" y="-69" type="line"/>
      <point x="-96" y="-147"/>
      <point x="-69" y="-200"/>
    </contour>
  </outline>
</glyph>
<glyph name="breveinvertedbelowcomb" format="2">
  <unicode hex="032F"/>
  <anchor x="0" y="0" name="_bottom"/>
  <anchor x="0" y="-203" name="bottom"/>
  <outline>
    <contour>
      <point x="-95" y="-203" type="curve"/>
      <point x="-59" y="-203" type="line"/>
      <point x="-51" y="-141"/>
      <point x="-35" y="-122"/>
      <point x="2" y="-122" type="curve" smooth="yes"/>
      <point x="38" y="-122"/>
      <point x="51" y="-139"/>
      <point x="60" y="-203" type="curve"/>
      <point x="96" y="-203" type="line"/>
      <point x="95" y="-125"/>
      <point x="69" y="-71"/>
      <point x="2" y="-71" type="curve" smooth="yes"/>
      <point x="-67" y="-71"/>
      <point x="-94" y="-125"/>
    </contour>
  </outline>
</glyph>
<glyph name="slashshortoverlaycomb" format="2">
  <unicode hex="0337"/>
  <anchor x="4" y="278" name="_center"/>
  <outline>
    <contour>
      <point x="-87" y="172" type="line"/>
      <point x="116" y="345" type="line"/>
      <point x="95" y="383" type="line"/>
      <point x="-109" y="211" type="line"/>
    </contour>
  </outline>
</glyph>
<glyph name="xabovecomb" format="2">
  <unicode hex="033D"/>
  <anchor x="2" y="536" name="_top"/>
  <anchor x="2" y="753" name="top"/>
  <outline>
    <contour>
      <point x="-33" y="580" type="line"/>
      <point x="0" y="629" type="line"/>
      <point x="33" y="580" type="line"/>
      <point x="57" y="617" type="line"/>
      <point x="26" y="666" type="line"/>
      <point x="58" y="715" type="line"/>
      <point x="34" y="753" type="line"/>
      <point x="0" y="703" type="line"/>
      <point x="-33" y="753" type="line"/>
      <point x="-55" y="716" type="line"/>
      <point x="-25" y="666" type="line"/>
      <point x="-55" y="617" type="line"/>
    </contour>
  </outline>
</glyph>
<glyph name="leftanglebelowcomb" format="2">
  <unicode hex="0349"/>
  <anchor x="0" y="0" name="_bottom"/>
  <anchor x="0" y="-226" name="bottom"/>
  <outline>
    <contour>
      <point x="11" y="-226" type="line"/>
      <point x="54" y="-226" type="line"/>
      <point x="54" y="-78" type="line"/>
      <point x="-53" y="-78" type="line"/>
      <point x="-53" y="-125" type="line"/>
      <point x="11" y="-125" type="line"/>
    </contour>
  </outline>
</glyph>
<glyph name="arrowheadrightheadupbelowcomb" format="2">
  <unicode hex="0356"/>
  <anchor x="0" y="0" name="_bottom"/>
  <anchor x="0" y="-240" name="bottom"/>
  <outline>
    <contour>
      <point x="-2" y="-240" type="line"/>
      <point x="32" y="-240" type="line"/>
      <point x="42" y="-215"/>
      <point x="54" y="-180"/>
      <point x="62" y="-146" type="curve"/>
      <point x="71" y="-185"/>
      <point x="86" y="-223"/>
      <point x="95" y="-240" type="curve"/>
      <point x="127" y="-240" type="line"/>
      <point x="127" y="-230" type="line"/>
      <point x="105" y="-164"/>
      <point x="87" y="-109"/>
      <point x="82" y="-48" type="curve"/>
      <point x="44" y="-48" type="line"/>
      <point x="35" y="-108"/>
      <point x="22" y="-165"/>
      <point x="-2" y="-230" type="curve"/>
    </contour>
    <contour>
      <point x="-127" y="-240" type="line"/>
      <point x="-120" y="-240" type="line"/>
      <point x="-78" y="-203"/>
      <point x="-48" y="-178"/>
      <point x="-9" y="-169" type="curve"/>
      <point x="-9" y="-111" type="line"/>
      <point x="-49" y="-96"/>
      <point x="-77" y="-76"/>
      <point x="-120" y="-40" type="curve"/>
      <point x="-127" y="-40" type="line"/>
      <point x="-127" y="-91" type="line"/>
      <point x="-111" y="-108"/>
      <point x="-87" y="-127"/>
      <point x="-66" y="-140" type="curve"/>
      <point x="-90" y="-154"/>
      <point x="-116" y="-177"/>
      <point x="-127" y="-189" type="curve"/>
    </contour>
  </outline>
</glyph>
<glyph name="doublebrevebelowcomb" format="2">
  <unicode hex="035C"/>
  <anchor x="-175" y="0" name="_bottom"/>
  <anchor x="-1" y="-195" name="bottom"/>
  <outline>
    <contour>
      <point x="-1" y="-195" type="curve" smooth="yes"/>
      <point x="121" y="-195"/>
      <point x="198" y="-152"/>
      <point x="245" y="-25" type="curve"/>
      <point x="212" y="-25" type="line"/>
      <point x="169" y="-110"/>
      <point x="94" y="-150"/>
      <point x="-1" y="-150" type="curve" smooth="yes"/>
      <point x="-96" y="-150"/>
      <point x="-170" y="-110"/>
      <point x="-212" y="-25" type="curve"/>
      <point x="-246" y="-25" type="line"/>
      <point x="-199" y="-152"/>
      <point x="-122" y="-195"/>
    </contour>
  </outline>
</glyph>
<glyph name="tildedoublecomb" format="2">
  <unicode hex="0360"/>
  <anchor x="-1" y="536" name="_top"/>
  <anchor x="-1" y="725" name="top"/>
  <outline>
    <contour>
      <point x="-231" y="616" type="curve"/>
      <point x="-216" y="616" type="line"/>
      <point x="-192" y="680"/>
      <point x="-170" y="703"/>
      <point x="-131" y="703" type="curve" smooth="yes"/>
      <point x="-38" y="703"/>
      <point x="2" y="622"/>
      <point x="114" y="622" type="curve" smooth="yes"/>
      <point x="179" y="622"/>
      <point x="211" y="660"/>
      <point x="230" y="726" type="curve"/>
      <point x="214" y="726" type="line"/>
      <point x="201" y="683"/>
      <point x="165" y="639"/>
      <point x="135" y="639" type="curve" smooth="yes"/>
      <point x="38" y="639"/>
      <point x="18" y="721"/>
      <point x="-114" y="721" type="curve" smooth="yes"/>
      <point x="-172" y="721"/>
      <point x="-209" y="692"/>
    </contour>
  </outline>
</glyph>
<glyph name="breveinverteddoublecomb" format="2">
  <unicode hex="0361"/>
  <anchor x="-191" y="598" name="_top"/>
  <anchor x="0" y="837" name="top"/>
  <outline>
    <contour>
      <point x="-250" y="656" type="curve"/>
      <point x="-212" y="656" type="line"/>
      <point x="-169" y="757"/>
      <point x="-99" y="790"/>
      <point x="1" y="790" type="curve" smooth="yes"/>
      <point x="97" y="790"/>
      <point x="166" y="760"/>
      <point x="210" y="656" type="curve"/>
      <point x="251" y="656" type="line"/>
      <point x="202" y="782"/>
      <point x="121" y="837"/>
      <point x="0" y="837" type="curve" smooth="yes"/>
      <point x="-121" y="837"/>
      <point x="-202" y="783"/>
    </contour>
  </outline>
</glyph>
<glyph name="heta" format="2">
  <advance width="325"/>
  <unicode hex="0371"/>
  <anchor x="163" y="0" name="bottom"/>
  <anchor x="163" y="536" name="top"/>
  <outline>
    <contour>
      <point x="75" y="0" type="line"/>
      <point x="148" y="0" type="line"/>
      <point x="148" y="255" type="line"/>
      <point x="287" y="255" type="line"/>
      <point x="287" y="295" type="line"/>
      <point x="148" y="295" type="line"/>
      <point x="148" y="536" type="line"/>
      <point x="8" y="536" type="line"/>
      <point x="8" y="503" type="line"/>
      <point x="11" y="503" type="line" smooth="yes"/>
      <point x="62" y="503"/>
      <point x="75" y="494"/>
      <point x="75" y="428" type="curve" smooth="yes"/>
    </contour>
  </outline>
</glyph>
<glyph name="archaicsampi" format="2">
  <advance width="348"/>
  <unicode hex="0373"/>
  <anchor x="175" y="-240" name="bottom"/>
  <anchor x="175" y="536" name="top"/>
  <outline>
    <contour>
      <point x="155" y="-240" type="curve"/>
      <point x="228" y="-240" type="line"/>
      <point x="221" y="-210"/>
      <point x="210" y="-146"/>
      <point x="211" y="-70" type="curve" smooth="yes"/>
      <point x="211" y="489" type="line"/>
      <point x="226" y="489" type="line" smooth="yes"/>
      <point x="283" y="489"/>
      <point x="295" y="482"/>
      <point x="298" y="399" type="curve" smooth="yes"/>
      <point x="298" y="365" type="line"/>
      <point x="333" y="365" type="line"/>
      <point x="333" y="536" type="line"/>
      <point x="114" y="536" type="line" smooth="yes"/>
      <point x="64" y="536"/>
      <point x="11" y="514"/>
      <point x="11" y="375" type="curve" smooth="yes"/>
      <point x="11" y="370" type="line"/>
      <point x="46" y="370" type="line"/>
      <point x="46" y="465"/>
      <point x="78" y="489"/>
      <point x="113" y="489" type="curve" smooth="yes"/>
      <point x="139" y="489" type="line"/>
      <point x="139" y="-57" type="line" smooth="yes"/>
      <point x="137" y="-147"/>
      <point x="149" y="-213"/>
    </contour>
  </outline>
</glyph>
<glyph name="pamphyliandigamma" format="2">
  <advance width="439"/>
  <unicode hex="0377"/>
  <anchor x="220" y="0" name="bottom"/>
  <anchor x="220" y="536" name="top"/>
  <outline>
    <contour>
      <point x="353" y="-8" type="curve" smooth="yes"/>
      <point x="386" y="-8"/>
      <point x="402" y="13"/>
      <point x="405" y="34" type="curve"/>
      <point x="349" y="35"/>
      <point x="339" y="74"/>
      <point x="339" y="203" type="curve" smooth="yes"/>
      <point x="339" y="309"/>
      <point x="366" y="443"/>
      <point x="387" y="536" type="curve"/>
      <point x="336" y="536" type="line"/>
      <point x="143" y="143" type="line"/>
      <point x="143" y="536" type="line"/>
      <point x="11" y="536" type="line"/>
      <point x="11" y="503" type="line"/>
      <point x="2" y="503" type="line" smooth="yes"/>
      <point x="57" y="503"/>
      <point x="69" y="494"/>
      <point x="69" y="429" type="curve" smooth="yes"/>
      <point x="69" y="0" type="line"/>
      <point x="99" y="0" type="line"/>
      <point x="298" y="401" type="line"/>
      <point x="281" y="341"/>
      <point x="265" y="248"/>
      <point x="265" y="166" type="curve" smooth="yes"/>
      <point x="265" y="52"/>
      <point x="295" y="-8"/>
    </contour>
  </outline>
</glyph>
<glyph name="Theta" format="2">
  <advance width="492"/>
  <unicode hex="0398"/>
  <anchor x="246" y="0" name="bottom"/>
  <anchor x="246" y="714" name="top"/>
  <outline>
    <contour>
      <point x="246" y="-10" type="curve" smooth="yes"/>
      <point x="370" y="-10"/>
      <point x="455" y="126"/>
      <point x="455" y="358" type="curve" smooth="yes"/>
      <point x="455" y="606"/>
      <point x="379" y="725"/>
      <point x="247" y="725" type="curve" smooth="yes"/>
      <point x="104" y="725"/>
      <point x="37" y="591"/>
      <point x="37" y="359" type="curve" smooth="yes"/>
      <point x="37" y="142"/>
      <point x="104" y="-10"/>
    </contour>
    <contour>
      <point x="246" y="31" type="curve" smooth="yes"/>
      <point x="157" y="31"/>
      <point x="112" y="160"/>
      <point x="112" y="358" type="curve" smooth="yes"/>
      <point x="112" y="567"/>
      <point x="151" y="684"/>
      <point x="247" y="684" type="curve" smooth="yes"/>
      <point x="344" y="684"/>
      <point x="379" y="567"/>
      <point x="379" y="358" type="curve" smooth="yes"/>
      <point x="379" y="152"/>
      <point x="332" y="31"/>
    </contour>
    <contour>
      <point x="156" y="273" type="line"/>
      <point x="185" y="273" type="line"/>
      <point x="186" y="296" type="line" smooth="yes"/>
      <point x="188" y="336"/>
      <point x="194" y="341"/>
      <point x="260" y="341" type="curve" smooth="yes"/>
      <point x="229" y="341" type="line"/>
      <point x="298" y="341"/>
      <point x="304" y="336"/>
      <point x="306" y="296" type="curve" smooth="yes"/>
      <point x="307" y="273" type="line"/>
      <point x="337" y="273" type="line"/>
      <point x="337" y="454" type="line"/>
      <point x="307" y="454" type="line"/>
      <point x="306" y="432" type="line" smooth="yes"/>
      <point x="304" y="391"/>
      <point x="296" y="386"/>
      <point x="230" y="386" type="curve"/>
      <point x="260" y="386" type="line" smooth="yes"/>
      <point x="196" y="386"/>
      <point x="188" y="390"/>
      <point x="186" y="437" type="curve" smooth="yes"/>
      <point x="185" y="454" type="line"/>
      <point x="156" y="454" type="line"/>
    </contour>
  </outline>
</glyph>
<glyph name="Psi" format="2">
  <advance width="573"/>
  <unicode hex="03A8"/>
  <anchor x="286" y="0" name="bottom"/>
  <anchor x="286" y="714" name="top"/>
  <outline>
    <contour>
      <point x="187" y="0" type="line"/>
      <point x="385" y="0" type="line"/>
      <point x="385" y="33" type="line"/>
      <point x="383" y="33" type="line" smooth="yes"/>
      <point x="333" y="33"/>
      <point x="320" y="43"/>
      <point x="320" y="110" type="curve" smooth="yes"/>
      <point x="320" y="252" type="line"/>
      <point x="336" y="252" type="line" smooth="yes"/>
      <point x="462" y="252"/>
      <point x="510" y="332"/>
      <point x="510" y="482" type="curve" smooth="yes"/>
      <point x="510" y="585" type="line" smooth="yes"/>
      <point x="510" y="669"/>
      <point x="523" y="681"/>
      <point x="563" y="681" type="curve"/>
      <point x="563" y="714" type="line"/>
      <point x="441" y="714" type="line"/>
      <point x="441" y="478" type="line" smooth="yes"/>
      <point x="441" y="348"/>
      <point x="415" y="290"/>
      <point x="334" y="290" type="curve" smooth="yes"/>
      <point x="320" y="290" type="line"/>
      <point x="320" y="601" type="line" smooth="yes"/>
      <point x="320" y="668"/>
      <point x="331" y="681"/>
      <point x="377" y="681" type="curve" smooth="yes"/>
      <point x="384" y="681" type="line"/>
      <point x="384" y="714" type="line"/>
      <point x="190" y="714" type="line"/>
      <point x="190" y="681" type="line"/>
      <point x="194" y="681" type="line" smooth="yes"/>
      <point x="241" y="681"/>
      <point x="251" y="668"/>
      <point x="251" y="601" type="curve" smooth="yes"/>
      <point x="251" y="290" type="line"/>
      <point x="246" y="290" type="line" smooth="yes"/>
      <point x="170" y="290"/>
      <point x="132" y="344"/>
      <point x="132" y="478" type="curve" smooth="yes"/>
      <point x="132" y="714" type="line"/>
      <point x="10" y="714" type="line"/>
      <point x="10" y="681" type="line"/>
      <point x="50" y="681"/>
      <point x="63" y="670"/>
      <point x="63" y="585" type="curve" smooth="yes"/>
      <point x="63" y="482" type="line" smooth="yes"/>
      <point x="63" y="321"/>
      <point x="120" y="252"/>
      <point x="239" y="252" type="curve" smooth="yes"/>
      <point x="251" y="252" type="line"/>
      <point x="251" y="110" type="line" smooth="yes"/>
      <point x="251" y="43"/>
      <point x="236" y="33"/>
      <point x="188" y="33" type="curve" smooth="yes"/>
      <point x="187" y="33" type="line"/>
    </contour>
  </outline>
</glyph>
<glyph name="theta" format="2">
  <advance width="383"/>
  <unicode hex="03B8"/>
  <anchor x="192" y="0" name="bottom"/>
  <anchor x="192" y="764" name="top"/>
  <anchor x="363" y="764" name="topright"/>
  <outline>
    <contour>
      <point x="193" y="-10" type="curve" smooth="yes"/>
      <point x="298" y="-10"/>
      <point x="351" y="136"/>
      <point x="351" y="378" type="curve" smooth="yes"/>
      <point x="351" y="621"/>
      <point x="297" y="764"/>
      <point x="194" y="764" type="curve" smooth="yes"/>
      <point x="86" y="764"/>
      <point x="34" y="621"/>
      <point x="34" y="379" type="curve" smooth="yes"/>
      <point x="34" y="136"/>
      <point x="83" y="-10"/>
    </contour>
    <contour>
      <point x="193" y="31" type="curve" smooth="yes"/>
      <point x="139" y="31"/>
      <point x="111" y="156"/>
      <point x="108" y="366" type="curve"/>
      <point x="275" y="366" type="line"/>
      <point x="275" y="158"/>
      <point x="246" y="31"/>
    </contour>
    <contour>
      <point x="108" y="407" type="line"/>
      <point x="111" y="607"/>
      <point x="143" y="723"/>
      <point x="195" y="723" type="curve" smooth="yes"/>
      <point x="242" y="723"/>
      <point x="275" y="607"/>
      <point x="277" y="407" type="curve"/>
    </contour>
  </outline>
</glyph>
<glyph name="sigma1" format="2">
  <advance width="317"/>
  <unicode hex="03C2"/>
  <anchor x="159" y="-203" name="bottom"/>
  <anchor x="159" y="536" name="top"/>
  <outline>
    <contour>
      <point x="185" y="-203" type="line"/>
      <point x="255" y="-177"/>
      <point x="295" y="-118"/>
      <point x="295" y="-51" type="curve" smooth="yes"/>
      <point x="295" y="29"/>
      <point x="244" y="53"/>
      <point x="194" y="68" type="curve" smooth="yes"/>
      <point x="128" y="85"/>
      <point x="107" y="148"/>
      <point x="107" y="274" type="curve" smooth="yes"/>
      <point x="107" y="447"/>
      <point x="128" y="506"/>
      <point x="186" y="506" type="curve" smooth="yes"/>
      <point x="231" y="506"/>
      <point x="242" y="467"/>
      <point x="242" y="388" type="curve"/>
      <point x="283" y="388"/>
      <point x="303" y="403"/>
      <point x="303" y="437" type="curve" smooth="yes"/>
      <point x="303" y="498"/>
      <point x="270" y="545"/>
      <point x="183" y="545" type="curve" smooth="yes"/>
      <point x="79" y="545"/>
      <point x="34" y="467"/>
      <point x="34" y="252" type="curve" smooth="yes"/>
      <point x="34" y="94"/>
      <point x="76" y="28"/>
      <point x="178" y="1" type="curve" smooth="yes"/>
      <point x="214" y="-6"/>
      <point x="237" y="-27"/>
      <point x="237" y="-74" type="curve" smooth="yes"/>
      <point x="237" y="-110"/>
      <point x="211" y="-148"/>
      <point x="185" y="-166" type="curve"/>
    </contour>
  </outline>
</glyph>
<glyph name="uni03D7" format="2">
  <advance width="423"/>
  <unicode hex="03D7"/>
  <outline>
    <contour>
      <point x="330" y="-198" type="curve" smooth="yes"/>
      <point x="379" y="-198"/>
      <point x="402" y="-157"/>
      <point x="402" y="-47" type="curve" smooth="yes"/>
      <point x="403" y="28" type="line"/>
      <point x="339" y="26"/>
      <point x="338" y="71"/>
      <point x="338" y="180" type="curve" smooth="yes"/>
      <point x="338" y="301"/>
      <point x="359" y="446"/>
      <point x="378" y="536" type="curve"/>
      <point x="326" y="536" type="line"/>
      <point x="124" y="124" type="line"/>
      <point x="141" y="195"/>
      <point x="156" y="282"/>
      <point x="156" y="362" type="curve" smooth="yes"/>
      <point x="156" y="486"/>
      <point x="124" y="546"/>
      <point x="66" y="546" type="curve" smooth="yes"/>
      <point x="31" y="546"/>
      <point x="22" y="524"/>
      <point x="21" y="505" type="curve"/>
      <point x="66" y="504"/>
      <point x="80" y="461"/>
      <point x="80" y="318" type="curve" smooth="yes"/>
      <point x="80" y="193"/>
      <point x="49" y="55"/>
      <point x="35" y="0" type="curve"/>
      <point x="90" y="0" type="line"/>
      <point x="296" y="419" type="line"/>
      <point x="278" y="342"/>
      <point x="263" y="242"/>
      <point x="263" y="165" type="curve" smooth="yes"/>
      <point x="263" y="76"/>
      <point x="281" y="-11"/>
      <point x="352" y="-11" type="curve" smooth="yes"/>
      <point x="354" y="-11"/>
      <point x="360" y="-11"/>
      <point x="363" y="-10" type="curve"/>
      <point x="363" y="-48" type="line" smooth="yes"/>
      <point x="363" y="-120"/>
      <point x="353" y="-146"/>
      <point x="325" y="-146" type="curve" smooth="yes"/>
      <point x="307" y="-146"/>
      <point x="293" y="-134"/>
      <point x="292" y="-107" type="curve"/>
      <point x="286" y="-117"/>
      <point x="282" y="-126"/>
      <point x="282" y="-143" type="curve" smooth="yes"/>
      <point x="282" y="-180"/>
      <point x="304" y="-198"/>
    </contour>
  </outline>
</glyph>
<glyph name="uni03DB" format="2">
  <advance width="321"/>
  <unicode hex="03DB"/>
  <anchor x="161" y="-202" name="bottom"/>
  <anchor x="161" y="536" name="top"/>
  <outline>
    <contour>
      <point x="181" y="-202" type="curve" smooth="yes"/>
      <point x="259" y="-202"/>
      <point x="295" y="-125"/>
      <point x="295" y="-63" type="curve" smooth="yes"/>
      <point x="295" y="16"/>
      <point x="270" y="56"/>
      <point x="208" y="84" type="curve" smooth="yes"/>
      <point x="140" y="112"/>
      <point x="107" y="158"/>
      <point x="107" y="283" type="curve" smooth="yes"/>
      <point x="107" y="434"/>
      <point x="125" y="511"/>
      <point x="187" y="511" type="curve" smooth="yes"/>
      <point x="217" y="511"/>
      <point x="234" y="479"/>
      <point x="268" y="479" type="curve" smooth="yes"/>
      <point x="298" y="479"/>
      <point x="317" y="511"/>
      <point x="316" y="574" type="curve"/>
      <point x="287" y="574" type="line"/>
      <point x="282" y="557"/>
      <point x="276" y="541"/>
      <point x="249" y="541" type="curve" smooth="yes"/>
      <point x="231" y="541"/>
      <point x="200" y="544"/>
      <point x="182" y="544" type="curve" smooth="yes"/>
      <point x="95" y="544"/>
      <point x="34" y="485"/>
      <point x="34" y="265" type="curve" smooth="yes"/>
      <point x="34" y="108"/>
      <point x="92" y="56"/>
      <point x="170" y="25" type="curve" smooth="yes"/>
      <point x="222" y="2"/>
      <point x="238" y="-28"/>
      <point x="238" y="-78" type="curve" smooth="yes"/>
      <point x="238" y="-134"/>
      <point x="226" y="-175"/>
      <point x="148" y="-170" type="curve"/>
      <point x="148" y="-187"/>
      <point x="163" y="-202"/>
    </contour>
  </outline>
</glyph>
<glyph name="uni03DD" format="2">
  <advance width="350"/>
  <unicode hex="03DD"/>
  <anchor x="175" y="-240" name="bottom"/>
  <anchor x="175" y="536" name="top"/>
  <outline>
    <contour>
      <point x="70" y="-240" type="line"/>
      <point x="144" y="-240" type="line"/>
      <point x="144" y="192" type="line"/>
      <point x="165" y="192" type="line" smooth="yes"/>
      <point x="228" y="192"/>
      <point x="231" y="179"/>
      <point x="236" y="104" type="curve"/>
      <point x="269" y="104" type="line"/>
      <point x="269" y="229" type="line"/>
      <point x="144" y="229" type="line"/>
      <point x="144" y="497" type="line"/>
      <point x="238" y="497" type="line" smooth="yes"/>
      <point x="281" y="497"/>
      <point x="283" y="478"/>
      <point x="286" y="420" type="curve" smooth="yes"/>
      <point x="287" y="378" type="line"/>
      <point x="321" y="378" type="line"/>
      <point x="322" y="536" type="line"/>
      <point x="19" y="536" type="line"/>
      <point x="19" y="503" type="line"/>
      <point x="21" y="503" type="line" smooth="yes"/>
      <point x="61" y="503"/>
      <point x="70" y="487"/>
      <point x="70" y="416" type="curve" smooth="yes"/>
    </contour>
  </outline>
</glyph>
<glyph name="uni03DE" format="2">
  <advance width="294"/>
  <unicode hex="03DE"/>
  <anchor x="148" y="0" name="bottom"/>
  <anchor x="148" y="714" name="top"/>
  <outline>
    <contour>
      <point x="209" y="-10" type="curve" smooth="yes"/>
      <point x="253" y="-10"/>
      <point x="269" y="19"/>
      <point x="269" y="49" type="curve" smooth="yes"/>
      <point x="269" y="70"/>
      <point x="260" y="84"/>
      <point x="248" y="91" type="curve"/>
      <point x="247" y="60"/>
      <point x="235" y="46"/>
      <point x="221" y="46" type="curve" smooth="yes"/>
      <point x="201" y="46"/>
      <point x="191" y="62"/>
      <point x="191" y="115" type="curve" smooth="yes"/>
      <point x="191" y="153"/>
      <point x="200" y="212"/>
      <point x="261" y="362" type="curve"/>
      <point x="261" y="402" type="line"/>
      <point x="90" y="402" type="line"/>
      <point x="126" y="483"/>
      <point x="145" y="542"/>
      <point x="145" y="618" type="curve" smooth="yes"/>
      <point x="145" y="684"/>
      <point x="119" y="720"/>
      <point x="76" y="720" type="curve" smooth="yes"/>
      <point x="32" y="720"/>
      <point x="16" y="691"/>
      <point x="16" y="662" type="curve" smooth="yes"/>
      <point x="16" y="641"/>
      <point x="25" y="626"/>
      <point x="38" y="619" type="curve"/>
      <point x="38" y="650"/>
      <point x="51" y="665"/>
      <point x="64" y="665" type="curve" smooth="yes"/>
      <point x="83" y="665"/>
      <point x="96" y="649"/>
      <point x="96" y="595" type="curve" smooth="yes"/>
      <point x="96" y="544"/>
      <point x="78" y="484"/>
      <point x="34" y="382" type="curve"/>
      <point x="34" y="343" type="line"/>
      <point x="206" y="343" type="line"/>
      <point x="159" y="231"/>
      <point x="141" y="165"/>
      <point x="141" y="92" type="curve" smooth="yes"/>
      <point x="141" y="25"/>
      <point x="168" y="-10"/>
    </contour>
  </outline>
</glyph>
<glyph name="uni03E0" format="2">
  <advance width="416"/>
  <unicode hex="03E0"/>
  <anchor x="209" y="0" name="bottom"/>
  <anchor x="209" y="714" name="top"/>
  <outline>
    <contour>
      <point x="155" y="-10" type="line"/>
      <point x="289" y="-3"/>
      <point x="379" y="147"/>
      <point x="379" y="373" type="curve" smooth="yes"/>
      <point x="379" y="577"/>
      <point x="325" y="724"/>
      <point x="171" y="724" type="curve" smooth="yes"/>
      <point x="85" y="724"/>
      <point x="24" y="668"/>
      <point x="24" y="600" type="curve" smooth="yes"/>
      <point x="24" y="560"/>
      <point x="39" y="542"/>
      <point x="77" y="542" type="curve"/>
      <point x="77" y="623"/>
      <point x="96" y="683"/>
      <point x="176" y="683" type="curve" smooth="yes"/>
      <point x="218" y="683"/>
      <point x="250" y="654"/>
      <point x="270" y="600" type="curve"/>
      <point x="89" y="446" type="line"/>
      <point x="110" y="413" type="line"/>
      <point x="282" y="561" type="line"/>
      <point x="290" y="535"/>
      <point x="296" y="507"/>
      <point x="301" y="473" type="curve"/>
      <point x="145" y="336" type="line"/>
      <point x="166" y="302" type="line"/>
      <point x="303" y="428" type="line"/>
      <point x="305" y="403"/>
      <point x="307" y="376"/>
      <point x="307" y="348" type="curve" smooth="yes"/>
      <point x="307" y="196"/>
      <point x="272" y="42"/>
      <point x="155" y="34" type="curve"/>
    </contour>
  </outline>
</glyph>
<glyph name="uni03E1" format="2">
  <advance width="279"/>
  <unicode hex="03E1"/>
  <anchor x="139" y="-240" name="bottom"/>
  <anchor x="139" y="544" name="top"/>
  <outline>
    <contour>
      <point x="145" y="-240" type="line"/>
      <point x="214" y="-150"/>
      <point x="247" y="-26"/>
      <point x="247" y="94" type="curve" smooth="yes"/>
      <point x="247" y="362"/>
      <point x="153" y="534"/>
      <point x="11" y="544" type="curve"/>
      <point x="11" y="505" type="line"/>
      <point x="64" y="498"/>
      <point x="118" y="431"/>
      <point x="149" y="314" type="curve"/>
      <point x="30" y="257" type="line"/>
      <point x="44" y="221" type="line"/>
      <point x="159" y="276" type="line"/>
      <point x="165" y="244"/>
      <point x="169" y="209"/>
      <point x="172" y="172" type="curve"/>
      <point x="63" y="116" type="line"/>
      <point x="76" y="79" type="line"/>
      <point x="174" y="130" type="line"/>
      <point x="175" y="109"/>
      <point x="176" y="89"/>
      <point x="176" y="67" type="curve" smooth="yes"/>
      <point x="176" y="-31"/>
      <point x="163" y="-141"/>
      <point x="123" y="-212" type="curve"/>
    </contour>
  </outline>
</glyph>
<glyph name="uni03F0" format="2">
  <advance width="423"/>
  <unicode hex="03F0"/>
  <anchor x="212" y="0" name="bottom"/>
  <anchor x="212" y="536" name="top"/>
  <outline>
    <contour>
      <point x="355" y="-10" type="curve" smooth="yes"/>
      <point x="388" y="-10"/>
      <point x="402" y="12"/>
      <point x="405" y="30" type="curve"/>
      <point x="350" y="31"/>
      <point x="338" y="79"/>
      <point x="338" y="193" type="curve" smooth="yes"/>
      <point x="338" y="310"/>
      <point x="359" y="449"/>
      <point x="378" y="536" type="curve"/>
      <point x="326" y="536" type="line"/>
      <point x="124" y="124" type="line"/>
      <point x="139" y="185"/>
      <point x="156" y="277"/>
      <point x="156" y="362" type="curve" smooth="yes"/>
      <point x="156" y="486"/>
      <point x="124" y="546"/>
      <point x="66" y="546" type="curve" smooth="yes"/>
      <point x="27" y="546"/>
      <point x="16" y="519"/>
      <point x="15" y="501" type="curve"/>
      <point x="65" y="499"/>
      <point x="80" y="461"/>
      <point x="80" y="321" type="curve" smooth="yes"/>
      <point x="80" y="196"/>
      <point x="49" y="55"/>
      <point x="35" y="0" type="curve"/>
      <point x="90" y="0" type="line"/>
      <point x="296" y="419" type="line"/>
      <point x="278" y="343"/>
      <point x="263" y="245"/>
      <point x="263" y="165" type="curve" smooth="yes"/>
      <point x="263" y="53"/>
      <point x="296" y="-10"/>
    </contour>
  </outline>
</glyph>
<glyph name="afii10041" format="2">
  <advance width="494"/>
  <unicode hex="0427"/>
  <anchor x="248" y="0" name="bottom"/>
  <anchor x="248" y="714" name="top"/>
  <outline>
    <contour>
      <point x="269" y="0" type="line"/>
      <point x="473" y="0" type="line"/>
      <point x="473" y="33" type="line"/>
      <point x="462" y="33" type="line" smooth="yes"/>
      <point x="421" y="33"/>
      <point x="412" y="43"/>
      <point x="412" y="113" type="curve" smooth="yes"/>
      <point x="412" y="602" type="line" smooth="yes"/>
      <point x="412" y="670"/>
      <point x="422" y="681"/>
      <point x="460" y="681" type="curve" smooth="yes"/>
      <point x="473" y="681" type="line"/>
      <point x="473" y="714" type="line"/>
      <point x="285" y="714" type="line"/>
      <point x="285" y="681" type="line"/>
      <point x="289" y="681" type="line" smooth="yes"/>
      <point x="330" y="681"/>
      <point x="337" y="670"/>
      <point x="337" y="602" type="curve" smooth="yes"/>
      <point x="337" y="375" type="line"/>
      <point x="324" y="355"/>
      <point x="277" y="320"/>
      <point x="238" y="320" type="curve" smooth="yes"/>
      <point x="155" y="320"/>
      <point x="146" y="381"/>
      <point x="146" y="491" type="curve" smooth="yes"/>
      <point x="146" y="602" type="line" smooth="yes"/>
      <point x="146" y="670"/>
      <point x="155" y="681"/>
      <point x="194" y="681" type="curve" smooth="yes"/>
      <point x="206" y="681" type="line"/>
      <point x="206" y="714" type="line"/>
      <point x="14" y="714" type="line"/>
      <point x="14" y="681" type="line"/>
      <point x="22" y="681" type="line"/>
      <point x="63" y="681"/>
      <point x="70" y="670"/>
      <point x="70" y="602" type="curve" smooth="yes"/>
      <point x="70" y="492" type="line" smooth="yes"/>
      <point x="70" y="334"/>
      <point x="115" y="275"/>
      <point x="218" y="275" type="curve" smooth="yes"/>
      <point x="277" y="275"/>
      <point x="324" y="316"/>
      <point x="337" y="331" type="curve"/>
      <point x="337" y="112" type="line" smooth="yes"/>
      <point x="337" y="44"/>
      <point x="329" y="33"/>
      <point x="291" y="33" type="curve" smooth="yes"/>
      <point x="269" y="33" type="line"/>
    </contour>
  </outline>
</glyph>
<glyph name="afii10046" format="2">
  <advance width="401"/>
  <unicode hex="042C"/>
  <anchor x="200" y="0" name="bottom"/>
  <anchor x="200" y="714" name="top"/>
  <outline>
    <contour>
      <point x="23" y="0" type="line"/>
      <point x="211" y="0" type="line"/>
      <point x="340" y="0"/>
      <point x="380" y="82"/>
      <point x="380" y="199" type="curve" smooth="yes"/>
      <point x="380" y="328"/>
      <point x="331" y="392"/>
      <point x="198" y="392" type="curve" smooth="yes"/>
      <point x="158" y="392" type="line"/>
      <point x="158" y="605" type="line" smooth="yes"/>
      <point x="158" y="669"/>
      <point x="166" y="681"/>
      <point x="203" y="681" type="curve" smooth="yes"/>
      <point x="245" y="681" type="line"/>
      <point x="245" y="714" type="line"/>
      <point x="23" y="714" type="line"/>
      <point x="23" y="681" type="line"/>
      <point x="36" y="681" type="line" smooth="yes"/>
      <point x="75" y="681"/>
      <point x="83" y="671"/>
      <point x="83" y="603" type="curve"/>
      <point x="83" y="112" type="line" smooth="yes"/>
      <point x="83" y="45"/>
      <point x="75" y="33"/>
      <point x="36" y="33" type="curve" smooth="yes"/>
      <point x="23" y="33" type="line"/>
    </contour>
    <contour>
      <point x="158" y="39" type="line"/>
      <point x="158" y="354" type="line"/>
      <point x="185" y="354" type="line" smooth="yes"/>
      <point x="271" y="354"/>
      <point x="301" y="309"/>
      <point x="301" y="198" type="curve" smooth="yes"/>
      <point x="301" y="101"/>
      <point x="281" y="39"/>
      <point x="204" y="39" type="curve" smooth="yes"/>
    </contour>
  </outline>
</glyph>
<glyph name="afii10068" format="2">
  <advance width="308"/>
  <unicode hex="0433"/>
  <anchor x="155" y="0" name="bottom"/>
  <anchor x="155" y="536" name="top"/>
  <outline>
    <contour>
      <point x="12" y="0" type="line"/>
      <point x="211" y="0" type="line"/>
      <point x="211" y="33" type="line"/>
      <point x="203" y="33" type="line" smooth="yes"/>
      <point x="156" y="33"/>
      <point x="147" y="40"/>
      <point x="147" y="105" type="curve" smooth="yes"/>
      <point x="147" y="497" type="line"/>
      <point x="210" y="497" type="line" smooth="yes"/>
      <point x="254" y="497"/>
      <point x="257" y="484"/>
      <point x="259" y="400" type="curve" smooth="yes"/>
      <point x="260" y="378" type="line"/>
      <point x="296" y="378" type="line"/>
      <point x="298" y="536" type="line"/>
      <point x="12" y="536" type="line"/>
      <point x="12" y="503" type="line"/>
      <point x="16" y="503" type="line" smooth="yes"/>
      <point x="63" y="503"/>
      <point x="73" y="496"/>
      <point x="73" y="430" type="curve" smooth="yes"/>
      <point x="73" y="105" type="line" smooth="yes"/>
      <point x="73" y="42"/>
      <point x="65" y="33"/>
      <point x="18" y="33" type="curve" smooth="yes"/>
      <point x="12" y="33" type="line"/>
    </contour>
  </outline>
</glyph>
<glyph name="afii10079" format="2">
  <advance width="446"/>
  <unicode hex="043D"/>
  <anchor x="223" y="0" name="bottom"/>
  <anchor x="223" y="536" name="top"/>
  <outline>
    <contour>
      <point x="12" y="0" type="line"/>
      <point x="197" y="0" type="line"/>
      <point x="197" y="33" type="line"/>
      <point x="201" y="33" type="line" smooth="yes"/>
      <point x="153" y="33"/>
      <point x="147" y="41"/>
      <point x="147" y="105" type="curve" smooth="yes"/>
      <point x="147" y="256" type="line"/>
      <point x="301" y="256" type="line"/>
      <point x="301" y="105" type="line" smooth="yes"/>
      <point x="301" y="42"/>
      <point x="293" y="33"/>
      <point x="251" y="33" type="curve" smooth="yes"/>
      <point x="249" y="33" type="line"/>
      <point x="249" y="0" type="line"/>
      <point x="433" y="0" type="line"/>
      <point x="433" y="33" type="line"/>
      <point x="434" y="33" type="line" smooth="yes"/>
      <point x="384" y="33"/>
      <point x="374" y="43"/>
      <point x="374" y="105" type="curve" smooth="yes"/>
      <point x="374" y="431" type="line" smooth="yes"/>
      <point x="374" y="494"/>
      <point x="386" y="503"/>
      <point x="429" y="503" type="curve" smooth="yes"/>
      <point x="433" y="503" type="line"/>
      <point x="433" y="536" type="line"/>
      <point x="249" y="536" type="line"/>
      <point x="249" y="503" type="line"/>
      <point x="249" y="503" type="line" smooth="yes"/>
      <point x="293" y="503"/>
      <point x="301" y="494"/>
      <point x="301" y="431" type="curve" smooth="yes"/>
      <point x="301" y="293" type="line"/>
      <point x="147" y="293" type="line"/>
      <point x="147" y="431" type="line" smooth="yes"/>
      <point x="147" y="494"/>
      <point x="153" y="503"/>
      <point x="196" y="503" type="curve" smooth="yes"/>
      <point x="197" y="503" type="line"/>
      <point x="197" y="536" type="line"/>
      <point x="12" y="536" type="line"/>
      <point x="12" y="503" type="line"/>
      <point x="15" y="503" type="line" smooth="yes"/>
      <point x="63" y="503"/>
      <point x="73" y="494"/>
      <point x="73" y="431" type="curve" smooth="yes"/>
      <point x="73" y="105" type="line" smooth="yes"/>
      <point x="73" y="41"/>
      <point x="62" y="33"/>
      <point x="19" y="33" type="curve" smooth="yes"/>
      <point x="12" y="33" type="line"/>
    </contour>
  </outline>
</glyph>
<glyph name="afii10089" format="2">
  <advance width="418"/>
  <unicode hex="0447"/>
  <anchor x="209" y="0" name="bottom"/>
  <anchor x="209" y="536" name="top"/>
  <outline>
    <contour>
      <point x="215" y="0" type="line"/>
      <point x="406" y="0" type="line"/>
      <point x="406" y="33" type="line"/>
      <point x="399" y="33" type="line" smooth="yes"/>
      <point x="356" y="33"/>
      <point x="346" y="43"/>
      <point x="346" y="106" type="curve" smooth="yes"/>
      <point x="346" y="429" type="line" smooth="yes"/>
      <point x="346" y="492"/>
      <point x="357" y="503"/>
      <point x="399" y="503" type="curve" smooth="yes"/>
      <point x="405" y="503" type="line"/>
      <point x="405" y="536" type="line"/>
      <point x="221" y="536" type="line"/>
      <point x="221" y="503" type="line"/>
      <point x="225" y="503" type="line" smooth="yes"/>
      <point x="265" y="503"/>
      <point x="273" y="494"/>
      <point x="273" y="431" type="curve" smooth="yes"/>
      <point x="273" y="294" type="line"/>
      <point x="236" y="248"/>
      <point x="209" y="231"/>
      <point x="180" y="231" type="curve" smooth="yes"/>
      <point x="146" y="231"/>
      <point x="134" y="264"/>
      <point x="134" y="321" type="curve"/>
      <point x="134" y="432" type="line" smooth="yes"/>
      <point x="134" y="495"/>
      <point x="140" y="503"/>
      <point x="184" y="503" type="curve" smooth="yes"/>
      <point x="186" y="503" type="line"/>
      <point x="186" y="536" type="line"/>
      <point x="8" y="536" type="line"/>
      <point x="8" y="503" type="line"/>
      <point x="5" y="503" type="line" smooth="yes"/>
      <point x="52" y="503"/>
      <point x="60" y="491"/>
      <point x="60" y="429" type="curve" smooth="yes"/>
      <point x="60" y="312" type="line" smooth="yes"/>
      <point x="60" y="231"/>
      <point x="90" y="185"/>
      <point x="154" y="185" type="curve" smooth="yes"/>
      <point x="207" y="185"/>
      <point x="235" y="207"/>
      <point x="273" y="248" type="curve"/>
      <point x="273" y="106" type="line" smooth="yes"/>
      <point x="273" y="41"/>
      <point x="261" y="33"/>
      <point x="213" y="33" type="curve" smooth="yes"/>
      <point x="215" y="33" type="line"/>
    </contour>
  </outline>
</glyph>
<glyph name="afii10095" format="2">
  <advance width="324"/>
  <unicode hex="044D"/>
  <anchor x="162" y="0" name="bottom"/>
  <anchor x="162" y="536" name="top"/>
  <outline>
    <contour>
      <point x="136" y="-11" type="curve" smooth="yes"/>
      <point x="227" y="-11"/>
      <point x="293" y="57"/>
      <point x="293" y="268" type="curve" smooth="yes"/>
      <point x="293" y="482"/>
      <point x="233" y="544"/>
      <point x="139" y="544" type="curve" smooth="yes"/>
      <point x="68" y="544"/>
      <point x="27" y="497"/>
      <point x="27" y="434" type="curve" smooth="yes"/>
      <point x="27" y="403"/>
      <point x="44" y="392"/>
      <point x="77" y="392" type="curve"/>
      <point x="77" y="465"/>
      <point x="84" y="506"/>
      <point x="136" y="506" type="curve"/>
      <point x="199" y="506"/>
      <point x="220" y="450"/>
      <point x="221" y="290" type="curve"/>
      <point x="83" y="290" type="line"/>
      <point x="83" y="249" type="line"/>
      <point x="221" y="249" type="line"/>
      <point x="218" y="68"/>
      <point x="179" y="27"/>
      <point x="131" y="27" type="curve" smooth="yes"/>
      <point x="95" y="27"/>
      <point x="65" y="81"/>
      <point x="50" y="132" type="curve"/>
      <point x="29" y="127"/>
      <point x="20" y="112"/>
      <point x="20" y="86" type="curve" smooth="yes"/>
      <point x="20" y="43"/>
      <point x="67" y="-11"/>
    </contour>
  </outline>
</glyph>
<glyph name="afii10099" format="2">
  <advance width="406"/>
  <unicode hex="0452"/>
  <anchor x="203" y="-240" name="bottom"/>
  <anchor x="203" y="760" name="top"/>
  <outline>
    <contour>
      <point x="214" y="-240" type="line"/>
      <point x="223" y="-240" type="line" smooth="yes"/>
      <point x="295" y="-240"/>
      <point x="350" y="-205"/>
      <point x="350" y="-21" type="curve" smooth="yes"/>
      <point x="350" y="347" type="line"/>
      <point x="350" y="467"/>
      <point x="307" y="529"/>
      <point x="241" y="529" type="curve" smooth="yes"/>
      <point x="194" y="529"/>
      <point x="162" y="495"/>
      <point x="142" y="449" type="curve"/>
      <point x="138" y="449" type="line"/>
      <point x="140" y="469"/>
      <point x="142" y="492"/>
      <point x="142" y="511" type="curve" smooth="yes"/>
      <point x="142" y="604" type="line"/>
      <point x="249" y="604" type="line"/>
      <point x="249" y="639" type="line"/>
      <point x="142" y="639" type="line"/>
      <point x="142" y="760" type="line"/>
      <point x="12" y="760" type="line"/>
      <point x="12" y="727" type="line"/>
      <point x="19" y="727" type="line" smooth="yes"/>
      <point x="56" y="727"/>
      <point x="68" y="715"/>
      <point x="68" y="657" type="curve" smooth="yes"/>
      <point x="68" y="639" type="line"/>
      <point x="9" y="639" type="line"/>
      <point x="9" y="604" type="line"/>
      <point x="68" y="604" type="line"/>
      <point x="68" y="107" type="line" smooth="yes"/>
      <point x="68" y="41"/>
      <point x="57" y="33"/>
      <point x="12" y="33" type="curve" smooth="yes"/>
      <point x="11" y="33" type="line"/>
      <point x="11" y="0" type="line"/>
      <point x="193" y="0" type="line"/>
      <point x="193" y="33" type="line"/>
      <point x="194" y="33" type="line"/>
      <point x="150" y="33"/>
      <point x="141" y="41"/>
      <point x="141" y="105" type="curve" smooth="yes"/>
      <point x="141" y="308" type="line" smooth="yes"/>
      <point x="141" y="416"/>
      <point x="158" y="481"/>
      <point x="209" y="481" type="curve" smooth="yes"/>
      <point x="261" y="481"/>
      <point x="277" y="426"/>
      <point x="277" y="337" type="curve" smooth="yes"/>
      <point x="277" y="-17" type="line" smooth="yes"/>
      <point x="277" y="-160"/>
      <point x="257" y="-201"/>
      <point x="217" y="-201" type="curve" smooth="yes"/>
      <point x="214" y="-201" type="line"/>
    </contour>
  </outline>
</glyph>
<glyph name="afii10193" format="2">
  <advance width="427"/>
  <unicode hex="045F"/>
  <anchor x="213" y="-210" name="bottom"/>
  <anchor x="213" y="536" name="top"/>
  <outline>
    <contour>
      <point x="196" y="-210" type="curve"/>
      <point x="232" y="-210" type="line"/>
      <point x="232" y="-20"/>
      <point x="232" y="0"/>
      <point x="344" y="0" type="curve"/>
      <point x="414" y="0" type="line"/>
      <point x="414" y="31" type="line"/>
      <point x="401" y="31" type="line" smooth="yes"/>
      <point x="361" y="31"/>
      <point x="354" y="40"/>
      <point x="354" y="103" type="curve" smooth="yes"/>
      <point x="354" y="431" type="line" smooth="yes"/>
      <point x="354" y="494"/>
      <point x="363" y="503"/>
      <point x="413" y="503" type="curve" smooth="yes"/>
      <point x="414" y="503" type="line"/>
      <point x="414" y="536" type="line"/>
      <point x="229" y="536" type="line"/>
      <point x="229" y="503" type="line"/>
      <point x="230" y="503" type="line" smooth="yes"/>
      <point x="273" y="503"/>
      <point x="281" y="494"/>
      <point x="281" y="431" type="curve" smooth="yes"/>
      <point x="281" y="41" type="line"/>
      <point x="147" y="41" type="line"/>
      <point x="147" y="431" type="line" smooth="yes"/>
      <point x="147" y="495"/>
      <point x="152" y="503"/>
      <point x="202" y="503" type="curve" smooth="yes"/>
      <point x="197" y="503" type="line"/>
      <point x="197" y="536" type="line"/>
      <point x="12" y="536" type="line"/>
      <point x="12" y="503" type="line"/>
      <point x="17" y="503" type="line" smooth="yes"/>
      <point x="61" y="503"/>
      <point x="73" y="494"/>
      <point x="73" y="431" type="curve" smooth="yes"/>
      <point x="73" y="105" type="line" smooth="yes"/>
      <point x="73" y="43"/>
      <point x="62" y="33"/>
      <point x="17" y="33" type="curve" smooth="yes"/>
      <point x="12" y="33" type="line"/>
      <point x="12" y="0" type="line"/>
      <point x="88" y="0" type="line" smooth="yes"/>
      <point x="196" y="0"/>
      <point x="196" y="-20"/>
    </contour>
  </outline>
</glyph>
<glyph name="uni0461" format="2">
  <advance width="539"/>
  <unicode hex="0461"/>
  <anchor x="270" y="0" name="bottom"/>
  <anchor x="270" y="536" name="top"/>
  <outline>
    <contour>
      <point x="160" y="0" type="curve"/>
      <point x="223" y="0" type="line"/>
      <point x="291" y="273" type="line"/>
      <point x="318" y="155"/>
      <point x="332" y="70"/>
      <point x="344" y="0" type="curve"/>
      <point x="382" y="0" type="line"/>
      <point x="451" y="94"/>
      <point x="508" y="304"/>
      <point x="508" y="444" type="curve" smooth="yes"/>
      <point x="508" y="510"/>
      <point x="489" y="546"/>
      <point x="459" y="546" type="curve" smooth="yes"/>
      <point x="434" y="546"/>
      <point x="421" y="529"/>
      <point x="422" y="506" type="curve"/>
      <point x="447" y="502"/>
      <point x="460" y="476"/>
      <point x="460" y="433" type="curve" smooth="yes"/>
      <point x="460" y="313"/>
      <point x="424" y="167"/>
      <point x="393" y="91" type="curve"/>
      <point x="353" y="296"/>
      <point x="334" y="406"/>
      <point x="306" y="536" type="curve"/>
      <point x="235" y="536" type="line"/>
      <point x="249" y="469"/>
      <point x="268" y="392"/>
      <point x="276" y="337" type="curve"/>
      <point x="212" y="69" type="line"/>
      <point x="143" y="477"/>
      <point x="125" y="539"/>
      <point x="73" y="539" type="curve" smooth="yes"/>
      <point x="41" y="539"/>
      <point x="15" y="512"/>
      <point x="1" y="499" type="curve"/>
      <point x="15" y="470" type="line"/>
      <point x="25" y="478"/>
      <point x="31" y="489"/>
      <point x="45" y="489" type="curve" smooth="yes"/>
      <point x="73" y="489"/>
      <point x="105" y="280"/>
    </contour>
  </outline>
</glyph>
<glyph name="uni0469" format="2">
  <advance width="573"/>
  <unicode hex="0469"/>
  <anchor x="291" y="0" name="bottom"/>
  <anchor x="291" y="536" name="top"/>
  <outline>
    <contour>
      <point x="12" y="0" type="line"/>
      <point x="143" y="0" type="line"/>
      <point x="143" y="256" type="line"/>
      <point x="274" y="256" type="line"/>
      <point x="285" y="293" type="line"/>
      <point x="143" y="293" type="line"/>
      <point x="143" y="428" type="line" smooth="yes"/>
      <point x="143" y="493"/>
      <point x="154" y="503"/>
      <point x="195" y="503" type="curve" smooth="yes"/>
      <point x="198" y="503" type="line"/>
      <point x="198" y="536" type="line"/>
      <point x="12" y="536" type="line"/>
      <point x="12" y="503" type="line"/>
      <point x="19" y="503" type="line" smooth="yes"/>
      <point x="62" y="503"/>
      <point x="73" y="493"/>
      <point x="73" y="428" type="curve" smooth="yes"/>
      <point x="73" y="108" type="line" smooth="yes"/>
      <point x="73" y="42"/>
      <point x="62" y="33"/>
      <point x="19" y="33" type="curve" smooth="yes"/>
      <point x="12" y="33" type="line"/>
    </contour>
    <component base="uni0467" xOffset="172"/>
  </outline>
</glyph>
<glyph name="uni046C" format="2">
  <advance width="789"/>
  <unicode hex="046C"/>
  <anchor x="395" y="0" name="bottom"/>
  <anchor x="395" y="714" name="top"/>
  <outline>
    <contour>
      <point x="23" y="0" type="line"/>
      <point x="216" y="0" type="line"/>
      <point x="216" y="33" type="line"/>
      <point x="202" y="33" type="line" smooth="yes"/>
      <point x="164" y="33"/>
      <point x="158" y="47"/>
      <point x="158" y="109" type="curve" smooth="yes"/>
      <point x="158" y="349" type="line"/>
      <point x="368" y="349" type="line"/>
      <point x="345" y="330"/>
      <point x="338" y="297"/>
      <point x="332" y="276" type="curve" smooth="yes"/>
      <point x="298" y="114" type="line" smooth="yes"/>
      <point x="284" y="55"/>
      <point x="270" y="31"/>
      <point x="236" y="31" type="curve" smooth="yes"/>
      <point x="234" y="31" type="line"/>
      <point x="234" y="0" type="line"/>
      <point x="266" y="0" type="line" smooth="yes"/>
      <point x="320" y="0"/>
      <point x="344" y="27"/>
      <point x="361" y="101" type="curve" smooth="yes"/>
      <point x="406" y="272" type="line" smooth="yes"/>
      <point x="419" y="327"/>
      <point x="426" y="350"/>
      <point x="478" y="350" type="curve"/>
      <point x="478" y="112" type="line" smooth="yes"/>
      <point x="478" y="43"/>
      <point x="472" y="33"/>
      <point x="428" y="33" type="curve" smooth="yes"/>
      <point x="419" y="33" type="line"/>
      <point x="419" y="0" type="line"/>
      <point x="607" y="0" type="line"/>
      <point x="607" y="33" type="line"/>
      <point x="595" y="33" type="line" smooth="yes"/>
      <point x="550" y="33"/>
      <point x="544" y="43"/>
      <point x="544" y="113" type="curve" smooth="yes"/>
      <point x="544" y="350" type="line"/>
      <point x="592" y="350"/>
      <point x="603" y="334"/>
      <point x="618" y="268" type="curve" smooth="yes"/>
      <point x="662" y="101" type="line" smooth="yes"/>
      <point x="678" y="21"/>
      <point x="704" y="0"/>
      <point x="755" y="0" type="curve" smooth="yes"/>
      <point x="789" y="0" type="line"/>
      <point x="789" y="31" type="line"/>
      <point x="788" y="31" type="line" smooth="yes"/>
      <point x="760" y="31"/>
      <point x="740" y="45"/>
      <point x="726" y="113" type="curve" smooth="yes"/>
      <point x="688" y="282" type="line" smooth="yes"/>
      <point x="674" y="333"/>
      <point x="652" y="388"/>
      <point x="564" y="388" type="curve"/>
      <point x="701" y="677" type="line"/>
      <point x="701" y="714" type="line"/>
      <point x="324" y="714" type="line"/>
      <point x="324" y="677" type="line"/>
      <point x="461" y="388" type="line"/>
      <point x="158" y="388" type="line"/>
      <point x="158" y="606" type="line" smooth="yes"/>
      <point x="158" y="669"/>
      <point x="165" y="681"/>
      <point x="201" y="681" type="curve" smooth="yes"/>
      <point x="221" y="681" type="line"/>
      <point x="221" y="714" type="line"/>
      <point x="23" y="714" type="line"/>
      <point x="23" y="681" type="line"/>
      <point x="36" y="681" type="line" smooth="yes"/>
      <point x="73" y="681"/>
      <point x="83" y="669"/>
      <point x="83" y="605" type="curve" smooth="yes"/>
      <point x="83" y="109" type="line" smooth="yes"/>
      <point x="83" y="47"/>
      <point x="75" y="33"/>
      <point x="38" y="33" type="curve" smooth="yes"/>
      <point x="23" y="33" type="line"/>
    </contour>
    <contour>
      <point x="528" y="395" type="line"/>
      <point x="409" y="670" type="line"/>
      <point x="653" y="670" type="line"/>
    </contour>
  </outline>
</glyph>
<glyph name="uni046F" format="2">
  <advance width="315"/>
  <unicode hex="046F"/>
  <anchor x="157" y="-189" name="bottom"/>
  <anchor x="157" y="659" name="top"/>
  <outline>
    <contour>
      <point x="267" y="-189" type="curve"/>
      <point x="284" y="-187"/>
      <point x="302" y="-170"/>
      <point x="302" y="-137" type="curve" smooth="yes"/>
      <point x="302" y="-108"/>
      <point x="280" y="-86"/>
      <point x="245" y="-86" type="curve" smooth="yes"/>
      <point x="191" y="-86"/>
      <point x="164" y="-137"/>
      <point x="106" y="-137" type="curve" smooth="yes"/>
      <point x="79" y="-137"/>
      <point x="54" y="-119"/>
      <point x="54" y="-81" type="curve" smooth="yes"/>
      <point x="54" y="-36"/>
      <point x="84" y="-10"/>
      <point x="159" y="-2" type="curve" smooth="yes"/>
      <point x="268" y="12"/>
      <point x="294" y="61"/>
      <point x="294" y="147" type="curve" smooth="yes"/>
      <point x="294" y="223"/>
      <point x="259" y="264"/>
      <point x="210" y="282" type="curve"/>
      <point x="210" y="285" type="line"/>
      <point x="256" y="305"/>
      <point x="286" y="346"/>
      <point x="286" y="409" type="curve" smooth="yes"/>
      <point x="286" y="481"/>
      <point x="253" y="529"/>
      <point x="192" y="542" type="curve"/>
      <point x="211" y="584"/>
      <point x="221" y="615"/>
      <point x="242" y="615" type="curve" smooth="yes"/>
      <point x="257" y="615"/>
      <point x="259" y="611"/>
      <point x="267" y="605" type="curve"/>
      <point x="271" y="611"/>
      <point x="273" y="619"/>
      <point x="273" y="625" type="curve" smooth="yes"/>
      <point x="273" y="644"/>
      <point x="261" y="659"/>
      <point x="236" y="659" type="curve" smooth="yes"/>
      <point x="196" y="659"/>
      <point x="183" y="622"/>
      <point x="160" y="559" type="curve"/>
      <point x="141" y="592"/>
      <point x="111" y="635"/>
      <point x="86" y="658" type="curve"/>
      <point x="60" y="658" type="line"/>
      <point x="60" y="646" type="line"/>
      <point x="77" y="619"/>
      <point x="104" y="578"/>
      <point x="119" y="541" type="curve"/>
      <point x="53" y="529"/>
      <point x="35" y="477"/>
      <point x="35" y="445" type="curve" smooth="yes"/>
      <point x="35" y="412"/>
      <point x="51" y="395"/>
      <point x="89" y="395" type="curve"/>
      <point x="89" y="465"/>
      <point x="99" y="507"/>
      <point x="149" y="507" type="curve" smooth="yes"/>
      <point x="196" y="507"/>
      <point x="212" y="464"/>
      <point x="212" y="401" type="curve" smooth="yes"/>
      <point x="212" y="349"/>
      <point x="196" y="302"/>
      <point x="145" y="302" type="curve" smooth="yes"/>
      <point x="90" y="302" type="line"/>
      <point x="90" y="262" type="line"/>
      <point x="148" y="262" type="line" smooth="yes"/>
      <point x="194" y="262"/>
      <point x="221" y="215"/>
      <point x="221" y="144" type="curve" smooth="yes"/>
      <point x="221" y="63"/>
      <point x="189" y="41"/>
      <point x="143" y="38" type="curve" smooth="yes"/>
      <point x="82" y="32"/>
      <point x="8" y="5"/>
      <point x="8" y="-80" type="curve" smooth="yes"/>
      <point x="8" y="-137"/>
      <point x="38" y="-180"/>
      <point x="101" y="-180" type="curve" smooth="yes"/>
      <point x="162" y="-180"/>
      <point x="186" y="-139"/>
      <point x="229" y="-139" type="curve" smooth="yes"/>
      <point x="254" y="-139"/>
      <point x="267" y="-159"/>
    </contour>
  </outline>
</glyph>
<glyph name="uni0473" format="2">
  <advance width="386"/>
  <unicode hex="0473"/>
  <anchor x="193" y="0" name="bottom"/>
  <anchor x="193" y="536" name="top"/>
  <outline>
    <contour>
      <point x="192" y="-10" type="curve" smooth="yes"/>
      <point x="298" y="-10"/>
      <point x="352" y="74"/>
      <point x="352" y="268" type="curve" smooth="yes"/>
      <point x="352" y="448"/>
      <point x="301" y="545"/>
      <point x="194" y="545" type="curve" smooth="yes"/>
      <point x="84" y="545"/>
      <point x="34" y="452"/>
      <point x="34" y="268" type="curve" smooth="yes"/>
      <point x="34" y="77"/>
      <point x="93" y="-10"/>
    </contour>
    <contour>
      <point x="194" y="30" type="curve" smooth="yes"/>
      <point x="138" y="30"/>
      <point x="109" y="102"/>
      <point x="108" y="262" type="curve"/>
      <point x="120" y="273"/>
      <point x="132" y="282"/>
      <point x="142" y="282" type="curve" smooth="yes"/>
      <point x="172" y="282"/>
      <point x="197" y="232"/>
      <point x="231" y="232" type="curve" smooth="yes"/>
      <point x="253" y="232"/>
      <point x="266" y="241"/>
      <point x="278" y="254" type="curve"/>
      <point x="277" y="103"/>
      <point x="255" y="30"/>
    </contour>
    <contour>
      <point x="245" y="276" type="curve" smooth="yes"/>
      <point x="219" y="276"/>
      <point x="188" y="326"/>
      <point x="157" y="326" type="curve" smooth="yes"/>
      <point x="135" y="326"/>
      <point x="121" y="318"/>
      <point x="109" y="307" type="curve"/>
      <point x="112" y="438"/>
      <point x="135" y="505"/>
      <point x="191" y="505" type="curve" smooth="yes"/>
      <point x="254" y="505"/>
      <point x="275" y="434"/>
      <point x="278" y="297" type="curve"/>
      <point x="267" y="286"/>
      <point x="257" y="276"/>
    </contour>
  </outline>
</glyph>
<glyph name="uni047A" format="2">
  <advance width="488"/>
  <unicode hex="047A"/>
  <outline>
    <contour>
      <point x="247" y="-45" type="curve" smooth="yes"/>
      <point x="262" y="-45"/>
      <point x="273" y="-31"/>
      <point x="277" y="-8" type="curve"/>
      <point x="383" y="11"/>
      <point x="451" y="144"/>
      <point x="451" y="358" type="curve" smooth="yes"/>
      <point x="451" y="590"/>
      <point x="391" y="706"/>
      <point x="278" y="723" type="curve"/>
      <point x="274" y="748"/>
      <point x="262" y="761"/>
      <point x="247" y="761" type="curve" smooth="yes"/>
      <point x="230" y="761"/>
      <point x="217" y="746"/>
      <point x="214" y="723" type="curve"/>
      <point x="92" y="708"/>
      <point x="37" y="576"/>
      <point x="37" y="359" type="curve" smooth="yes"/>
      <point x="37" y="154"/>
      <point x="92" y="8"/>
      <point x="213" y="-8" type="curve"/>
      <point x="218" y="-31"/>
      <point x="230" y="-45"/>
    </contour>
    <contour>
      <point x="215" y="35" type="curve"/>
      <point x="146" y="53"/>
      <point x="114" y="180"/>
      <point x="114" y="358" type="curve" smooth="yes"/>
      <point x="114" y="547"/>
      <point x="141" y="663"/>
      <point x="216" y="680" type="curve"/>
      <point x="221" y="662"/>
      <point x="233" y="651"/>
      <point x="247" y="651" type="curve" smooth="yes"/>
      <point x="259" y="651"/>
      <point x="271" y="663"/>
      <point x="276" y="681" type="curve"/>
      <point x="349" y="661"/>
      <point x="374" y="545"/>
      <point x="374" y="358" type="curve" smooth="yes"/>
      <point x="374" y="176"/>
      <point x="340" y="58"/>
      <point x="276" y="36" type="curve"/>
      <point x="272" y="56"/>
      <point x="259" y="65"/>
      <point x="247" y="65" type="curve" smooth="yes"/>
      <point x="233" y="65"/>
      <point x="221" y="54"/>
    </contour>
  </outline>
</glyph>
<glyph name="palatalizationcomb.cy" format="2">
  <unicode hex="0484"/>
  <anchor x="1" y="536" name="_top"/>
  <anchor x="1" y="723" name="top"/>
  <outline>
    <contour>
      <point x="-123" y="613" type="line"/>
      <point x="-109" y="613" type="line" smooth="yes"/>
      <point x="-37" y="613"/>
      <point x="9" y="668"/>
      <point x="49" y="668" type="curve" smooth="yes"/>
      <point x="67" y="668"/>
      <point x="84" y="653"/>
      <point x="85" y="627" type="curve" smooth="yes"/>
      <point x="86" y="612" type="line"/>
      <point x="125" y="612" type="line"/>
      <point x="123" y="685"/>
      <point x="91" y="723"/>
      <point x="45" y="723" type="curve" smooth="yes"/>
      <point x="-10" y="723"/>
      <point x="-41" y="668"/>
      <point x="-123" y="668" type="curve"/>
      <point x="-123" y="668" type="line"/>
    </contour>
  </outline>
</glyph>
<glyph name="dasiapneumatacomb.cy" format="2">
  <unicode hex="0485"/>
  <anchor x="0" y="536" name="_top"/>
  <anchor x="0" y="777" name="top"/>
  <outline>
    <contour>
      <point x="43" y="616" type="curve"/>
      <point x="43" y="640" type="line"/>
      <point x="21" y="652"/>
      <point x="3" y="660"/>
      <point x="3" y="688" type="curve" smooth="yes"/>
      <point x="3" y="727"/>
      <point x="40" y="714"/>
      <point x="40" y="744" type="curve" smooth="yes"/>
      <point x="40" y="766"/>
      <point x="28" y="777"/>
      <point x="8" y="777" type="curve" smooth="yes"/>
      <point x="-25" y="777"/>
      <point x="-42" y="752"/>
      <point x="-42" y="718" type="curve" smooth="yes"/>
      <point x="-42" y="664"/>
      <point x="-11" y="628"/>
    </contour>
  </outline>
</glyph>
<glyph name="uni048D" format="2">
  <advance width="385"/>
  <unicode hex="048D"/>
  <anchor x="192" y="0" name="bottom"/>
  <anchor x="192" y="644" name="top"/>
  <outline>
    <contour>
      <point x="13" y="0" type="line"/>
      <point x="211" y="0" type="line" smooth="yes"/>
      <point x="301" y="0"/>
      <point x="360" y="53"/>
      <point x="360" y="148" type="curve" smooth="yes"/>
      <point x="360" y="275"/>
      <point x="278" y="296"/>
      <point x="211" y="296" type="curve" smooth="yes"/>
      <point x="144" y="296" type="line"/>
      <point x="144" y="466" type="line"/>
      <point x="244" y="466" type="line"/>
      <point x="244" y="501" type="line"/>
      <point x="144" y="501" type="line"/>
      <point x="144" y="644" type="line"/>
      <point x="71" y="644" type="line"/>
      <point x="71" y="501" type="line"/>
      <point x="13" y="501" type="line"/>
      <point x="13" y="466" type="line"/>
      <point x="71" y="466" type="line"/>
      <point x="71" y="105" type="line" smooth="yes"/>
      <point x="71" y="44"/>
      <point x="63" y="33"/>
      <point x="17" y="33" type="curve" smooth="yes"/>
      <point x="13" y="33" type="line"/>
    </contour>
    <contour>
      <point x="144" y="38" type="line"/>
      <point x="144" y="257" type="line"/>
      <point x="193" y="257" type="line" smooth="yes"/>
      <point x="247" y="257"/>
      <point x="285" y="231"/>
      <point x="285" y="148" type="curve" smooth="yes"/>
      <point x="285" y="76"/>
      <point x="251" y="38"/>
      <point x="207" y="38" type="curve" smooth="yes"/>
    </contour>
  </outline>
</glyph>
<glyph name="uni048F" format="2">
  <advance width="406"/>
  <unicode hex="048F"/>
  <anchor x="204" y="-235" name="bottom"/>
  <anchor x="204" y="536" name="top"/>
  <anchor x="397" y="536" name="topright"/>
  <outline>
    <contour>
      <point x="319" y="-95" type="line"/>
      <point x="357" y="-76" type="line"/>
      <point x="223" y="176" type="line"/>
      <point x="184" y="157" type="line"/>
    </contour>
    <component base="p"/>
  </outline>
</glyph>
